SplineFontDB: 3.0
FontName: Latte-Italic
FullName: Latte Italic
FamilyName: Latte
Weight: Book
Copyright: Copyright (c) 2016 by Guillaume Litaudon (www.guillaumelitaudon.fr) with Reserved Font Name "Latte".\nThis Font Software is licensed under the SIL Open Font License, Version 1.1.\n\nLatte is a variation of Carlito.\nCarlito is Copyright (c) 2010-2013 by tyPoland Lukasz Dziedzic with Reserved Font Name "Carlito". Licensed under the SIL Open Font License, Version 1.1.

StartChar: .notdef
Encoding: 1114112 -1 0
Width: 1038
GlyphClass: 2
Flags: MW
LayerCount: 2
Fore
SplineSet
241 1101 m 1,0,1
 265 1122 265 1122 293 1140.5 c 128,-1,2
 321 1159 321 1159 354 1173.5 c 128,-1,3
 387 1188 387 1188 425 1196 c 128,-1,4
 463 1204 463 1204 507 1204 c 0,5,6
 568 1204 568 1204 618 1187 c 128,-1,7
 668 1170 668 1170 704 1139 c 128,-1,8
 740 1108 740 1108 759.5 1063.5 c 128,-1,9
 779 1019 779 1019 779 965 c 0,10,11
 779 912 779 912 764.5 874 c 128,-1,12
 750 836 750 836 728.5 807.5 c 128,-1,13
 707 779 707 779 681 758 c 128,-1,14
 655 737 655 737 631.5 718.5 c 128,-1,15
 608 700 608 700 591.5 682 c 128,-1,16
 575 664 575 664 571 642 c 2,17,-1
 554 542 l 1,18,-1
 435 542 l 1,19,-1
 422 655 l 2,20,21
 418 688 418 688 431 712.5 c 128,-1,22
 444 737 444 737 465.5 757.5 c 128,-1,23
 487 778 487 778 513.5 797 c 128,-1,24
 540 816 540 816 562.5 838.5 c 128,-1,25
 585 861 585 861 600.5 888.5 c 128,-1,26
 616 916 616 916 616 955 c 0,27,28
 616 1003 616 1003 581.5 1031.5 c 128,-1,29
 547 1060 547 1060 493 1060 c 0,30,31
 454 1060 454 1060 427 1051.5 c 128,-1,32
 400 1043 400 1043 380.5 1032.5 c 128,-1,33
 361 1022 361 1022 348 1013.5 c 128,-1,34
 335 1005 335 1005 324 1005 c 0,35,36
 299 1005 299 1005 287 1026 c 2,37,-1
 241 1101 l 1,0,1
382 283 m 0,38,39
 382 305 382 305 390 325 c 128,-1,40
 398 345 398 345 412.5 359.5 c 128,-1,41
 427 374 427 374 446.5 382.5 c 128,-1,42
 466 391 466 391 489 391 c 0,43,44
 511 391 511 391 530.5 382.5 c 128,-1,45
 550 374 550 374 564 359.5 c 128,-1,46
 578 345 578 345 586.5 325 c 128,-1,47
 595 305 595 305 595 283 c 0,48,49
 595 260 595 260 586.5 240.5 c 128,-1,50
 578 221 578 221 564 207 c 128,-1,51
 550 193 550 193 530.5 184.5 c 128,-1,52
 511 176 511 176 489 176 c 0,53,54
 466 176 466 176 446.5 184.5 c 128,-1,55
 427 193 427 193 412.5 207 c 128,-1,56
 398 221 398 221 390 240.5 c 128,-1,57
 382 260 382 260 382 283 c 0,38,39
43 1383 m 1,58,-1
 985 1383 l 1,59,-1
 985 0 l 1,60,-1
 43 0 l 1,61,-1
 43 1383 l 1,58,-1
93 53 m 1,62,-1
 930 53 l 1,63,-1
 930 1330 l 1,64,-1
 93 1330 l 1,65,-1
 93 53 l 1,62,-1
EndSplineSet
Validated: 1
EndChar

StartChar: glyph1
Encoding: 0 -1 1
AltUni2: 000000.ffffffff.0
Width: 0
Flags: MW
LayerCount: 2
Fore
SplineSet
-17 -330 m 0,0,1
 -17 -323 -17 -323 -12 -318 c 128,-1,2
 -7 -313 -7 -313 0 -313 c 0,3,4
 8 -313 8 -313 13 -318 c 128,-1,5
 18 -323 18 -323 18 -330 c 0,6,7
 18 -338 18 -338 13 -343 c 128,-1,8
 8 -348 8 -348 0 -348 c 0,9,10
 -7 -348 -7 -348 -12 -343 c 128,-1,11
 -17 -338 -17 -338 -17 -330 c 0,0,1
EndSplineSet
Validated: 1
EndChar

StartChar: A
Encoding: 65 65 3
Width: 1101
GlyphClass: 2
Flags: MW
AnchorPoint: "Ancre-5" 1185 1414 basechar 0
AnchorPoint: "Ancre-3" 1185 -510 basechar 0
AnchorPoint: "Ancre-2" 1185 1515 basechar 0
AnchorPoint: "Ancre-1" 593 -3 basechar 0
AnchorPoint: "Ancre-0" 567 1414 basechar 0
LayerCount: 2
Fore
SplineSet
1095 0 m 1,0,-1
 964 0 l 2,1,2
 942 0 942 0 930 12 c 128,-1,3
 918 24 918 24 913 42 c 2,4,-1
 847 358 l 1,5,-1
 343 358 l 1,6,-1
 201 43 l 2,7,8
 193 26 193 26 176.5 13 c 128,-1,9
 160 0 160 0 138 0 c 2,10,-1
 7 0 l 1,11,-1
 627 1314 l 1,12,-1
 799 1314 l 1,13,-1
 1095 0 l 1,0,-1
402 488 m 1,14,-1
 820 488 l 1,15,-1
 712 1017 l 2,16,17
 706 1041 706 1041 700.5 1073 c 128,-1,18
 695 1105 695 1105 692 1142 c 1,19,20
 678 1104 678 1104 664.5 1072 c 128,-1,21
 651 1040 651 1040 640 1016 c 2,22,-1
 402 488 l 1,14,-1
EndSplineSet
Validated: 1
Position2: "sous-table 'cpsp' Chasses pour composition en capitales lookups0" dx=40 dy=0 dh=80 dv=0
Substitution2: "sous-table 'sups' Exposant lookups25" A.superior
Substitution2: "sous-table 'c2sc' Capitales vers petites capitales lookups24" a.smcp
EndChar

StartChar: Aogonek
Encoding: 260 260 4
Width: 1101
GlyphClass: 2
Flags: MW
AnchorPoint: "Ancre-5" 1185 1414 basechar 0
AnchorPoint: "Ancre-2" 1185 1515 basechar 0
AnchorPoint: "Ancre-1" 593 -3 basechar 0
AnchorPoint: "Ancre-0" 567 1414 basechar 0
AnchorPoint: "Ancre-3" 1185 -510 basechar 0
LayerCount: 2
Fore
SplineSet
1156 -280 m 5,0,1
 1088 -330 1088 -330 1007 -330 c 4,2,3
 1005 -330 1005 -330 1004 -330 c 4,4,5
 918 -329 918 -329 880 -296 c 4,6,7
 840 -261 840 -261 840 -220 c 4,8,9
 840 -219 840 -219 840 -218 c 4,10,11
 842 -88 842 -88 987 -0 c 5,12,-1
 964 0 l 6,13,14
 942 0 942 0 930 12 c 4,15,16
 916 26 916 26 913 42 c 6,17,-1
 847 358 l 5,18,-1
 343 358 l 5,19,-1
 201 43 l 6,20,21
 194 26 194 26 176 13 c 4,22,23
 160 0 160 0 138 0 c 6,24,-1
 7 0 l 5,25,-1
 627 1314 l 5,26,-1
 799 1314 l 5,27,-1
 1095 0 l 5,28,29
 1014 -45 1014 -45 984 -108 c 4,30,31
 971 -135 971 -135 972 -161 c 4,32,33
 973 -192 973 -192 991 -209 c 4,34,35
 1012 -229 1012 -229 1035 -228 c 4,36,37
 1063 -227 1063 -227 1074 -224 c 4,38,39
 1089 -220 1089 -220 1097 -216 c 4,40,41
 1107 -211 1107 -211 1112 -208 c 4,42,43
 1116 -206 1116 -206 1121 -205 c 4,44,45
 1135 -203 1135 -203 1138 -217 c 6,46,-1
 1156 -280 l 5,0,1
402 488 m 5,47,-1
 820 488 l 5,48,-1
 712 1017 l 6,49,50
 706 1041 706 1041 700.5 1073 c 132,-1,51
 695 1105 695 1105 692 1142 c 5,52,53
 678 1104 678 1104 664.5 1072 c 132,-1,54
 651 1040 651 1040 640 1016 c 6,55,-1
 402 488 l 5,47,-1
EndSplineSet
Validated: 1
LCarets2: 1 0
Substitution2: "sous-table 'c2sc' Capitales vers petites capitales lookups24" aogonek.smcp
Position2: "sous-table 'cpsp' Chasses pour composition en capitales lookups0" dx=40 dy=0 dh=80 dv=0
Ligature2: "sous-table 'ccmp' Composition et d+AOkA-composition de glyphe (CJK) lookups10" A uni0328
EndChar

StartChar: AE
Encoding: 198 198 5
Width: 1352
GlyphClass: 2
Flags: MW
AnchorPoint: "Ancre-0" 999 1414 basechar 0
AnchorPoint: "Ancre-1" 892 89 basechar 0
AnchorPoint: "Ancre-2" 1563 1515 basechar 0
AnchorPoint: "Ancre-3" 1563 -510 basechar 0
AnchorPoint: "Ancre-5" 1563 1414 basechar 0
LayerCount: 2
Fore
SplineSet
839 1314 m 1,0,-1
 1592 1314 l 1,1,-1
 1557 1166 l 1,2,-1
 1025 1166 l 1,3,-1
 966 735 l 1,4,-1
 1359 735 l 1,5,-1
 1325 592 l 1,6,-1
 945 592 l 1,7,-1
 883 148 l 1,8,-1
 1316 148 l 1,9,-1
 1281 0 l 1,10,-1
 716 0 l 1,11,-1
 764 358 l 1,12,-1
 371 358 l 1,13,-1
 172 42 l 2,14,15
 159 23 159 23 141 11.5 c 128,-1,16
 123 0 123 0 102 0 c 2,17,-1
 -17 0 l 1,18,-1
 839 1314 l 1,0,-1
453 488 m 1,19,-1
 782 488 l 1,20,-1
 877 1173 l 1,21,22
 858 1136 858 1136 839.5 1104.5 c 128,-1,23
 821 1073 821 1073 803 1045 c 2,24,-1
 453 488 l 1,19,-1
EndSplineSet
Validated: 1
Substitution2: "sous-table 'c2sc' Capitales vers petites capitales lookups24" ae.smcp
Position2: "sous-table 'cpsp' Chasses pour composition en capitales lookups0" dx=40 dy=0 dh=80 dv=0
EndChar

StartChar: B
Encoding: 66 66 6
Width: 1031
GlyphClass: 2
Flags: MW
AnchorPoint: "Ancre-5" 1114 1414 basechar 0
AnchorPoint: "Ancre-3" 1114 -510 basechar 0
AnchorPoint: "Ancre-2" 1114 1515 basechar 0
AnchorPoint: "Ancre-1" 513 10 basechar 0
AnchorPoint: "Ancre-0" 471 1414 basechar 0
LayerCount: 2
Fore
SplineSet
131 0 m 5,0,-1
 292 1314 l 5,1,-1
 665 1314 l 6,2,3
 773 1314 773 1314 848 1290.5 c 132,-1,4
 923 1267 923 1267 967 1222 c 4,5,6
 1008 1181 1008 1181 1026 1114 c 4,7,8
 1036 1077 1036 1077 1036 1031 c 4,9,10
 1036 1002 1036 1002 1032 971 c 4,11,12
 1026 922 1026 922 1007 878 c 4,13,14
 988 833 988 833 956.5 795 c 132,-1,15
 925 757 925 757 880.5 726 c 132,-1,16
 836 695 836 695 778 676 c 5,17,18
 902 650 902 650 957 574 c 4,19,20
 1000 515 1000 515 1000 426 c 4,21,22
 1000 402 1000 402 997 375 c 4,23,24
 987 291 987 291 951.5 222 c 132,-1,25
 916 153 916 153 858 103.5 c 132,-1,26
 800 54 800 54 721 27 c 132,-1,27
 642 0 642 0 544 0 c 6,28,-1
 131 0 l 5,0,-1
374 598 m 5,29,-1
 318 144 l 5,30,-1
 559 144 l 6,31,32
 623 144 623 144 671 161.5 c 132,-1,33
 719 179 719 179 752.5 210 c 132,-1,34
 786 241 786 241 804.5 284.5 c 132,-1,35
 823 328 823 328 830 379 c 4,36,37
 832 398 832 398 832 415 c 4,38,39
 832 491 832 491 790 539 c 4,40,41
 738 598 738 598 615 598 c 6,42,-1
 374 598 l 5,29,-1
389 726 m 5,43,-1
 587 726 l 6,44,45
 649 726 649 726 697.5 742.5 c 132,-1,46
 746 759 746 759 780 788 c 132,-1,47
 814 817 814 817 834.5 858 c 132,-1,48
 855 899 855 899 861 949 c 4,49,50
 864 974 864 974 864 995 c 4,51,52
 864 1076 864 1076 824 1118 c 4,53,54
 773 1171 773 1171 652 1171 c 4,55,56
 650 1171 650 1171 648 1171 c 6,57,-1
 444 1171 l 5,58,-1
 389 726 l 5,43,-1
EndSplineSet
Validated: 1
Position2: "sous-table 'cpsp' Chasses pour composition en capitales lookups0" dx=40 dy=0 dh=80 dv=0
Substitution2: "sous-table 'sups' Exposant lookups25" B.superior
Substitution2: "sous-table 'c2sc' Capitales vers petites capitales lookups24" b.smcp
EndChar

StartChar: C
Encoding: 67 67 7
Width: 1013
GlyphClass: 2
Flags: MW
AnchorPoint: "Ancre-5" 1092 1414 basechar 0
AnchorPoint: "Ancre-3" 1092 -510 basechar 0
AnchorPoint: "Ancre-2" 1092 1515 basechar 0
AnchorPoint: "Ancre-1" 648 -3 basechar 0
AnchorPoint: "Ancre-0" 592 1414 basechar 0
LayerCount: 2
Fore
SplineSet
920 274 m 0,0,1
 933 274 933 274 942 262 c 2,2,-1
 1000 184 l 1,3,4
 922 90 922 90 819 38 c 128,-1,5
 716 -14 716 -14 581 -14 c 0,6,7
 462 -14 462 -14 372 35 c 128,-1,8
 282 84 282 84 224 172 c 128,-1,9
 166 260 166 260 144 384 c 0,10,11
 133 450 133 450 133 523 c 0,12,13
 133 587 133 587 142 657 c 256,14,15
 160 806 160 806 214 929.5 c 128,-1,16
 268 1053 268 1053 350 1142 c 128,-1,17
 432 1231 432 1231 536.5 1280 c 128,-1,18
 641 1329 641 1329 760 1329 c 0,19,20
 878 1329 878 1329 962 1284 c 128,-1,21
 1046 1239 1046 1239 1104 1162 c 1,22,-1
 1038 1078 l 2,23,24
 1031 1069 1031 1069 1022 1063 c 128,-1,25
 1013 1057 1013 1057 1000 1057 c 0,26,27
 984 1057 984 1057 967 1075 c 128,-1,28
 950 1093 950 1093 922 1114.5 c 128,-1,29
 894 1136 894 1136 851 1154 c 128,-1,30
 808 1172 808 1172 740 1172 c 0,31,32
 660 1172 660 1172 589 1137 c 128,-1,33
 518 1102 518 1102 462 1035.5 c 128,-1,34
 406 969 406 969 367.5 873.5 c 128,-1,35
 329 778 329 778 315 657 c 0,36,37
 308 598 308 598 308 545 c 0,38,39
 308 489 308 489 316 439 c 0,40,41
 332 343 332 343 372 277 c 128,-1,42
 412 211 412 211 473.5 176 c 128,-1,43
 535 141 535 141 610 141 c 0,44,45
 656 141 656 141 694 148 c 128,-1,46
 732 155 732 155 765 169.5 c 128,-1,47
 798 184 798 184 828 206.5 c 128,-1,48
 858 229 858 229 889 260 c 0,49,50
 906 274 906 274 920 274 c 0,0,1
EndSplineSet
Validated: 1
Position2: "sous-table 'cpsp' Chasses pour composition en capitales lookups0" dx=40 dy=0 dh=80 dv=0
Substitution2: "sous-table 'sups' Exposant lookups25" C.superior
Substitution2: "sous-table 'c2sc' Capitales vers petites capitales lookups24" c.smcp
EndChar

StartChar: Ccedilla
Encoding: 199 199 8
Width: 1013
GlyphClass: 2
Flags: MW
AnchorPoint: "Ancre-0" 592 1414 basechar 0
AnchorPoint: "Ancre-1" 648 -300 basechar 0
AnchorPoint: "Ancre-2" 1092 1515 basechar 0
AnchorPoint: "Ancre-3" 1092 -510 basechar 0
AnchorPoint: "Ancre-5" 1092 1414 basechar 0
LayerCount: 2
Fore
SplineSet
439 -243 m 4,0,1
 445 -243 445 -243 451.5 -246.5 c 132,-1,2
 458 -250 458 -250 468 -254 c 132,-1,3
 478 -258 478 -258 491 -261.5 c 132,-1,4
 504 -265 504 -265 523 -265 c 4,5,6
 560 -265 560 -265 581 -249 c 132,-1,7
 602 -233 602 -233 606 -208 c 4,8,9
 607 -204 607 -204 607 -199 c 4,10,11
 606 -168 606 -168 574 -156 c 4,12,13
 538 -142 538 -142 471 -132 c 5,14,-1
 523 -10 l 5,15,16
 418 2 418 2 338.5 55 c 132,-1,17
 259 108 259 108 210 196 c 4,18,19
 160 284 160 284 142 400 c 4,20,21
 133 459 133 459 133 525 c 4,22,23
 133 588 133 588 142 657 c 4,24,25
 160 806 160 806 214 929.5 c 132,-1,26
 268 1053 268 1053 350 1142 c 132,-1,27
 432 1231 432 1231 536.5 1280 c 132,-1,28
 641 1329 641 1329 760 1329 c 4,29,30
 878 1329 878 1329 962 1284 c 132,-1,31
 1046 1239 1046 1239 1104 1162 c 5,32,-1
 1038 1078 l 6,33,34
 1031 1069 1031 1069 1022 1063 c 132,-1,35
 1013 1057 1013 1057 1000 1057 c 4,36,37
 984 1057 984 1057 967 1075 c 132,-1,38
 950 1093 950 1093 922 1114.5 c 132,-1,39
 894 1136 894 1136 851 1154 c 132,-1,40
 808 1172 808 1172 740 1172 c 4,41,42
 660 1172 660 1172 589 1137 c 132,-1,43
 518 1102 518 1102 462 1035.5 c 132,-1,44
 406 969 406 969 367.5 873.5 c 132,-1,45
 329 778 329 778 315 657 c 4,46,47
 308 598 308 598 308 545 c 4,48,49
 308 489 308 489 316 439 c 4,50,51
 332 343 332 343 372 277 c 132,-1,52
 412 211 412 211 473.5 176 c 132,-1,53
 535 141 535 141 610 141 c 4,54,55
 656 141 656 141 694 148 c 132,-1,56
 732 155 732 155 765 169.5 c 132,-1,57
 798 184 798 184 828 206.5 c 132,-1,58
 858 229 858 229 889 260 c 4,59,60
 906 274 906 274 920 274 c 4,61,62
 933 274 933 274 942 262 c 6,63,-1
 1000 184 l 5,64,65
 927 96 927 96 833 45 c 132,-1,66
 739 -6 739 -6 616 -13 c 5,67,-1
 593 -72 l 5,68,69
 674 -90 674 -90 707 -124 c 4,70,71
 735 -153 735 -153 735 -194 c 4,72,73
 735 -202 735 -202 734 -210 c 4,74,75
 730 -241 730 -241 712.5 -266 c 132,-1,76
 695 -291 695 -291 667.5 -308 c 132,-1,77
 640 -325 640 -325 602.5 -334.5 c 132,-1,78
 565 -344 565 -344 522 -344 c 4,79,80
 486 -344 486 -344 453.5 -336 c 132,-1,81
 421 -328 421 -328 394 -314 c 5,82,-1
 417 -260 l 6,83,84
 424 -243 424 -243 439 -243 c 4,0,1
EndSplineSet
Validated: 1
Substitution2: "sous-table 'c2sc' Capitales vers petites capitales lookups24" ccedilla.smcp
LCarets2: 1 0
Position2: "sous-table 'cpsp' Chasses pour composition en capitales lookups0" dx=40 dy=0 dh=80 dv=0
Ligature2: "sous-table 'ccmp' Composition et d+AOkA-composition de glyphe (CJK) lookups10" C uni0327
EndChar

StartChar: D
Encoding: 68 68 9
Width: 1167
GlyphClass: 2
Flags: MW
AnchorPoint: "Ancre-5" 1260 1414 basechar 0
AnchorPoint: "Ancre-3" 1260 -510 basechar 0
AnchorPoint: "Ancre-2" 1260 1515 basechar 0
AnchorPoint: "Ancre-1" 578 10 basechar 0
AnchorPoint: "Ancre-0" 519 1414 basechar 0
LayerCount: 2
Fore
SplineSet
1186 657 m 0,0,1
 1168 509 1168 509 1113 388 c 128,-1,2
 1058 267 1058 267 974 180.5 c 128,-1,3
 890 94 890 94 781.5 47 c 128,-1,4
 673 0 673 0 549 0 c 2,5,-1
 126 0 l 1,6,-1
 288 1314 l 1,7,-1
 710 1314 l 2,8,9
 835 1314 835 1314 932 1266.5 c 128,-1,10
 1029 1219 1029 1219 1091 1133 c 0,11,12
 1152 1048 1152 1048 1178 926 c 0,13,14
 1193 855 1193 855 1193 774 c 0,15,16
 1193 718 1193 718 1186 657 c 0,0,1
1013 657 m 256,17,18
 1020 716 1020 716 1020 769 c 0,19,20
 1020 824 1020 824 1012 872 c 0,21,22
 996 966 996 966 954 1032 c 128,-1,23
 912 1098 912 1098 845.5 1132.5 c 128,-1,24
 779 1167 779 1167 692 1167 c 2,25,-1
 440 1167 l 1,26,-1
 315 147 l 1,27,-1
 567 147 l 2,28,29
 654 147 654 147 729 181.5 c 128,-1,30
 804 216 804 216 862.5 281.5 c 128,-1,31
 921 347 921 347 959.5 442 c 128,-1,32
 998 537 998 537 1013 657 c 256,17,18
EndSplineSet
Validated: 1
Position2: "sous-table 'cpsp' Chasses pour composition en capitales lookups0" dx=40 dy=0 dh=80 dv=0
Substitution2: "sous-table 'c2sc' Capitales vers petites capitales lookups24" d.smcp
Substitution2: "sous-table 'sups' Exposant lookups25" D.superior
EndChar

StartChar: E
Encoding: 69 69 11
Width: 925
GlyphClass: 2
Flags: MW
AnchorPoint: "Ancre-5" 1000 1414 basechar 0
AnchorPoint: "Ancre-3" 1000 -510 basechar 0
AnchorPoint: "Ancre-2" 1000 1515 basechar 0
AnchorPoint: "Ancre-1" 546 10 basechar 0
AnchorPoint: "Ancre-0" 509 1414 basechar 0
LayerCount: 2
Fore
SplineSet
1008 1314 m 1,0,-1
 989 1166 l 1,1,-1
 445 1166 l 1,2,-1
 392 735 l 1,3,-1
 830 735 l 1,4,-1
 813 592 l 1,5,-1
 375 592 l 1,6,-1
 320 148 l 1,7,-1
 865 148 l 1,8,-1
 846 0 l 1,9,-1
 132 0 l 1,10,-1
 293 1314 l 1,11,-1
 1008 1314 l 1,0,-1
EndSplineSet
Validated: 1
Position2: "sous-table 'cpsp' Chasses pour composition en capitales lookups0" dx=40 dy=0 dh=80 dv=0
Substitution2: "sous-table 'sups' Exposant lookups25" E.superior
Substitution2: "sous-table 'c2sc' Capitales vers petites capitales lookups24" e.smcp
EndChar

StartChar: Eogonek
Encoding: 280 280 12
Width: 925
GlyphClass: 2
Flags: MW
AnchorPoint: "Ancre-5" 1000 1414 basechar 0
AnchorPoint: "Ancre-3" 1000 -510 basechar 0
AnchorPoint: "Ancre-2" 1000 1515 basechar 0
AnchorPoint: "Ancre-1" 546 10 basechar 0
AnchorPoint: "Ancre-0" 509 1414 basechar 0
LayerCount: 2
Fore
SplineSet
908 -280 m 5,0,1
 840 -330 840 -330 756 -330 c 132,-1,2
 672 -330 672 -330 632 -296 c 132,-1,3
 592 -262 592 -262 592 -218 c 4,4,5
 592 -89 592 -89 739 0 c 5,6,-1
 132 0 l 5,7,-1
 293 1314 l 5,8,-1
 1008 1314 l 5,9,-1
 989 1166 l 5,10,-1
 445 1166 l 5,11,-1
 392 735 l 5,12,-1
 830 735 l 5,13,-1
 813 592 l 5,14,-1
 375 592 l 5,15,-1
 320 148 l 5,16,-1
 865 148 l 5,17,-1
 846 0 l 13,18,-1
 736 -108 l 5,19,20
 724 -132 724 -132 724 -161 c 4,21,22
 724 -191 724 -191 743 -209 c 4,23,24
 761 -228 761 -228 787 -228 c 4,25,26
 812 -228 812 -228 826 -224 c 4,27,28
 840 -221 840 -221 849 -216 c 4,29,30
 858 -212 858 -212 864 -208 c 4,31,32
 869 -205 869 -205 873 -205 c 4,33,34
 887 -205 887 -205 890 -217 c 6,35,-1
 908 -280 l 5,0,1
EndSplineSet
Validated: 1
LCarets2: 1 0
Substitution2: "sous-table 'c2sc' Capitales vers petites capitales lookups24" eogonek.smcp
Position2: "sous-table 'cpsp' Chasses pour composition en capitales lookups0" dx=40 dy=0 dh=80 dv=0
Ligature2: "sous-table 'ccmp' Composition et d+AOkA-composition de glyphe (CJK) lookups10" E uni0328
EndChar

StartChar: F
Encoding: 70 70 13
Width: 871
GlyphClass: 2
Flags: MW
AnchorPoint: "Ancre-5" 941 1414 basechar 0
AnchorPoint: "Ancre-3" 941 -510 basechar 0
AnchorPoint: "Ancre-2" 941 1515 basechar 0
AnchorPoint: "Ancre-1" 548 10 basechar 0
AnchorPoint: "Ancre-0" 509 1414 basechar 0
LayerCount: 2
Fore
SplineSet
979 1314 m 1,0,-1
 961 1166 l 1,1,-1
 439 1166 l 1,2,-1
 383 711 l 1,3,-1
 827 711 l 1,4,-1
 809 563 l 1,5,-1
 365 563 l 1,6,-1
 296 0 l 1,7,-1
 126 0 l 1,8,-1
 287 1314 l 1,9,-1
 979 1314 l 1,0,-1
EndSplineSet
Validated: 1
Position2: "sous-table 'cpsp' Chasses pour composition en capitales lookups0" dx=40 dy=0 dh=80 dv=0
Substitution2: "sous-table 'c2sc' Capitales vers petites capitales lookups24" f.smcp
Substitution2: "sous-table 'sups' Exposant lookups25" F.superior
EndChar

StartChar: G
Encoding: 71 71 14
Width: 1197
GlyphClass: 2
Flags: MW
AnchorPoint: "Ancre-5" 1292 1414 basechar 0
AnchorPoint: "Ancre-3" 1292 -510 basechar 0
AnchorPoint: "Ancre-2" 1292 1515 basechar 0
AnchorPoint: "Ancre-1" 736 -3 basechar 0
AnchorPoint: "Ancre-0" 610 1414 basechar 0
LayerCount: 2
Fore
SplineSet
1178 633 m 1,0,-1
 1116 127 l 1,1,2
 1018 56 1018 56 913 21 c 128,-1,3
 808 -14 808 -14 690 -14 c 0,4,5
 548 -14 548 -14 439 35 c 128,-1,6
 330 84 330 84 260 172 c 128,-1,7
 190 260 190 260 161 384 c 0,8,9
 143 459 143 459 143 543 c 0,10,11
 143 598 143 598 151 657 c 0,12,13
 169 807 169 807 226.5 930.5 c 128,-1,14
 284 1054 284 1054 373.5 1142.5 c 128,-1,15
 463 1231 463 1231 580.5 1280 c 128,-1,16
 698 1329 698 1329 837 1329 c 0,17,18
 908 1329 908 1329 966.5 1317.5 c 128,-1,19
 1025 1306 1025 1306 1073.5 1284.5 c 128,-1,20
 1122 1263 1122 1263 1161.5 1232 c 128,-1,21
 1201 1201 1201 1201 1233 1163 c 1,22,-1
 1176 1081 l 2,23,24
 1161 1061 1161 1061 1143 1056 c 0,25,26
 1138 1055 1138 1055 1133 1055 c 0,27,28
 1119 1055 1119 1055 1104 1065 c 0,29,30
 1084 1078 1084 1078 1060.5 1096.5 c 128,-1,31
 1037 1115 1037 1115 1004 1131.5 c 128,-1,32
 971 1148 971 1148 924 1160 c 128,-1,33
 877 1172 877 1172 811 1172 c 0,34,35
 714 1172 714 1172 631 1136 c 128,-1,36
 548 1100 548 1100 484.5 1033 c 128,-1,37
 421 966 421 966 379.5 870.5 c 128,-1,38
 338 775 338 775 324 657 c 0,39,40
 317 603 317 603 317 553 c 0,41,42
 317 490 317 490 328 436 c 0,43,44
 347 338 347 338 397 271 c 128,-1,45
 447 204 447 204 524.5 168.5 c 128,-1,46
 602 133 602 133 703 133 c 0,47,48
 781 133 781 133 845 152.5 c 128,-1,49
 909 172 909 172 972 207 c 1,50,-1
 1008 495 l 1,51,-1
 832 495 l 2,52,53
 815 495 815 495 806 505 c 0,54,55
 799 513 799 513 799 525 c 0,56,57
 799 528 799 528 799 530 c 2,58,-1
 812 633 l 1,59,-1
 1178 633 l 1,0,-1
EndSplineSet
Validated: 1
Position2: "sous-table 'cpsp' Chasses pour composition en capitales lookups0" dx=40 dy=0 dh=80 dv=0
Substitution2: "sous-table 'sups' Exposant lookups25" G.superior
Substitution2: "sous-table 'c2sc' Capitales vers petites capitales lookups24" g.smcp
EndChar

StartChar: H
Encoding: 72 72 15
Width: 1181
GlyphClass: 2
Flags: MW
AnchorPoint: "Ancre-5" 1276 1414 basechar 0
AnchorPoint: "Ancre-3" 1276 -510 basechar 0
AnchorPoint: "Ancre-2" 1276 1515 basechar 0
AnchorPoint: "Ancre-1" 638 10 basechar 0
AnchorPoint: "Ancre-0" 571 1414 basechar 0
LayerCount: 2
Fore
SplineSet
1054 0 m 1,0,-1
 883 0 l 1,1,-1
 957 596 l 1,2,-1
 371 596 l 1,3,-1
 298 0 l 1,4,-1
 127 0 l 1,5,-1
 289 1314 l 1,6,-1
 459 1314 l 1,7,-1
 387 729 l 1,8,-1
 973 729 l 1,9,-1
 1045 1314 l 1,10,-1
 1215 1314 l 1,11,-1
 1054 0 l 1,0,-1
EndSplineSet
Validated: 1
Position2: "sous-table 'cpsp' Chasses pour composition en capitales lookups0" dx=40 dy=0 dh=80 dv=0
Substitution2: "sous-table 'sups' Exposant lookups25" H.superior
Substitution2: "sous-table 'c2sc' Capitales vers petites capitales lookups24" h.smcp
EndChar

StartChar: Hbar
Encoding: 294 294 16
Width: 1248
GlyphClass: 2
Flags: MW
AnchorPoint: "Ancre-0" 571 1414 basechar 0
AnchorPoint: "Ancre-1" 672 10 basechar 0
AnchorPoint: "Ancre-2" 1345 1515 basechar 0
AnchorPoint: "Ancre-3" 1345 -510 basechar 0
AnchorPoint: "Ancre-5" 1345 1414 basechar 0
LayerCount: 2
Fore
SplineSet
1218 1060 m 1,0,-1
 1348 1060 l 1,1,-1
 1334 951 l 1,2,-1
 1204 951 l 1,3,-1
 1087 0 l 1,4,-1
 917 0 l 1,5,-1
 990 596 l 1,6,-1
 405 596 l 1,7,-1
 331 0 l 1,8,-1
 161 0 l 1,9,-1
 278 951 l 1,10,-1
 148 951 l 1,11,-1
 161 1060 l 1,12,-1
 291 1060 l 1,13,-1
 322 1314 l 1,14,-1
 493 1314 l 1,15,-1
 461 1060 l 1,16,-1
 1047 1060 l 1,17,-1
 1079 1314 l 1,18,-1
 1249 1314 l 1,19,-1
 1218 1060 l 1,0,-1
421 729 m 1,20,-1
 1007 729 l 1,21,-1
 1034 951 l 1,22,-1
 448 951 l 1,23,-1
 421 729 l 1,20,-1
EndSplineSet
Validated: 1
Substitution2: "sous-table 'c2sc' Capitales vers petites capitales lookups24" hbar.smcp
Position2: "sous-table 'cpsp' Chasses pour composition en capitales lookups0" dx=40 dy=0 dh=80 dv=0
EndChar

StartChar: I
Encoding: 73 73 17
Width: 473
GlyphClass: 2
Flags: MW
AnchorPoint: "Ancre-5" 516 1414 basechar 0
AnchorPoint: "Ancre-3" 516 -510 basechar 0
AnchorPoint: "Ancre-2" 516 1515 basechar 0
AnchorPoint: "Ancre-1" 258 10 basechar 0
AnchorPoint: "Ancre-0" 231 1414 basechar 0
LayerCount: 2
Fore
SplineSet
321 0 m 1,0,-1
 152 0 l 1,1,-1
 313 1314 l 1,2,-1
 483 1314 l 1,3,-1
 321 0 l 1,0,-1
EndSplineSet
Validated: 1
Position2: "sous-table 'cpsp' Chasses pour composition en capitales lookups0" dx=40 dy=0 dh=80 dv=0
Substitution2: "sous-table 'sups' Exposant lookups25" I.superior
Substitution2: "sous-table 'c2sc' Capitales vers petites capitales lookups24" i.smcp
EndChar

StartChar: Iogonek
Encoding: 302 302 18
Width: 473
GlyphClass: 2
Flags: MW
AnchorPoint: "Ancre-5" 516 1414 basechar 0
AnchorPoint: "Ancre-3" 516 -510 basechar 0
AnchorPoint: "Ancre-2" 516 1515 basechar 0
AnchorPoint: "Ancre-1" 258 -300 basechar 0
AnchorPoint: "Ancre-0" 231 1414 basechar 0
LayerCount: 2
Fore
SplineSet
353 -280 m 5,0,1
 285 -330 285 -330 201 -330 c 132,-1,2
 117 -330 117 -330 77 -296 c 132,-1,3
 37 -262 37 -262 37 -218 c 4,4,5
 37 -89 37 -89 184 -0 c 5,6,-1
 152 0 l 5,7,-1
 313 1314 l 5,8,-1
 483 1314 l 5,9,-1
 321 0 l 5,10,-1
 290 0 l 5,11,12
 211 -44 211 -44 181 -108 c 4,13,14
 169 -132 169 -132 169 -161.5 c 132,-1,15
 169 -191 169 -191 187.5 -209.5 c 132,-1,16
 206 -228 206 -228 231.5 -228 c 132,-1,17
 257 -228 257 -228 271 -224.5 c 132,-1,18
 285 -221 285 -221 294 -216.5 c 132,-1,19
 303 -212 303 -212 308.5 -208.5 c 132,-1,20
 314 -205 314 -205 318 -205 c 4,21,22
 332 -205 332 -205 335 -217 c 6,23,-1
 353 -280 l 5,0,1
EndSplineSet
Validated: 1
Substitution2: "sous-table 'c2sc' Capitales vers petites capitales lookups24" iogonek.smcp
LCarets2: 1 0
Position2: "sous-table 'cpsp' Chasses pour composition en capitales lookups0" dx=40 dy=0 dh=80 dv=0
Ligature2: "sous-table 'ccmp' Composition et d+AOkA-composition de glyphe (CJK) lookups10" I uni0328
EndChar

StartChar: J
Encoding: 74 74 19
Width: 604
GlyphClass: 2
Flags: MW
AnchorPoint: "Ancre-5" 653 1414 basechar 0
AnchorPoint: "Ancre-3" 653 -510 basechar 0
AnchorPoint: "Ancre-2" 653 1515 basechar 0
AnchorPoint: "Ancre-1" 191 -3 basechar 0
AnchorPoint: "Ancre-0" 395 1414 basechar 0
LayerCount: 2
Fore
SplineSet
556 455 m 2,0,1
 542 345 542 345 511 258 c 128,-1,2
 480 171 480 171 431.5 110.5 c 128,-1,3
 383 50 383 50 318.5 18 c 128,-1,4
 254 -14 254 -14 175 -14 c 0,5,6
 139 -14 139 -14 104.5 -8.5 c 128,-1,7
 70 -3 70 -3 32 10 c 1,8,9
 37 38 37 38 43 65 c 128,-1,10
 49 92 49 92 55 118 c 0,11,12
 59 133 59 133 69 143 c 128,-1,13
 79 153 79 153 96 153 c 0,14,15
 108 153 108 153 126.5 145.5 c 128,-1,16
 145 138 145 138 176 138 c 0,17,18
 260 138 260 138 313 212 c 128,-1,19
 366 286 366 286 386 451 c 2,20,-1
 492 1314 l 1,21,-1
 661 1314 l 1,22,-1
 556 455 l 2,0,1
EndSplineSet
Validated: 1
Position2: "sous-table 'cpsp' Chasses pour composition en capitales lookups0" dx=40 dy=0 dh=80 dv=0
Substitution2: "sous-table 'sups' Exposant lookups25" J.superior
Substitution2: "sous-table 'c2sc' Capitales vers petites capitales lookups24" j.smcp
EndChar

StartChar: K
Encoding: 75 75 20
Width: 986
GlyphClass: 2
Flags: MW
AnchorPoint: "Ancre-5" 1064 1414 basechar 0
AnchorPoint: "Ancre-3" 1064 -510 basechar 0
AnchorPoint: "Ancre-2" 1064 1515 basechar 0
AnchorPoint: "Ancre-1" 530 89 basechar 0
AnchorPoint: "Ancre-0" 457 1414 basechar 0
LayerCount: 2
Fore
SplineSet
373 740 m 1,0,-1
 421 740 l 2,1,2
 448 740 448 740 467 749 c 128,-1,3
 486 758 486 758 501 778 c 2,4,-1
 877 1272 l 2,5,6
 897 1295 897 1295 916 1304.5 c 128,-1,7
 935 1314 935 1314 962 1314 c 2,8,-1
 1107 1314 l 1,9,-1
 666 750 l 2,10,11
 631 707 631 707 596 689 c 1,12,13
 637 673 637 673 666 624 c 2,14,-1
 973 0 l 1,15,-1
 824 0 l 2,16,17
 793 0 793 0 780 10.5 c 128,-1,18
 767 21 767 21 756 38 c 2,19,-1
 497 558 l 2,20,21
 485 581 485 581 468.5 590.5 c 128,-1,22
 452 600 452 600 418 600 c 2,23,-1
 356 600 l 1,24,-1
 282 0 l 1,25,-1
 113 0 l 1,26,-1
 274 1314 l 1,27,-1
 443 1314 l 1,28,-1
 373 740 l 1,0,-1
EndSplineSet
Validated: 1
Position2: "sous-table 'cpsp' Chasses pour composition en capitales lookups0" dx=40 dy=0 dh=80 dv=0
Substitution2: "sous-table 'sups' Exposant lookups25" K.superior
Substitution2: "sous-table 'c2sc' Capitales vers petites capitales lookups24" k.smcp
EndChar

StartChar: L
Encoding: 76 76 21
Width: 797
GlyphClass: 2
Flags: MW
AnchorPoint: "Ancre-5" 861 1414 basechar 0
AnchorPoint: "Ancre-3" 861 -510 basechar 0
AnchorPoint: "Ancre-2" 861 1515 basechar 0
AnchorPoint: "Ancre-1" 470 10 basechar 0
AnchorPoint: "Ancre-0" 201 1414 basechar 0
LayerCount: 2
Fore
SplineSet
314 153 m 1,0,-1
 785 153 l 1,1,-1
 766 0 l 1,2,-1
 126 0 l 1,3,-1
 287 1314 l 1,4,-1
 456 1314 l 1,5,-1
 314 153 l 1,0,-1
EndSplineSet
Validated: 1
Position2: "sous-table 'cpsp' Chasses pour composition en capitales lookups0" dx=40 dy=0 dh=80 dv=0
Substitution2: "sous-table 'sups' Exposant lookups25" L.superior
Substitution2: "sous-table 'c2sc' Capitales vers petites capitales lookups24" l.smcp
EndChar

StartChar: Lslash
Encoding: 321 321 22
Width: 880
GlyphClass: 2
Flags: MW
AnchorPoint: "Ancre-0" 238 1414 basechar 0
AnchorPoint: "Ancre-1" 488 10 basechar 0
AnchorPoint: "Ancre-2" 879 1515 basechar 0
AnchorPoint: "Ancre-3" 879 -510 basechar 0
AnchorPoint: "Ancre-5" 879 1414 basechar 0
LayerCount: 2
Fore
SplineSet
441 753 m 1,0,-1
 729 920 l 1,1,-1
 714 798 l 2,2,3
 710 769 710 769 686 756 c 2,4,-1
 422 600 l 1,5,-1
 367 153 l 1,6,-1
 838 153 l 1,7,-1
 820 0 l 1,8,-1
 179 0 l 1,9,-1
 241 507 l 1,10,-1
 81 419 l 1,11,-1
 97 545 l 2,12,13
 100 569 100 569 122 581 c 2,14,-1
 260 660 l 1,15,-1
 340 1314 l 1,16,-1
 509 1314 l 1,17,-1
 441 753 l 1,0,-1
EndSplineSet
Validated: 1
Substitution2: "sous-table 'c2sc' Capitales vers petites capitales lookups24" lslash.smcp
Position2: "sous-table 'cpsp' Chasses pour composition en capitales lookups0" dx=40 dy=0 dh=80 dv=0
EndChar

StartChar: M
Encoding: 77 77 24
Width: 1621
GlyphClass: 2
Flags: MW
AnchorPoint: "Ancre-5" 1751 1414 basechar 0
AnchorPoint: "Ancre-3" 1751 -510 basechar 0
AnchorPoint: "Ancre-2" 1751 1515 basechar 0
AnchorPoint: "Ancre-1" 875 10 basechar 0
AnchorPoint: "Ancre-0" 835 1414 basechar 0
LayerCount: 2
Fore
SplineSet
832 479 m 2,0,1
 841 457 841 457 848 432 c 0,2,3
 860 387 860 387 861 383 c 1,4,5
 874 409 874 409 887 433 c 0,6,7
 899 458 899 458 913 479 c 2,8,-1
 1443 1284 l 2,9,10
 1457 1305 1457 1305 1470.5 1309.5 c 128,-1,11
 1484 1314 1484 1314 1506 1314 c 2,12,-1
 1631 1314 l 1,13,-1
 1470 0 l 1,14,-1
 1320 0 l 1,15,-1
 1438 959 l 2,16,17
 1440 979 1440 979 1444.5 1003.5 c 128,-1,18
 1449 1028 1449 1028 1454 1053 c 1,19,-1
 917 229 l 2,20,21
 891 188 891 188 850 188 c 2,22,-1
 826 188 l 2,23,24
 787 188 787 188 770 229 c 2,25,-1
 424 1052 l 1,26,27
 423 1002 423 1002 419 959 c 2,28,-1
 301 0 l 1,29,-1
 152 0 l 1,30,-1
 313 1314 l 1,31,-1
 438 1314 l 2,32,33
 460 1314 460 1314 472 1310 c 0,34,35
 484 1305 484 1305 494 1283 c 2,36,-1
 832 479 l 2,0,1
EndSplineSet
Validated: 1
Position2: "sous-table 'cpsp' Chasses pour composition en capitales lookups0" dx=40 dy=0 dh=80 dv=0
Substitution2: "sous-table 'sups' Exposant lookups25" M.superior
Substitution2: "sous-table 'c2sc' Capitales vers petites capitales lookups24" m.smcp
EndChar

StartChar: N
Encoding: 78 78 25
Width: 1223
GlyphClass: 2
Flags: MW
AnchorPoint: "Ancre-5" 1322 1414 basechar 0
AnchorPoint: "Ancre-3" 1322 -510 basechar 0
AnchorPoint: "Ancre-2" 1322 1515 basechar 0
AnchorPoint: "Ancre-1" 661 10 basechar 0
AnchorPoint: "Ancre-0" 619 1414 basechar 0
LayerCount: 2
Fore
SplineSet
384 1314 m 2,0,1
 407 1314 407 1314 416 1309 c 0,2,3
 427 1303 427 1303 438 1283 c 2,4,-1
 982 300 l 1,5,6
 983 324 983 324 984.5 347.5 c 128,-1,7
 986 371 986 371 988 391 c 2,8,-1
 1101 1314 l 1,9,-1
 1250 1314 l 1,10,-1
 1089 0 l 1,11,-1
 1003 0 l 2,12,13
 983 0 983 0 971 7 c 0,14,15
 956 16 956 16 948 32 c 2,16,-1
 404 1012 l 1,17,18
 403 989 403 989 401.5 968 c 128,-1,19
 400 947 400 947 397 928 c 2,20,-1
 283 0 l 1,21,-1
 135 0 l 1,22,-1
 296 1314 l 1,23,-1
 384 1314 l 2,0,1
EndSplineSet
Validated: 1
Position2: "sous-table 'cpsp' Chasses pour composition en capitales lookups0" dx=40 dy=0 dh=80 dv=0
Substitution2: "sous-table 'sups' Exposant lookups25" N.superior
Substitution2: "sous-table 'c2sc' Capitales vers petites capitales lookups24" n.smcp
EndChar

StartChar: Eng
Encoding: 330 330 26
Width: 1191
GlyphClass: 2
Flags: MW
AnchorPoint: "Ancre-0" 619 1414 basechar 0
AnchorPoint: "Ancre-1" 626 10 basechar 0
AnchorPoint: "Ancre-2" 1287 1515 basechar 0
AnchorPoint: "Ancre-3" 1287 -510 basechar 0
AnchorPoint: "Ancre-5" 1287 1414 basechar 0
LayerCount: 2
Fore
SplineSet
1063 8 m 2,0,1
 1054 -67 1054 -67 1031.5 -129 c 128,-1,2
 1009 -191 1009 -191 971 -235.5 c 128,-1,3
 933 -280 933 -280 879.5 -304 c 128,-1,4
 826 -328 826 -328 755 -328 c 0,5,6
 716 -328 716 -328 685 -320 c 128,-1,7
 654 -312 654 -312 621 -295 c 1,8,-1
 647 -222 l 2,9,10
 654 -201 654 -201 664.5 -194.5 c 128,-1,11
 675 -188 675 -188 686 -188 c 0,12,13
 696 -188 696 -188 712 -195 c 128,-1,14
 728 -202 728 -202 757 -202 c 0,15,16
 821 -202 821 -202 860.5 -154.5 c 128,-1,17
 900 -107 900 -107 912 -10 c 2,18,-1
 918 37 l 1,19,-1
 399 1012 l 1,20,21
 398 989 398 989 396 968 c 128,-1,22
 394 947 394 947 392 928 c 2,23,-1
 278 0 l 1,24,-1
 129 0 l 1,25,-1
 291 1314 l 1,26,-1
 379 1314 l 2,27,28
 400 1314 400 1314 410.5 1308.5 c 128,-1,29
 421 1303 421 1303 433 1283 c 2,30,-1
 955 302 l 1,31,32
 956 325 956 325 957.5 348 c 128,-1,33
 959 371 959 371 961 391 c 2,34,-1
 1075 1314 l 1,35,-1
 1223 1314 l 1,36,-1
 1063 8 l 2,0,1
EndSplineSet
Validated: 1
Substitution2: "sous-table 'c2sc' Capitales vers petites capitales lookups24" eng.smcp
Substitution2: "sous-table 'ss03' Style 3 lookups33" Eng.ss03
Substitution2: "sous-table 'ss02' Style 2 lookups31" Eng.ss02
Substitution2: "sous-table 'ss01' Style 1 lookups29" Eng.ss01
Position2: "sous-table 'cpsp' Chasses pour composition en capitales lookups0" dx=40 dy=0 dh=80 dv=0
EndChar

StartChar: O
Encoding: 79 79 27
Width: 1258
GlyphClass: 2
Flags: MW
AnchorPoint: "Ancre-5" 1356 1414 basechar 0
AnchorPoint: "Ancre-3" 1356 -510 basechar 0
AnchorPoint: "Ancre-2" 1356 1515 basechar 0
AnchorPoint: "Ancre-1" 678 0 basechar 0
AnchorPoint: "Ancre-0" 643 1414 basechar 0
LayerCount: 2
Fore
SplineSet
1273 657 m 0,0,1
 1255 509 1255 509 1199.5 386 c 128,-1,2
 1144 263 1144 263 1059 174 c 128,-1,3
 974 85 974 85 864.5 35.5 c 128,-1,4
 755 -14 755 -14 628 -14 c 0,5,6
 502 -14 502 -14 404.5 35.5 c 128,-1,7
 307 85 307 85 243.5 174 c 128,-1,8
 180 263 180 263 154 386 c 0,9,10
 139 459 139 459 139 540 c 0,11,12
 139 596 139 596 146 657 c 0,13,14
 164 804 164 804 220 927.5 c 128,-1,15
 276 1051 276 1051 361.5 1140.5 c 128,-1,16
 447 1230 447 1230 557.5 1279.5 c 128,-1,17
 668 1329 668 1329 793 1329 c 0,18,19
 919 1329 919 1329 1017 1279.5 c 128,-1,20
 1115 1230 1115 1230 1178 1140 c 0,21,22
 1241 1052 1241 1052 1266 928 c 0,23,24
 1281 856 1281 856 1281 776 c 0,25,26
 1281 719 1281 719 1273 657 c 0,0,1
1100 657 m 256,27,28
 1107 716 1107 716 1107 769 c 0,29,30
 1107 775 1107 775 1107 781 c 0,31,32
 1107 829 1107 829 1100 872 c 0,33,34
 1084 968 1084 968 1041.5 1034.5 c 128,-1,35
 999 1101 999 1101 931 1136.5 c 128,-1,36
 863 1172 863 1172 774 1172 c 256,37,38
 685 1172 685 1172 608.5 1136.5 c 128,-1,39
 532 1101 532 1101 472.5 1034.5 c 128,-1,40
 413 968 413 968 374 872.5 c 128,-1,41
 335 777 335 777 320 657 c 256,42,43
 313 599 313 599 313 547 c 0,44,45
 313 492 313 492 321 442 c 0,46,47
 337 346 337 346 380 279.5 c 128,-1,48
 423 213 423 213 490.5 178 c 128,-1,49
 558 143 558 143 648 143 c 256,50,51
 737 143 737 143 813.5 178 c 128,-1,52
 890 213 890 213 948.5 279.5 c 128,-1,53
 1007 346 1007 346 1046 441.5 c 128,-1,54
 1085 537 1085 537 1100 657 c 256,27,28
EndSplineSet
Validated: 1
Position2: "sous-table 'cpsp' Chasses pour composition en capitales lookups0" dx=40 dy=0 dh=80 dv=0
Substitution2: "sous-table 'sups' Exposant lookups25" O.superior
Substitution2: "sous-table 'c2sc' Capitales vers petites capitales lookups24" o.smcp
EndChar

StartChar: Oslash
Encoding: 216 216 28
Width: 1260
GlyphClass: 2
Flags: MW
AnchorPoint: "Ancre-5" 1359 1414 basechar 0
AnchorPoint: "Ancre-3" 1359 -510 basechar 0
AnchorPoint: "Ancre-2" 1359 1515 basechar 0
AnchorPoint: "Ancre-1" 681 0 basechar 0
AnchorPoint: "Ancre-0" 613 1414 basechar 0
LayerCount: 2
Fore
SplineSet
1276 657 m 4,0,1
 1258 509 1258 509 1202 386 c 132,-1,2
 1146 263 1146 263 1061 174 c 132,-1,3
 976 85 976 85 866 35.5 c 132,-1,4
 756 -14 756 -14 629 -14 c 4,5,6
 545 -14 545 -14 475.5 7.5 c 132,-1,7
 406 29 406 29 348 70 c 5,8,-1
 259 -49 l 6,9,10
 237 -77 237 -77 209.5 -88.5 c 132,-1,11
 182 -100 182 -100 156 -100 c 6,12,-1
 89 -100 l 5,13,-1
 271 140 l 5,14,15
 193 230 193 230 160 362 c 4,16,17
 139 444 139 444 139 538 c 4,18,19
 139 595 139 595 147 657 c 4,20,21
 165 804 165 804 221 927.5 c 132,-1,22
 277 1051 277 1051 362.5 1140.5 c 132,-1,23
 448 1230 448 1230 558.5 1279.5 c 132,-1,24
 669 1329 669 1329 794 1329 c 4,25,26
 884 1329 884 1329 959.5 1303.5 c 132,-1,27
 1035 1278 1035 1278 1094 1230 c 5,28,-1
 1168 1327 l 6,29,30
 1178 1340 1178 1340 1186 1349 c 132,-1,31
 1194 1358 1194 1358 1202 1363.5 c 132,-1,32
 1210 1369 1210 1369 1220.5 1371.5 c 132,-1,33
 1231 1374 1231 1374 1245 1374 c 6,34,-1
 1333 1374 l 5,35,-1
 1168 1156 l 5,36,37
 1238 1064 1238 1064 1266 938 c 4,38,39
 1283 862 1283 862 1284 776 c 4,40,41
 1284 719 1284 719 1276 657 c 4,0,1
320 657 m 260,42,43
 313 598 313 598 313 545 c 4,44,45
 313 539 313 539 313 533 c 4,46,47
 313 486 313 486 320 443 c 4,48,49
 336 349 336 349 378 282 c 5,50,-1
 992 1095 l 5,51,52
 950 1133 950 1133 896 1152.5 c 132,-1,53
 842 1172 842 1172 775 1172 c 4,54,55
 686 1172 686 1172 609 1136.5 c 132,-1,56
 532 1101 532 1101 473 1034.5 c 132,-1,57
 414 968 414 968 374.5 872.5 c 132,-1,58
 335 777 335 777 320 657 c 260,42,43
1102 657 m 4,59,60
 1109 715 1109 715 1109 767 c 4,61,62
 1109 773 1109 773 1109 780 c 4,63,64
 1109 818 1109 818 1104 854 c 4,65,66
 1092 942 1092 942 1057 1009 c 5,67,-1
 450 204 l 5,68,69
 531 143 531 143 648 143 c 4,70,71
 737 143 737 143 814 178 c 132,-1,72
 891 213 891 213 950 279.5 c 132,-1,73
 1009 346 1009 346 1048 441.5 c 132,-1,74
 1087 537 1087 537 1102 657 c 4,59,60
EndSplineSet
Validated: 1
Substitution2: "sous-table 'c2sc' Capitales vers petites capitales lookups24" oslash.smcp
Position2: "sous-table 'cpsp' Chasses pour composition en capitales lookups0" dx=40 dy=0 dh=80 dv=0
EndChar

StartChar: OE
Encoding: 338 338 29
Width: 1775
GlyphClass: 2
Flags: MW
AnchorPoint: "Ancre-0" 1281 1414 basechar 0
AnchorPoint: "Ancre-1" 1069 89 basechar 0
AnchorPoint: "Ancre-2" 1775 1515 basechar 0
AnchorPoint: "Ancre-3" 1775 -510 basechar 0
AnchorPoint: "Ancre-5" 1775 1414 basechar 0
LayerCount: 2
Fore
SplineSet
961 197 m 1,0,1
 795 -13 795 -13 536 -13 c 0,2,3
 330 -13 330 -13 208.5 144 c 128,-1,4
 87 301 87 301 87 555 c 0,5,6
 88 891 88 891 262 1110 c 0,7,8
 437 1329 437 1329 697 1329 c 2,9,-1
 699 1329 l 2,10,11
 830 1329 830 1329 924 1264 c 128,-1,12
 1018 1199 1018 1199 1071 1088 c 1,13,-1
 1099 1314 l 1,14,-1
 1802 1314 l 1,15,-1
 1785 1172 l 1,16,-1
 1238 1172 l 1,17,-1
 1184 731 l 1,18,-1
 1623 731 l 1,19,-1
 1606 593 l 1,20,-1
 1167 593 l 1,21,-1
 1112 142 l 1,22,-1
 1659 142 l 1,23,-1
 1640 0 l 1,24,-1
 937 0 l 1,25,-1
 961 197 l 1,0,1
971.5 500 m 128,-1,27
 1003 616 1003 616 1003 735 c 0,28,29
 1003 956 1003 956 922.5 1071.5 c 128,-1,30
 842 1187 842 1187 701 1187 c 0,31,32
 508 1186 508 1186 387 1012 c 0,33,34
 267 839 267 839 267 561 c 0,35,36
 267 361 267 361 347.5 245 c 128,-1,37
 428 129 428 129 572 129 c 0,38,39
 764 130 764 130 883 302 c 0,40,26
 940 384 940 384 971.5 500 c 128,-1,27
EndSplineSet
Validated: 1
Substitution2: "sous-table 'c2sc' Capitales vers petites capitales lookups24" oe.smcp
Position2: "sous-table 'cpsp' Chasses pour composition en capitales lookups0" dx=40 dy=0 dh=80 dv=0
EndChar

StartChar: P
Encoding: 80 80 30
Width: 979
GlyphClass: 2
Flags: MW
AnchorPoint: "Ancre-5" 1058 1414 basechar 0
AnchorPoint: "Ancre-3" 1058 -510 basechar 0
AnchorPoint: "Ancre-2" 1058 1515 basechar 0
AnchorPoint: "Ancre-1" 516 10 basechar 0
AnchorPoint: "Ancre-0" 483 1414 basechar 0
LayerCount: 2
Fore
SplineSet
363 490 m 1,0,-1
 303 0 l 1,1,-1
 134 0 l 1,2,-1
 295 1314 l 1,3,-1
 646 1314 l 2,4,5
 758 1314 758 1314 836.5 1285 c 128,-1,6
 915 1256 915 1256 962.5 1203 c 128,-1,7
 1010 1150 1010 1150 1027 1074 c 0,8,9
 1037 1028 1037 1028 1037 976 c 0,10,11
 1037 942 1037 942 1033 906 c 0,12,13
 1022 814 1022 814 984 738 c 128,-1,14
 946 662 946 662 884 606.5 c 128,-1,15
 822 551 822 551 736.5 520.5 c 128,-1,16
 651 490 651 490 545 490 c 2,17,-1
 363 490 l 1,0,-1
381 634 m 1,18,-1
 562 634 l 2,19,20
 627 634 627 634 680 654 c 128,-1,21
 733 674 733 674 771 710 c 128,-1,22
 809 746 809 746 832.5 796 c 128,-1,23
 856 846 856 846 863 906 c 0,24,25
 866 932 866 932 866 956 c 0,26,27
 866 1047 866 1047 821 1102 c 0,28,29
 765 1171 765 1171 632 1171 c 0,30,31
 630 1171 630 1171 628 1171 c 2,32,-1
 447 1171 l 1,33,-1
 381 634 l 1,18,-1
EndSplineSet
Validated: 1
Position2: "sous-table 'cpsp' Chasses pour composition en capitales lookups0" dx=40 dy=0 dh=80 dv=0
Substitution2: "sous-table 'sups' Exposant lookups25" P.superior
Substitution2: "sous-table 'c2sc' Capitales vers petites capitales lookups24" p.smcp
EndChar

StartChar: Thorn
Encoding: 222 222 31
Width: 979
GlyphClass: 2
Flags: MW
LayerCount: 2
Fore
SplineSet
335 249 m 1,0,-1
 304 0 l 1,1,-1
 135 0 l 1,2,-1
 296 1314 l 1,3,-1
 465 1314 l 1,4,-1
 436 1073 l 1,5,-1
 618 1073 l 2,6,7
 730 1073 730 1073 809 1044 c 128,-1,8
 888 1015 888 1015 936 962 c 0,9,10
 984 908 984 908 1000 834 c 0,11,12
 1010 788 1010 788 1010 735 c 0,13,14
 1010 730 1010 730 1010 724 c 0,15,16
 1011 702 1011 702 1006 665 c 0,17,18
 993 568 993 568 957 497 c 0,19,20
 919 421 919 421 857 365.5 c 128,-1,21
 795 310 795 310 709.5 279.5 c 128,-1,22
 624 249 624 249 517 249 c 2,23,-1
 335 249 l 1,0,-1
352 393 m 1,24,-1
 534 393 l 2,25,26
 600 393 600 393 653 413 c 128,-1,27
 706 433 706 433 744.5 469 c 128,-1,28
 783 505 783 505 806 555 c 0,29,30
 830 608 830 608 837 665 c 0,31,32
 840 691 840 691 840 714 c 0,33,34
 840 804 840 804 794 860 c 0,35,36
 736 930 736 930 600 930 c 2,37,-1
 418 930 l 1,38,-1
 352 393 l 1,24,-1
EndSplineSet
Validated: 1
Substitution2: "sous-table 'c2sc' Capitales vers petites capitales lookups24" thorn.smcp
Position2: "sous-table 'cpsp' Chasses pour composition en capitales lookups0" dx=40 dy=0 dh=80 dv=0
EndChar

StartChar: Q
Encoding: 81 81 32
Width: 1280
GlyphClass: 2
Flags: MW
AnchorPoint: "Ancre-5" 1378 1414 basechar 0
AnchorPoint: "Ancre-3" 1378 -510 basechar 0
AnchorPoint: "Ancre-2" 1378 1515 basechar 0
AnchorPoint: "Ancre-1" 690 -3 basechar 0
AnchorPoint: "Ancre-0" 617 1414 basechar 0
LayerCount: 2
Fore
SplineSet
1283 657 m 0,0,1
 1262 483 1262 483 1190 345.5 c 128,-1,2
 1118 208 1118 208 1009 118 c 1,3,-1
 1277 -271 l 1,4,-1
 1137 -271 l 2,5,6
 1106 -271 1106 -271 1083 -261 c 128,-1,7
 1060 -251 1060 -251 1043 -228 c 2,8,-1
 866 32 l 1,9,10
 759 -14 759 -14 638 -14 c 0,11,12
 512 -14 512 -14 414.5 35.5 c 128,-1,13
 317 85 317 85 253.5 174 c 128,-1,14
 190 263 190 263 164 386 c 0,15,16
 149 459 149 459 149 540 c 0,17,18
 149 596 149 596 156 657 c 0,19,20
 174 804 174 804 230 927.5 c 128,-1,21
 286 1051 286 1051 371.5 1140.5 c 128,-1,22
 457 1230 457 1230 567.5 1279.5 c 128,-1,23
 678 1329 678 1329 803 1329 c 0,24,25
 929 1329 929 1329 1027 1279.5 c 128,-1,26
 1125 1230 1125 1230 1188 1140 c 0,27,28
 1251 1052 1251 1052 1276 928 c 0,29,30
 1291 854 1291 854 1291 776 c 0,31,32
 1291 719 1291 719 1283 657 c 0,0,1
1110 657 m 256,33,34
 1117 717 1117 717 1117 781 c 0,35,36
 1117 829 1117 829 1110 872 c 0,37,38
 1094 968 1094 968 1051.5 1034.5 c 128,-1,39
 1009 1101 1009 1101 941 1136.5 c 128,-1,40
 873 1172 873 1172 784 1172 c 256,41,42
 695 1172 695 1172 618.5 1136.5 c 128,-1,43
 542 1101 542 1101 482.5 1034.5 c 128,-1,44
 423 968 423 968 384 872.5 c 128,-1,45
 345 777 345 777 330 657 c 256,46,47
 323 599 323 599 323 547 c 0,48,49
 323 492 323 492 331 442 c 0,50,51
 347 346 347 346 390 279.5 c 128,-1,52
 433 213 433 213 500.5 178 c 128,-1,53
 568 143 568 143 658 143 c 256,54,55
 747 143 747 143 823.5 178 c 128,-1,56
 900 213 900 213 958.5 279.5 c 128,-1,57
 1017 346 1017 346 1056 441.5 c 128,-1,58
 1095 537 1095 537 1110 657 c 256,33,34
EndSplineSet
Validated: 1
Position2: "sous-table 'cpsp' Chasses pour composition en capitales lookups0" dx=40 dy=0 dh=80 dv=0
Substitution2: "sous-table 'sups' Exposant lookups25" Q.superior
Substitution2: "sous-table 'c2sc' Capitales vers petites capitales lookups24" q.smcp
EndChar

StartChar: R
Encoding: 82 82 33
Width: 1030
GlyphClass: 2
Flags: MW
AnchorPoint: "Ancre-5" 1112 1414 basechar 0
AnchorPoint: "Ancre-3" 1112 -510 basechar 0
AnchorPoint: "Ancre-2" 1112 1515 basechar 0
AnchorPoint: "Ancre-1" 516 10 basechar 0
AnchorPoint: "Ancre-0" 445 1414 basechar 0
LayerCount: 2
Fore
SplineSet
370 546 m 5,0,-1
 303 0 l 5,1,-1
 134 0 l 5,2,-1
 295 1314 l 5,3,-1
 630 1314 l 6,4,5
 742 1314 742 1314 820 1288.5 c 132,-1,6
 898 1263 898 1263 944.5 1215.5 c 132,-1,7
 991 1168 991 1168 1008 1100 c 4,8,9
 1019 1058 1019 1058 1019 1009 c 4,10,11
 1019 980 1019 980 1015 949 c 4,12,13
 1007 880 1007 880 980 820 c 132,-1,14
 953 760 953 760 911.5 712 c 132,-1,15
 870 664 870 664 813.5 629.5 c 132,-1,16
 757 595 757 595 689 577 c 5,17,18
 703 566 703 566 715.5 552.5 c 132,-1,19
 728 539 728 539 739 520 c 6,20,-1
 1003 0 l 5,21,-1
 853 0 l 6,22,23
 809 0 809 0 789 37 c 6,24,-1
 558 505 l 6,25,26
 547 527 547 527 531.5 536.5 c 132,-1,27
 516 546 516 546 484 546 c 6,28,-1
 370 546 l 5,0,-1
386 679 m 5,29,-1
 545 679 l 6,30,31
 612 679 612 679 665 697.5 c 132,-1,32
 718 716 718 716 756.5 750 c 132,-1,33
 795 784 795 784 818.5 831.5 c 132,-1,34
 842 879 842 879 849 936 c 4,35,36
 852 959 852 959 852 980 c 4,37,38
 852 1171 852 1171 612 1171 c 6,39,-1
 447 1171 l 5,40,-1
 386 679 l 5,29,-1
EndSplineSet
Validated: 1
Position2: "sous-table 'cpsp' Chasses pour composition en capitales lookups0" dx=40 dy=0 dh=80 dv=0
Substitution2: "sous-table 'sups' Exposant lookups25" R.superior
Substitution2: "sous-table 'c2sc' Capitales vers petites capitales lookups24" r.smcp
EndChar

StartChar: S
Encoding: 83 83 34
Width: 872
GlyphClass: 2
Flags: MW
AnchorPoint: "Ancre-5" 941 1414 basechar 0
AnchorPoint: "Ancre-3" 941 -510 basechar 0
AnchorPoint: "Ancre-2" 941 1515 basechar 0
AnchorPoint: "Ancre-1" 450 0 basechar 0
AnchorPoint: "Ancre-0" 480 1414 basechar 0
LayerCount: 2
Fore
SplineSet
876 1107 m 6,0,1
 859 1079 859 1079 834 1079 c 4,2,3
 820 1079 820 1079 803 1094.5 c 132,-1,4
 786 1110 786 1110 761 1128.5 c 132,-1,5
 736 1147 736 1147 699 1162.5 c 132,-1,6
 662 1178 662 1178 609 1178 c 4,7,8
 558 1178 558 1178 517 1162.5 c 132,-1,9
 476 1147 476 1147 447 1119.5 c 132,-1,10
 418 1092 418 1092 400.5 1055.5 c 132,-1,11
 383 1019 383 1019 378 977 c 4,12,13
 376 962 376 962 376 949 c 4,14,15
 376 912 376 912 390 886 c 4,16,17
 410 850 410 850 445.5 824.5 c 132,-1,18
 481 799 481 799 528 780 c 132,-1,19
 575 761 575 761 623.5 741 c 132,-1,20
 672 721 672 721 718.5 695.5 c 132,-1,21
 765 670 765 670 798.5 631.5 c 132,-1,22
 832 593 832 593 849 537 c 4,23,24
 860 502 860 502 860 457 c 4,25,26
 860 430 860 430 856 400 c 4,27,28
 845 313 845 313 810 237.5 c 132,-1,29
 775 162 775 162 718.5 106 c 132,-1,30
 662 50 662 50 585.5 18 c 132,-1,31
 509 -14 509 -14 416 -14 c 4,32,33
 303 -14 303 -14 214.5 32.5 c 132,-1,34
 126 79 126 79 69 158 c 5,35,-1
 129 244 l 6,36,37
 137 255 137 255 147.5 261.5 c 132,-1,38
 158 268 158 268 171 268 c 4,39,40
 189 268 189 268 208.5 247.5 c 132,-1,41
 228 227 228 227 257.5 202.5 c 132,-1,42
 287 178 287 178 330.5 157.5 c 132,-1,43
 374 137 374 137 438 137 c 4,44,45
 492 137 492 137 536 154 c 132,-1,46
 580 171 580 171 613 202 c 132,-1,47
 646 233 646 233 666.5 276.5 c 132,-1,48
 687 320 687 320 694 373 c 4,49,50
 696 389 696 389 696 403 c 4,51,52
 696 442 696 442 682 470 c 4,53,54
 663 508 663 508 627.5 533.5 c 132,-1,55
 592 559 592 559 545 576.5 c 132,-1,56
 498 594 498 594 449 613 c 132,-1,57
 400 632 400 632 354 656.5 c 132,-1,58
 308 681 308 681 274 721 c 132,-1,59
 240 761 240 761 224 820 c 4,60,61
 214 855 214 855 214 901 c 4,62,63
 214 932 214 932 218 967 c 4,64,65
 226 1036 226 1036 258.5 1101.5 c 132,-1,66
 291 1167 291 1167 343 1217.5 c 132,-1,67
 395 1268 395 1268 466.5 1298.5 c 132,-1,68
 538 1329 538 1329 625 1329 c 4,69,70
 723 1329 723 1329 800 1294 c 132,-1,71
 877 1259 877 1259 928 1192 c 5,72,-1
 876 1107 l 6,0,1
EndSplineSet
Validated: 1
Position2: "sous-table 'cpsp' Chasses pour composition en capitales lookups0" dx=40 dy=0 dh=80 dv=0
Substitution2: "sous-table 'sups' Exposant lookups25" S.superior
Substitution2: "sous-table 'c2sc' Capitales vers petites capitales lookups24" s.smcp
EndChar

StartChar: Scedilla
Encoding: 350 350 35
Width: 872
GlyphClass: 2
Flags: MW
AnchorPoint: "Ancre-5" 941 1414 basechar 0
AnchorPoint: "Ancre-3" 941 -510 basechar 0
AnchorPoint: "Ancre-2" 941 1515 basechar 0
AnchorPoint: "Ancre-1" 450 -300 basechar 0
AnchorPoint: "Ancre-0" 480 1414 basechar 0
LayerCount: 2
Fore
SplineSet
229 -270 m 4,0,1
 235 -270 235 -270 241.5 -273.5 c 132,-1,2
 248 -277 248 -277 257.5 -281 c 132,-1,3
 267 -285 267 -285 280 -288.5 c 132,-1,4
 293 -292 293 -292 313 -292 c 4,5,6
 350 -292 350 -292 371 -276 c 132,-1,7
 392 -260 392 -260 395 -235 c 4,8,9
 396 -230 396 -230 396 -226 c 4,10,11
 396 -195 396 -195 364 -183 c 4,12,13
 328 -169 328 -169 260 -159 c 5,14,-1
 326 -6 l 5,15,16
 266 4 266 4 214 32 c 4,17,18
 126 78 126 78 69 158 c 5,19,-1
 129 244 l 6,20,21
 137 255 137 255 147.5 261.5 c 132,-1,22
 158 268 158 268 171 268 c 4,23,24
 189 268 189 268 208.5 247.5 c 132,-1,25
 228 227 228 227 257.5 202.5 c 132,-1,26
 287 178 287 178 330.5 157.5 c 132,-1,27
 374 137 374 137 438 137 c 4,28,29
 492 137 492 137 536 154 c 132,-1,30
 580 171 580 171 613 202 c 132,-1,31
 646 233 646 233 666.5 276.5 c 132,-1,32
 687 320 687 320 694 373 c 4,33,34
 696 389 696 389 696 403 c 4,35,36
 696 442 696 442 682 470 c 4,37,38
 663 508 663 508 627.5 533.5 c 132,-1,39
 592 559 592 559 545 576.5 c 132,-1,40
 498 594 498 594 449 613 c 132,-1,41
 400 632 400 632 354 656.5 c 132,-1,42
 308 681 308 681 274 721 c 132,-1,43
 240 761 240 761 224 820 c 4,44,45
 214 855 214 855 214 901 c 4,46,47
 214 932 214 932 218 967 c 4,48,49
 226 1036 226 1036 258.5 1101.5 c 132,-1,50
 291 1167 291 1167 343 1217.5 c 132,-1,51
 395 1268 395 1268 466.5 1298.5 c 132,-1,52
 538 1329 538 1329 625 1329 c 4,53,54
 723 1329 723 1329 800 1294 c 132,-1,55
 877 1259 877 1259 928 1192 c 5,56,-1
 876 1107 l 6,57,58
 859 1079 859 1079 834 1079 c 4,59,60
 820 1079 820 1079 803 1094.5 c 132,-1,61
 786 1110 786 1110 761 1128.5 c 132,-1,62
 736 1147 736 1147 699 1162.5 c 132,-1,63
 662 1178 662 1178 609 1178 c 4,64,65
 558 1178 558 1178 517 1162.5 c 132,-1,66
 476 1147 476 1147 447 1119.5 c 132,-1,67
 418 1092 418 1092 400.5 1055.5 c 132,-1,68
 383 1019 383 1019 378 977 c 4,69,70
 376 962 376 962 376 949 c 4,71,72
 376 912 376 912 390 886 c 4,73,74
 410 850 410 850 445.5 824.5 c 132,-1,75
 481 799 481 799 528 780 c 132,-1,76
 575 761 575 761 623.5 741 c 132,-1,77
 672 721 672 721 718.5 695.5 c 132,-1,78
 765 670 765 670 798.5 631.5 c 132,-1,79
 832 593 832 593 849 537 c 4,80,81
 860 502 860 502 860 457 c 4,82,83
 860 430 860 430 856 400 c 4,84,85
 845 313 845 313 810 237.5 c 132,-1,86
 775 162 775 162 718.5 106 c 132,-1,87
 662 50 662 50 585.5 18 c 132,-1,88
 509 -14 509 -14 416 -14 c 5,89,-1
 383 -99 l 5,90,91
 465 -117 465 -117 497 -151 c 4,92,93
 524 -180 524 -180 524 -221 c 4,94,95
 524 -229 524 -229 523 -237 c 4,96,97
 519 -268 519 -268 501.5 -293 c 132,-1,98
 484 -318 484 -318 456.5 -335 c 132,-1,99
 429 -352 429 -352 391.5 -361.5 c 132,-1,100
 354 -371 354 -371 311 -371 c 4,101,102
 275 -371 275 -371 242.5 -363 c 132,-1,103
 210 -355 210 -355 184 -341 c 5,104,-1
 206 -287 l 6,105,106
 214 -270 214 -270 229 -270 c 4,0,1
EndSplineSet
Validated: 1
Substitution2: "sous-table 'c2sc' Capitales vers petites capitales lookups24" scedilla.smcp
LCarets2: 1 0
Position2: "sous-table 'cpsp' Chasses pour composition en capitales lookups0" dx=40 dy=0 dh=80 dv=0
Ligature2: "sous-table 'ccmp' Composition et d+AOkA-composition de glyphe (CJK) lookups10" S uni0327
Substitution2: "sous-table 'salt' Alternatives stylistiques dans Latin lookup 8" uni0218
EndChar

StartChar: T
Encoding: 84 84 36
Width: 927
GlyphClass: 2
Flags: MW
AnchorPoint: "Ancre-5" 998 1414 basechar 0
AnchorPoint: "Ancre-3" 998 -510 basechar 0
AnchorPoint: "Ancre-2" 998 1515 basechar 0
AnchorPoint: "Ancre-1" 499 0 basechar 0
AnchorPoint: "Ancre-0" 454 1414 basechar 0
LayerCount: 2
Fore
SplineSet
1067 1314 m 1,0,-1
 1048 1162 l 1,1,-1
 692 1162 l 1,2,-1
 549 0 l 1,3,-1
 379 0 l 1,4,-1
 522 1162 l 1,5,-1
 165 1162 l 1,6,-1
 183 1314 l 1,7,-1
 1067 1314 l 1,0,-1
EndSplineSet
Validated: 1
Position2: "sous-table 'cpsp' Chasses pour composition en capitales lookups0" dx=40 dy=0 dh=80 dv=0
Substitution2: "sous-table 'sups' Exposant lookups25" T.superior
Substitution2: "sous-table 'c2sc' Capitales vers petites capitales lookups24" t.smcp
EndChar

StartChar: Tbar
Encoding: 358 358 37
Width: 998
GlyphClass: 2
Flags: MW
AnchorPoint: "Ancre-0" 454 1414 basechar 0
AnchorPoint: "Ancre-1" 499 0 basechar 0
AnchorPoint: "Ancre-2" 998 1515 basechar 0
AnchorPoint: "Ancre-3" 998 -510 basechar 0
AnchorPoint: "Ancre-5" 998 1414 basechar 0
LayerCount: 2
Fore
SplineSet
1067 1314 m 1,0,-1
 1048 1162 l 1,1,-1
 692 1162 l 1,2,-1
 645 781 l 1,3,-1
 933 781 l 1,4,-1
 920 674 l 1,5,-1
 632 674 l 1,6,-1
 549 0 l 1,7,-1
 379 0 l 1,8,-1
 462 674 l 1,9,-1
 245 674 l 1,10,-1
 258 781 l 1,11,-1
 475 781 l 1,12,-1
 522 1162 l 1,13,-1
 165 1162 l 1,14,-1
 183 1314 l 1,15,-1
 1067 1314 l 1,0,-1
EndSplineSet
Validated: 1
Substitution2: "sous-table 'c2sc' Capitales vers petites capitales lookups24" tbar.smcp
Position2: "sous-table 'cpsp' Chasses pour composition en capitales lookups0" dx=40 dy=0 dh=80 dv=0
EndChar

StartChar: U
Encoding: 85 85 38
Width: 1216
GlyphClass: 2
Flags: MW
AnchorPoint: "Ancre-5" 1314 1414 basechar 0
AnchorPoint: "Ancre-3" 1314 -510 basechar 0
AnchorPoint: "Ancre-2" 1314 1515 basechar 0
AnchorPoint: "Ancre-1" 657 0 basechar 0
AnchorPoint: "Ancre-0" 587 1414 basechar 0
LayerCount: 2
Fore
SplineSet
626 144 m 260,0,1
 699 144 699 144 760.5 171.5 c 132,-1,2
 822 199 822 199 868 248.5 c 132,-1,3
 914 298 914 298 943.5 366 c 132,-1,4
 973 434 973 434 983 516 c 6,5,-1
 1081 1314 l 5,6,-1
 1250 1314 l 5,7,-1
 1152 516 l 6,8,9
 1138 402 1138 402 1093 305 c 132,-1,10
 1048 208 1048 208 977 137 c 132,-1,11
 906 66 906 66 812 25.5 c 132,-1,12
 718 -15 718 -15 606 -15 c 260,13,14
 494 -15 494 -15 410.5 25.5 c 132,-1,15
 327 66 327 66 273.5 137 c 132,-1,16
 220 208 220 208 198 305 c 4,17,18
 185 364 185 364 185 429 c 4,19,20
 185 471 185 471 191 516 c 6,21,-1
 289 1314 l 5,22,-1
 458 1314 l 5,23,-1
 360 517 l 6,24,25
 356 481 356 481 356 447 c 4,26,27
 356 404 356 404 362 366 c 4,28,29
 374 298 374 298 408.5 248.5 c 132,-1,30
 443 199 443 199 498 171.5 c 132,-1,31
 553 144 553 144 626 144 c 260,0,1
EndSplineSet
Validated: 1
Position2: "sous-table 'cpsp' Chasses pour composition en capitales lookups0" dx=40 dy=0 dh=80 dv=0
Substitution2: "sous-table 'sups' Exposant lookups25" U.superior
Substitution2: "sous-table 'c2sc' Capitales vers petites capitales lookups24" u.smcp
EndChar

StartChar: Uogonek
Encoding: 370 370 39
Width: 1216
GlyphClass: 2
Flags: MW
AnchorPoint: "Ancre-5" 1314 1414 basechar 0
AnchorPoint: "Ancre-3" 1314 -510 basechar 0
AnchorPoint: "Ancre-2" 1314 1515 basechar 0
AnchorPoint: "Ancre-1" 657 -300 basechar 0
AnchorPoint: "Ancre-0" 587 1414 basechar 0
LayerCount: 2
Fore
SplineSet
744 -291 m 5,0,1
 676 -341 676 -341 592 -341 c 132,-1,2
 508 -341 508 -341 468 -307 c 132,-1,3
 428 -273 428 -273 428 -229 c 4,4,5
 428 -102 428 -102 569 -14 c 5,6,7
 480 -8 480 -8 410 26 c 4,8,9
 326 66 326 66 273 137 c 132,-1,10
 220 208 220 208 198 305 c 4,11,12
 185 364 185 364 185 429 c 4,13,14
 185 471 185 471 191 516 c 6,15,-1
 289 1314 l 5,16,-1
 458 1314 l 5,17,-1
 360 517 l 6,18,19
 356 481 356 481 356 447 c 4,20,21
 356 404 356 404 362 366 c 4,22,23
 374 298 374 298 408.5 248.5 c 132,-1,24
 443 199 443 199 498 171.5 c 132,-1,25
 553 144 553 144 626 144 c 132,-1,26
 699 144 699 144 760.5 171.5 c 132,-1,27
 822 199 822 199 868 248.5 c 132,-1,28
 914 298 914 298 943.5 366 c 132,-1,29
 973 434 973 434 983 516 c 6,30,-1
 1081 1314 l 5,31,-1
 1250 1314 l 5,32,-1
 1152 516 l 6,33,34
 1138 402 1138 402 1093 305 c 132,-1,35
 1048 208 1048 208 977 137 c 132,-1,36
 906 66 906 66 812 26 c 5,37,38
 682 -11 l 5,39,40
 602 -55 602 -55 572 -119 c 4,41,42
 560 -143 560 -143 560 -172.5 c 132,-1,43
 560 -202 560 -202 578.5 -220.5 c 132,-1,44
 597 -239 597 -239 622.5 -239 c 132,-1,45
 648 -239 648 -239 662 -235.5 c 132,-1,46
 676 -232 676 -232 685 -227.5 c 132,-1,47
 694 -223 694 -223 699.5 -219.5 c 132,-1,48
 705 -216 705 -216 709 -216 c 4,49,50
 723 -216 723 -216 726 -228 c 6,51,-1
 744 -291 l 5,0,1
EndSplineSet
Validated: 1
Substitution2: "sous-table 'c2sc' Capitales vers petites capitales lookups24" uogonek.smcp
LCarets2: 1 0
Position2: "sous-table 'cpsp' Chasses pour composition en capitales lookups0" dx=40 dy=0 dh=80 dv=0
Ligature2: "sous-table 'ccmp' Composition et d+AOkA-composition de glyphe (CJK) lookups10" U uni0328
EndChar

StartChar: V
Encoding: 86 86 40
Width: 1080
GlyphClass: 2
Flags: MW
AnchorPoint: "Ancre-5" 1162 1414 basechar 0
AnchorPoint: "Ancre-3" 1162 -510 basechar 0
AnchorPoint: "Ancre-2" 1162 1515 basechar 0
AnchorPoint: "Ancre-1" 581 10 basechar 0
AnchorPoint: "Ancre-0" 536 1414 basechar 0
LayerCount: 2
Fore
SplineSet
167 1314 m 1,0,-1
 304 1314 l 2,1,2
 326 1314 326 1314 338.5 1302 c 128,-1,3
 351 1290 351 1290 355 1272 c 2,4,-1
 544 351 l 2,5,6
 551 320 551 320 557.5 283.5 c 128,-1,7
 564 247 564 247 567 207 c 1,8,9
 579 247 579 247 593.5 283.5 c 128,-1,10
 608 320 608 320 623 351 c 2,11,-1
 1038 1271 l 2,12,13
 1046 1288 1046 1288 1062 1301 c 128,-1,14
 1078 1314 1078 1314 1100 1314 c 2,15,-1
 1236 1314 l 1,16,-1
 616 0 l 1,17,-1
 464 0 l 1,18,-1
 167 1314 l 1,0,-1
EndSplineSet
Validated: 1
Position2: "sous-table 'cpsp' Chasses pour composition en capitales lookups0" dx=40 dy=0 dh=80 dv=0
Substitution2: "sous-table 'sups' Exposant lookups25" V.superior
Substitution2: "sous-table 'c2sc' Capitales vers petites capitales lookups24" v.smcp
EndChar

StartChar: W
Encoding: 87 87 41
Width: 1693
GlyphClass: 2
Flags: MW
AnchorPoint: "Ancre-5" 1822 1414 basechar 0
AnchorPoint: "Ancre-3" 1822 -510 basechar 0
AnchorPoint: "Ancre-2" 1822 1515 basechar 0
AnchorPoint: "Ancre-1" 911 10 basechar 0
AnchorPoint: "Ancre-0" 827 1414 basechar 0
LayerCount: 2
Fore
SplineSet
172 1314 m 1,0,-1
 315 1314 l 2,1,2
 336 1314 336 1314 350 1302.5 c 128,-1,3
 364 1291 364 1291 366 1272 c 2,4,-1
 492 365 l 2,5,6
 499 317 499 317 502 253 c 1,7,8
 511 284 511 284 521.5 312.5 c 128,-1,9
 532 341 532 341 542 366 c 2,10,-1
 926 1271 l 2,11,12
 933 1288 933 1288 950 1301 c 128,-1,13
 967 1314 967 1314 989 1314 c 2,14,-1
 1038 1314 l 2,15,16
 1060 1314 1060 1314 1073 1302.5 c 128,-1,17
 1086 1291 1086 1291 1090 1272 c 2,18,-1
 1251 365 l 2,19,20
 1255 341 1255 341 1258.5 313.5 c 128,-1,21
 1262 286 1262 286 1263 256 c 1,22,23
 1272 286 1272 286 1281.5 314 c 128,-1,24
 1291 342 1291 342 1300 365 c 2,25,-1
 1648 1271 l 2,26,27
 1655 1288 1655 1288 1672.5 1301 c 128,-1,28
 1690 1314 1690 1314 1711 1314 c 2,29,-1
 1844 1314 l 1,30,-1
 1312 0 l 1,31,-1
 1159 0 l 1,32,-1
 987 996 l 2,33,34
 984 1010 984 1010 982 1026.5 c 128,-1,35
 980 1043 980 1043 977 1062 c 1,36,37
 971 1043 971 1043 965 1026.5 c 128,-1,38
 959 1010 959 1010 953 996 c 2,39,-1
 535 0 l 1,40,-1
 382 0 l 1,41,-1
 172 1314 l 1,0,-1
EndSplineSet
Validated: 1
Position2: "sous-table 'cpsp' Chasses pour composition en capitales lookups0" dx=40 dy=0 dh=80 dv=0
Substitution2: "sous-table 'sups' Exposant lookups25" W.superior
Substitution2: "sous-table 'c2sc' Capitales vers petites capitales lookups24" w.smcp
EndChar

StartChar: X
Encoding: 88 88 42
Width: 988
GlyphClass: 2
Flags: MW
AnchorPoint: "Ancre-5" 1063 1414 basechar 0
AnchorPoint: "Ancre-3" 1063 -510 basechar 0
AnchorPoint: "Ancre-2" 1063 1515 basechar 0
AnchorPoint: "Ancre-1" 532 10 basechar 0
AnchorPoint: "Ancre-0" 499 1414 basechar 0
LayerCount: 2
Fore
SplineSet
461 674 m 1,0,-1
 186 1314 l 1,1,-1
 355 1314 l 2,2,3
 374 1314 374 1314 381 1307 c 128,-1,4
 388 1300 388 1300 394 1289 c 2,5,-1
 600 777 l 1,6,7
 609 794 609 794 619 807 c 2,8,-1
 925 1286 l 2,9,10
 934 1299 934 1299 943.5 1306.5 c 128,-1,11
 953 1314 953 1314 966 1314 c 2,12,-1
 1128 1314 l 1,13,-1
 696 684 l 1,14,-1
 978 0 l 1,15,-1
 810 0 l 2,16,17
 791 0 791 0 782 11 c 128,-1,18
 773 22 773 22 767 34 c 2,19,-1
 557 570 l 1,20,21
 551 555 551 555 543 545 c 2,22,-1
 216 34 l 2,23,24
 207 21 207 21 195.5 10.5 c 128,-1,25
 184 0 184 0 168 0 c 2,26,-1
 10 0 l 1,27,-1
 461 674 l 1,0,-1
EndSplineSet
Validated: 1
Position2: "sous-table 'cpsp' Chasses pour composition en capitales lookups0" dx=40 dy=0 dh=80 dv=0
Substitution2: "sous-table 'sups' Exposant lookups25" X.superior
Substitution2: "sous-table 'c2sc' Capitales vers petites capitales lookups24" x.smcp
EndChar

StartChar: Y
Encoding: 89 89 43
Width: 928
GlyphClass: 2
Flags: MW
AnchorPoint: "Ancre-5" 998 1414 basechar 0
AnchorPoint: "Ancre-3" 998 -510 basechar 0
AnchorPoint: "Ancre-2" 998 1515 basechar 0
AnchorPoint: "Ancre-1" 499 0 basechar 0
AnchorPoint: "Ancre-0" 446 1414 basechar 0
LayerCount: 2
Fore
SplineSet
613 525 m 1,0,-1
 549 0 l 1,1,-1
 379 0 l 1,2,-1
 444 523 l 1,3,-1
 161 1314 l 1,4,-1
 310 1314 l 2,5,6
 331 1314 331 1314 343.5 1302.5 c 128,-1,7
 356 1291 356 1291 363 1272 c 2,8,-1
 510 765 l 2,9,10
 522 734 522 734 530.5 706.5 c 128,-1,11
 539 679 539 679 545 652 c 1,12,13
 558 679 558 679 573 706.5 c 128,-1,14
 588 734 588 734 607 764 c 2,15,-1
 877 1272 l 2,16,17
 886 1287 886 1287 901.5 1300.5 c 128,-1,18
 917 1314 917 1314 939 1314 c 2,19,-1
 1089 1314 l 1,20,-1
 613 525 l 1,0,-1
EndSplineSet
Validated: 1
Position2: "sous-table 'cpsp' Chasses pour composition en capitales lookups0" dx=40 dy=0 dh=80 dv=0
Substitution2: "sous-table 'sups' Exposant lookups25" Y.superior
Substitution2: "sous-table 'c2sc' Capitales vers petites capitales lookups24" y.smcp
EndChar

StartChar: Z
Encoding: 90 90 44
Width: 889
GlyphClass: 2
Flags: MW
AnchorPoint: "Ancre-5" 959 1414 basechar 0
AnchorPoint: "Ancre-3" 959 -510 basechar 0
AnchorPoint: "Ancre-2" 959 1515 basechar 0
AnchorPoint: "Ancre-1" 495 10 basechar 0
AnchorPoint: "Ancre-0" 497 1414 basechar 0
LayerCount: 2
Fore
SplineSet
1007 1314 m 1,0,-1
 998 1247 l 2,1,2
 994 1215 994 1215 973 1187 c 2,3,-1
 274 148 l 1,4,-1
 851 148 l 1,5,-1
 833 0 l 1,6,-1
 51 0 l 1,7,-1
 60 71 l 2,8,9
 62 86 62 86 68 99 c 128,-1,10
 74 112 74 112 83 124 c 2,11,-1
 782 1166 l 1,12,-1
 226 1166 l 1,13,-1
 244 1314 l 1,14,-1
 1007 1314 l 1,0,-1
EndSplineSet
Validated: 1
Position2: "sous-table 'cpsp' Chasses pour composition en capitales lookups0" dx=40 dy=0 dh=80 dv=0
Substitution2: "sous-table 'sups' Exposant lookups25" Z.superior
Substitution2: "sous-table 'c2sc' Capitales vers petites capitales lookups24" z.smcp
EndChar

StartChar: a
Encoding: 97 97 45
Width: 1053
GlyphClass: 2
Flags: W
AnchorPoint: "Ancre-5" 961 1073 basechar 0
AnchorPoint: "Ancre-4" 840 522 basechar 0
AnchorPoint: "Ancre-3" 961 -510 basechar 0
AnchorPoint: "Ancre-2" 961 1466 basechar 0
AnchorPoint: "Ancre-1" 369 0 basechar 0
AnchorPoint: "Ancre-0" 767 1073 basechar 0
LayerCount: 2
Fore
SplineSet
717 268 m 1,0,1
 550 -14 550 -14 328 -14 c 0,2,3
 198 -14 198 -14 123 77 c 128,-1,4
 48 168 48 168 48 338 c 128,-1,5
 48 508 48 508 138 660 c 0,6,7
 275 892 275 892 532 966 c 0,8,9
 617 990 617 990 738 990 c 0,10,11
 739 990 739 990 741 991 c 0,12,13
 860 991 860 991 963 946 c 1,14,-1
 848 0 l 1,15,-1
 756 0 l 2,16,17
 699 0 699 0 699 51 c 2,18,-1
 699 60 l 1,19,-1
 717 268 l 1,0,1
780 856 m 1,20,21
 743 864 743 864 667 864 c 128,-1,22
 591 864 591 864 507 823 c 128,-1,23
 423 782 423 782 360 714 c 0,24,25
 224 566 224 566 224 367 c 0,26,27
 224 132 224 132 393 132 c 0,28,29
 546 132 546 132 672 369 c 0,30,31
 710 441 710 441 740 527 c 1,32,-1
 780 856 l 1,20,21
EndSplineSet
Validated: 1
Substitution2: "sous-table 'sups' Exposant lookups25" a.superior
Substitution2: "sous-table 'ordn' Ordinaux dans Latin lookup 39" a.superior
Substitution2: "sous-table 'smcp' Bas-de-casse vers petites capitales dans Latin lookup 0" a.smcp
EndChar

StartChar: aogonek
Encoding: 261 261 46
Width: 1053
GlyphClass: 2
Flags: MW
AnchorPoint: "Ancre-5" 981 1122 basechar 0
AnchorPoint: "Ancre-4" 852 550 basechar 0
AnchorPoint: "Ancre-3" 981 -510 basechar 0
AnchorPoint: "Ancre-2" 981 1515 basechar 0
AnchorPoint: "Ancre-1" 378 0 basechar 0
AnchorPoint: "Ancre-0" 489 1122 basechar 0
LayerCount: 2
Fore
SplineSet
717 268 m 1,0,1
 550 -14 550 -14 328 -14 c 0,2,3
 198 -14 198 -14 123 77 c 128,-1,4
 48 168 48 168 48 338 c 128,-1,5
 48 508 48 508 138 660 c 0,6,7
 276 894 276 894 532 966 c 0,8,9
 617 990 617 990 738 990 c 0,10,11
 739 990 739 990 741 991 c 0,12,13
 860 991 860 991 963 946 c 1,14,-1
 848 0 l 1,15,-1
 837 0 l 1,16,17
 759 -43 759 -43 726 -109 c 0,18,19
 712 -136 712 -136 712 -159 c 0,20,21
 712 -188 712 -188 734 -210 c 0,22,23
 752 -228 752 -228 777.5 -228 c 128,-1,24
 803 -228 803 -228 817 -224.5 c 128,-1,25
 831 -221 831 -221 840 -216.5 c 128,-1,26
 849 -212 849 -212 854.5 -208.5 c 128,-1,27
 860 -205 860 -205 864 -205 c 0,28,29
 878 -205 878 -205 881 -217 c 2,30,-1
 899 -280 l 1,31,32
 831 -330 831 -330 747 -330 c 128,-1,33
 663 -330 663 -330 623 -296.5 c 128,-1,34
 583 -263 583 -263 583 -207 c 0,35,36
 583 -90 583 -90 734 2 c 1,37,38
 698 12 698 12 698 50 c 0,39,40
 698 55 698 55 699 60 c 2,41,-1
 717 268 l 1,0,1
780 856 m 1,42,43
 743 864 743 864 667 864 c 128,-1,44
 591 864 591 864 507 823 c 128,-1,45
 423 782 423 782 360 714 c 0,46,47
 224 566 224 566 224 367 c 0,48,49
 224 132 224 132 393 132 c 0,50,51
 546 132 546 132 672 369 c 0,52,53
 710 441 710 441 740 527 c 1,54,-1
 780 856 l 1,42,43
EndSplineSet
Validated: 1
Substitution2: "sous-table 'smcp' Bas-de-casse vers petites capitales dans Latin lookup 0" aogonek.smcp
LCarets2: 1 0
Ligature2: "sous-table 'ccmp' Composition et d+AOkA-composition de glyphe (CJK) lookups10" a uni0328
EndChar

StartChar: ae
Encoding: 230 230 47
Width: 1545
GlyphClass: 2
Flags: W
AnchorPoint: "Ancre-5" 1583 1122 basechar 0
AnchorPoint: "Ancre-3" 1583 -510 basechar 0
AnchorPoint: "Ancre-2" 1583 1515 basechar 0
AnchorPoint: "Ancre-0" 863 1122 basechar 0
LayerCount: 2
Fore
SplineSet
814 814 m 1,0,1
 948 992 948 992 1181 992 c 0,2,3
 1308 992 1308 992 1393.5 923.5 c 128,-1,4
 1479 855 1479 855 1479 753 c 0,5,6
 1479 557 1479 557 1148 488 c 0,7,8
 1024 462 1024 462 833 459 c 1,9,-1
 833 431 l 2,10,11
 833 277 833 277 901.5 200.5 c 128,-1,12
 970 124 970 124 1094 124 c 128,-1,13
 1218 124 1218 124 1312 188 c 2,14,-1
 1357 218 l 2,15,16
 1404 251 1404 251 1424.5 251 c 128,-1,17
 1445 251 1445 251 1459 234 c 2,18,-1
 1504 181 l 1,19,20
 1346 30 1346 30 1182 -2 c 0,21,22
 1124 -14 1124 -14 1034 -14 c 128,-1,23
 944 -14 944 -14 857 43 c 128,-1,24
 770 100 770 100 728 213 c 1,25,26
 668 100 668 100 557 43 c 128,-1,27
 446 -14 446 -14 318 -14 c 0,28,29
 317 -14 317 -14 316 -15 c 0,30,31
 190 -14 190 -14 112 44 c 128,-1,32
 34 102 34 102 34 219 c 0,33,34
 34 452 34 452 382 534 c 0,35,36
 506 564 506 564 688 568 c 1,37,-1
 695 625 l 2,38,39
 699 655 699 655 699 681 c 0,40,41
 699 857 699 857 527 857 c 2,42,-1
 523 857 l 2,43,44
 424 857 424 857 334 806 c 0,45,46
 300 786 300 786 275 770 c 128,-1,47
 250 754 250 754 221.5 754 c 128,-1,48
 193 754 193 754 180 786 c 2,49,-1
 155 839 l 1,50,51
 336 994 336 994 550.5 994 c 128,-1,52
 765 994 765 994 814 814 c 1,0,1
675 461 m 1,53,54
 198 446 198 446 198 240 c 0,55,56
 198 170 198 170 242 136.5 c 128,-1,57
 286 103 286 103 351 103 c 0,58,59
 481 103 481 103 565 177 c 128,-1,60
 649 251 649 251 666 388 c 2,61,-1
 675 461 l 1,53,54
1282 834 m 0,62,63
 1240 867 1240 867 1168 867 c 0,64,65
 1034 867 1034 867 951 784.5 c 128,-1,66
 868 702 868 702 844 561 c 1,67,68
 1230 580 1230 580 1303 682 c 0,69,70
 1325 712 1325 712 1325 756.5 c 128,-1,71
 1325 801 1325 801 1282 834 c 0,62,63
EndSplineSet
Validated: 1
Substitution2: "sous-table 'smcp' Bas-de-casse vers petites capitales dans Latin lookup 0" ae.smcp
EndChar

StartChar: b
Encoding: 98 98 48
Width: 1053
GlyphClass: 2
Flags: W
AnchorPoint: "Ancre-5" 1053 1492 basechar 0
AnchorPoint: "Ancre-3" 1053 -510 basechar 0
AnchorPoint: "Ancre-2" 1053 1515 basechar 0
AnchorPoint: "Ancre-1" 534 0 basechar 0
AnchorPoint: "Ancre-0" 597 1492 basechar 0
LayerCount: 2
Fore
SplineSet
505 -14 m 0,0,1
 339 -14 339 -14 249 114 c 1,2,-1
 234 51 l 2,3,4
 229 25 229 25 216.5 12.5 c 128,-1,5
 204 0 204 0 174 0 c 2,6,-1
 81 0 l 1,7,-1
 253 1422 l 1,8,-1
 425 1422 l 1,9,-1
 340 729 l 1,10,11
 507 992 507 992 721 992 c 0,12,13
 850 992 850 992 923 900 c 128,-1,14
 996 808 996 808 996 633 c 0,15,16
 996 387 996 387 856 190 c 0,17,18
 766 64 766 64 639 12 c 0,19,20
 575 -14 575 -14 505 -14 c 0,0,1
277 216 m 1,21,22
 346 122 346 122 488 122 c 128,-1,23
 630 122 630 122 726 278 c 128,-1,24
 822 434 822 434 822 617 c 0,25,26
 822 732 822 732 779 792 c 128,-1,27
 736 852 736 852 647 852 c 128,-1,28
 558 852 558 852 462 744 c 128,-1,29
 366 636 366 636 308 465 c 1,30,-1
 277 216 l 1,21,22
EndSplineSet
Validated: 1
Substitution2: "sous-table 'sups' Exposant lookups25" b.superior
Substitution2: "sous-table 'ordn' Ordinaux dans Latin lookup 39" b.superior
Substitution2: "sous-table 'smcp' Bas-de-casse vers petites capitales dans Latin lookup 0" b.smcp
EndChar

StartChar: c
Encoding: 99 99 49
Width: 852
GlyphClass: 2
Flags: W
AnchorPoint: "Ancre-5" 843 1073 basechar 0
AnchorPoint: "Ancre-3" 843 -510 basechar 0
AnchorPoint: "Ancre-2" 843 1466 basechar 0
AnchorPoint: "Ancre-1" 487 -3 basechar 0
AnchorPoint: "Ancre-0" 631 1073 basechar 0
LayerCount: 2
Fore
SplineSet
806 176 m 1,0,1
 664 21 664 21 520 -5 c 0,2,3
 470 -14 470 -14 398.5 -14 c 128,-1,4
 327 -14 327 -14 261 15.5 c 128,-1,5
 195 45 195 45 150 98 c 0,6,7
 58 206 58 206 58 388 c 0,8,9
 58 631 58 631 203 811.5 c 128,-1,10
 348 992 348 992 567 992 c 0,11,12
 746 992 746 992 850 857 c 1,13,-1
 795 791 l 2,14,15
 781 773 781 773 764 773 c 0,16,17
 748 773 748 773 734 785 c 0,18,19
 660 851 660 851 577 851 c 0,20,21
 427 851 427 851 330.5 717 c 128,-1,22
 234 583 234 583 234 390.5 c 128,-1,23
 234 198 234 198 356 142 c 0,24,25
 396 124 396 124 456 124 c 128,-1,26
 516 124 516 124 560.5 143 c 128,-1,27
 605 162 605 162 635.5 185 c 128,-1,28
 666 208 666 208 687.5 227 c 128,-1,29
 709 246 709 246 728.5 246 c 128,-1,30
 748 246 748 246 762 229 c 2,31,-1
 806 176 l 1,0,1
EndSplineSet
Validated: 1
Substitution2: "sous-table 'smcp' Bas-de-casse vers petites capitales dans Latin lookup 0" c.smcp
Substitution2: "sous-table 'ordn' Ordinaux dans Latin lookup 39" c.superior
Substitution2: "sous-table 'sups' Exposant lookups25" c.superior
EndChar

StartChar: ccedilla
Encoding: 231 231 50
Width: 866
GlyphClass: 2
Flags: MW
AnchorPoint: "Ancre-0" 500 1122 basechar 0
AnchorPoint: "Ancre-1" 500 -300 basechar 0
AnchorPoint: "Ancre-2" 866 1515 basechar 0
AnchorPoint: "Ancre-3" 866 -510 basechar 0
AnchorPoint: "Ancre-5" 866 1122 basechar 0
LayerCount: 2
Fore
SplineSet
381 -243 m 0,0,1
 387 -243 387 -243 393.5 -246.5 c 128,-1,2
 400 -250 400 -250 410 -254 c 128,-1,3
 420 -258 420 -258 433.5 -261.5 c 128,-1,4
 447 -265 447 -265 465 -265 c 0,5,6
 501 -265 501 -265 520 -249 c 128,-1,7
 539 -233 539 -233 539 -208 c 0,8,9
 539 -171 539 -171 502 -156.5 c 128,-1,10
 465 -142 465 -142 395 -132 c 1,11,-1
 433 -11 l 1,12,13
 355 -3 355 -3 288.5 34.5 c 128,-1,14
 222 72 222 72 173 136 c 128,-1,15
 124 200 124 200 96.5 289 c 128,-1,16
 69 378 69 378 69 490 c 0,17,18
 69 599 69 599 98 691.5 c 128,-1,19
 127 784 127 784 182.5 851 c 128,-1,20
 238 918 238 918 319.5 955.5 c 128,-1,21
 401 993 401 993 507 993 c 0,22,23
 607 993 607 993 682 959.5 c 128,-1,24
 757 926 757 926 815 866 c 1,25,-1
 769 802 l 2,26,27
 761 791 761 791 753.5 785.5 c 128,-1,28
 746 780 746 780 732 780 c 0,29,30
 717 780 717 780 701 792 c 128,-1,31
 685 804 685 804 661 818.5 c 128,-1,32
 637 833 637 833 602.5 845 c 128,-1,33
 568 857 568 857 518 857 c 0,34,35
 452 857 452 857 401.5 831.5 c 128,-1,36
 351 806 351 806 317.5 758.5 c 128,-1,37
 284 711 284 711 266.5 643 c 128,-1,38
 249 575 249 575 249 490 c 0,39,40
 249 402 249 402 267.5 333.5 c 128,-1,41
 286 265 286 265 320 218 c 128,-1,42
 354 171 354 171 402 146.5 c 128,-1,43
 450 122 450 122 510 122 c 0,44,45
 568 122 568 122 605 137 c 128,-1,46
 642 152 642 152 667 170 c 128,-1,47
 692 188 692 188 708.5 203 c 128,-1,48
 725 218 725 218 743 218 c 0,49,50
 763 218 763 218 775 201 c 2,51,-1
 826 137 l 1,52,53
 772 69 772 69 696 33 c 128,-1,54
 620 -3 620 -3 535 -11 c 1,55,-1
 518 -72 l 1,56,57
 603 -90 603 -90 640 -124 c 128,-1,58
 677 -158 677 -158 677 -210 c 0,59,60
 677 -241 677 -241 662.5 -266 c 128,-1,61
 648 -291 648 -291 621 -308 c 128,-1,62
 594 -325 594 -325 557 -334.5 c 128,-1,63
 520 -344 520 -344 475 -344 c 0,64,65
 438 -344 438 -344 404 -336 c 128,-1,66
 370 -328 370 -328 341 -314 c 1,67,-1
 358 -260 l 2,68,69
 364 -243 364 -243 381 -243 c 0,0,1
EndSplineSet
Validated: 1
Substitution2: "sous-table 'smcp' Bas-de-casse vers petites capitales dans Latin lookup 0" ccedilla.smcp
LCarets2: 1 0
Ligature2: "sous-table 'ccmp' Composition et d+AOkA-composition de glyphe (CJK) lookups10" c uni0327
EndChar

StartChar: c_h.dlig
Encoding: 1114114 -1 51
Width: 1862
GlyphClass: 3
Flags: MW
LayerCount: 2
Fore
SplineSet
1058 1396 m 1,0,1
 1008 1420 1008 1420 950 1420 c 0,2,3
 837 1420 837 1420 773.5 1346.5 c 128,-1,4
 710 1273 710 1273 710 1182 c 0,5,6
 710 1007 710 1007 829 897 c 1,7,-1
 810 883 l 1,8,-1
 831 857 l 1,9,-1
 776 791 l 2,10,11
 762 773 762 773 745 773 c 128,-1,12
 728 773 728 773 714 785 c 0,13,14
 640 851 640 851 558 851 c 0,15,16
 408 851 408 851 312 717 c 0,17,18
 216 584 216 584 215 392 c 0,19,20
 215 198 215 198 338 142 c 0,21,22
 378 124 378 124 437.5 124 c 128,-1,23
 497 124 497 124 541.5 143 c 128,-1,24
 586 162 586 162 616.5 185 c 128,-1,25
 647 208 647 208 668.5 227 c 128,-1,26
 690 246 690 246 709.5 246 c 128,-1,27
 729 246 729 246 743 229 c 2,28,-1
 787 176 l 1,29,30
 646 21 646 21 502 -5 c 0,31,32
 452 -14 452 -14 380 -14 c 0,33,34
 226 -14 226 -14 132.5 96 c 128,-1,35
 39 206 39 206 39 388 c 0,36,37
 40 631 40 631 185 811.5 c 128,-1,38
 330 992 330 992 548 992 c 0,39,40
 612 992 612 992 666 975 c 1,41,42
 626 1060 626 1060 626 1144 c 0,43,44
 626 1304 626 1304 729 1406 c 0,45,46
 832 1509 832 1509 997 1509 c 2,47,-1
 1003 1509 l 2,48,49
 1114 1508 1114 1508 1245 1434 c 0,50,51
 1268 1421 1268 1421 1291 1421 c 2,52,-1
 1294 1421 l 1,53,-1
 1232 1388 l 1,54,-1
 1156 759 l 1,55,56
 1234 874 1234 874 1330 933 c 128,-1,57
 1426 992 1426 992 1508 992 c 0,58,59
 1657 992 1657 992 1719 895 c 0,60,61
 1765 823 1765 823 1765 706 c 0,62,63
 1765 667 1765 667 1760 623 c 2,64,-1
 1687 0 l 1,65,-1
 1512 0 l 1,66,-1
 1585 623 l 2,67,68
 1590 660 1590 660 1590 692 c 0,69,70
 1590 756 1590 756 1570 793 c 0,71,72
 1541 848 1541 848 1455.5 848 c 128,-1,73
 1370 848 1370 848 1276 756 c 128,-1,74
 1182 664 1182 664 1127 517 c 1,75,-1
 1065 0 l 1,76,-1
 890 0 l 1,77,-1
 1058 1396 l 1,0,1
EndSplineSet
Validated: 1
Ligature2: "sous-table 'dlig' Ligatures facultatives  dans Latin lookup 36" c h
EndChar

StartChar: c_k.dlig
Encoding: 1114115 -1 52
Width: 1740
GlyphClass: 3
Flags: MW
LayerCount: 2
Fore
SplineSet
1062 1386 m 1,0,1
 1018 1420 1018 1420 954 1420 c 0,2,3
 840 1420 840 1420 777 1345.5 c 128,-1,4
 714 1271 714 1271 713 1181 c 0,5,6
 713 1008 713 1008 826 897 c 1,7,-1
 813 887 l 1,8,-1
 838 857 l 1,9,-1
 783 791 l 2,10,11
 769 773 769 773 752 773 c 0,12,13
 736 773 736 773 722 785 c 0,14,15
 648 851 648 851 565 851 c 0,16,17
 415 851 415 851 318.5 717 c 128,-1,18
 222 583 222 583 222 390.5 c 128,-1,19
 222 198 222 198 344 142 c 0,20,21
 384 124 384 124 444 124 c 128,-1,22
 504 124 504 124 548.5 143 c 128,-1,23
 593 162 593 162 623.5 185 c 128,-1,24
 654 208 654 208 675.5 227 c 128,-1,25
 697 246 697 246 716.5 246 c 128,-1,26
 736 246 736 246 750 229 c 2,27,-1
 794 176 l 1,28,29
 652 21 652 21 508 -5 c 0,30,31
 458 -14 458 -14 386.5 -14 c 128,-1,32
 315 -14 315 -14 249 15.5 c 128,-1,33
 183 45 183 45 138 98 c 0,34,35
 46 206 46 206 46 388 c 0,36,37
 46 631 46 631 191 811.5 c 128,-1,38
 336 992 336 992 555 992 c 0,39,40
 617 992 617 992 667 977 c 1,41,42
 630 1062 630 1062 630 1144 c 0,43,44
 630 1306 630 1306 731.5 1407.5 c 128,-1,45
 833 1509 833 1509 998 1509 c 0,46,47
 1089 1508 1089 1508 1175 1464 c 0,48,49
 1207 1448 1207 1448 1232 1434.5 c 128,-1,50
 1257 1421 1257 1421 1280 1421 c 1,51,-1
 1237 1398 l 1,52,-1
 1137 586 l 1,53,-1
 1167 586 l 2,54,55
 1202 586 1202 586 1227 613 c 2,56,-1
 1548 944 l 2,57,58
 1580 978 1580 978 1616 978 c 2,59,-1
 1771 978 l 1,60,-1
 1397 594 l 2,61,62
 1365 560 1365 560 1336 543 c 1,63,64
 1361 526 1361 526 1387 483 c 2,65,-1
 1675 0 l 1,66,-1
 1525 0 l 2,67,68
 1485 0 1485 0 1465 33 c 2,69,-1
 1220 434 l 2,70,71
 1208 454 1208 454 1195.5 460.5 c 128,-1,72
 1183 467 1183 467 1156 467 c 2,73,-1
 1123 467 l 1,74,-1
 1066 0 l 1,75,-1
 893 0 l 1,76,-1
 1062 1386 l 1,0,1
EndSplineSet
Validated: 1
Ligature2: "sous-table 'dlig' Ligatures facultatives  dans Latin lookup 36" c k
EndChar

StartChar: c_t.dlig
Encoding: 1114116 -1 53
Width: 1521
GlyphClass: 3
Flags: MW
LayerCount: 2
Fore
SplineSet
1473 73 m 1,0,1
 1372 -15 1372 -15 1251 -15 c 0,2,3
 1037 -15 1037 -15 1037 180 c 0,4,5
 1037 205 1037 205 1041 234 c 2,6,-1
 1113 820 l 1,7,-1
 1005 820 l 2,8,9
 975 820 975 820 975 850 c 2,10,-1
 975 857 l 1,11,-1
 983 924 l 1,12,-1
 1133 943 l 1,13,-1
 1197 1161 l 2,14,15
 1216 1224 1216 1224 1216 1273 c 0,16,17
 1216 1327 1216 1327 1193 1364 c 0,18,19
 1150 1435 1150 1435 1032 1435 c 0,20,21
 914 1434 914 1434 820 1358 c 128,-1,22
 726 1282 726 1282 700 1169 c 0,23,24
 693 1136 693 1136 692 1105 c 0,25,26
 692 1027 692 1027 737 957 c 1,27,28
 805 923 805 923 856 857 c 1,29,-1
 801 791 l 2,30,31
 787 773 787 773 770 773 c 0,32,33
 754 773 754 773 740 785 c 0,34,35
 666 851 666 851 583 851 c 0,36,37
 433 851 433 851 336.5 717 c 128,-1,38
 240 583 240 583 240 390.5 c 128,-1,39
 240 198 240 198 362 142 c 0,40,41
 402 124 402 124 462 124 c 128,-1,42
 522 124 522 124 566.5 143 c 128,-1,43
 611 162 611 162 641.5 185 c 128,-1,44
 672 208 672 208 693.5 227 c 128,-1,45
 715 246 715 246 734.5 246 c 128,-1,46
 754 246 754 246 768 229 c 2,47,-1
 812 176 l 1,48,49
 670 21 670 21 526 -5 c 0,50,51
 476 -14 476 -14 404.5 -14 c 128,-1,52
 333 -14 333 -14 267 15.5 c 128,-1,53
 201 45 201 45 156 98 c 0,54,55
 64 206 64 206 64 388 c 0,56,57
 64 631 64 631 209 811.5 c 128,-1,58
 354 992 354 992 573 992 c 0,59,60
 600 992 600 992 626 989 c 1,61,62
 608 1040 608 1040 608 1093 c 0,63,64
 608 1156 608 1156 632 1222 c 0,65,66
 676 1346 676 1346 787 1427 c 128,-1,67
 898 1508 898 1508 1051 1508 c 128,-1,68
 1204 1508 1204 1508 1274 1418 c 0,69,70
 1332 1344 1332 1344 1332 1241 c 0,71,72
 1332 1219 1332 1219 1329 1196 c 2,73,-1
 1297 943 l 1,74,-1
 1556 943 l 1,75,-1
 1541 820 l 1,76,-1
 1282 820 l 1,77,-1
 1212 245 l 2,78,79
 1210 230 1210 230 1210 216 c 0,80,81
 1210 176 1210 176 1228 153 c 0,82,83
 1252 122 1252 122 1285.5 122 c 128,-1,84
 1319 122 1319 122 1337.5 129.5 c 128,-1,85
 1356 137 1356 137 1370 146.5 c 128,-1,86
 1384 156 1384 156 1394 163.5 c 128,-1,87
 1404 171 1404 171 1415 171 c 128,-1,88
 1426 171 1426 171 1434 154 c 2,89,-1
 1473 73 l 1,0,1
EndSplineSet
Validated: 1
Ligature2: "sous-table 'dlig' Ligatures facultatives  dans Latin lookup 36" c t
EndChar

StartChar: ccedilla_t.dlig
Encoding: 1114117 -1 54
Width: 1521
GlyphClass: 3
Flags: MW
LayerCount: 2
Fore
SplineSet
667 981 m 1,0,1
 635 1052 635 1052 635 1130 c 0,2,3
 635 1288 635 1288 740.5 1398 c 128,-1,4
 846 1508 846 1508 1014 1508 c 0,5,6
 1184 1508 1184 1508 1254 1418 c 0,7,8
 1312 1343 1312 1343 1312 1241 c 0,9,10
 1312 1219 1312 1219 1309 1196 c 2,11,-1
 1279 958 l 1,12,-1
 1542 958 l 1,13,-1
 1527 835 l 1,14,-1
 1264 835 l 1,15,-1
 1192 245 l 2,16,17
 1190 229 1190 229 1190 216 c 0,18,19
 1190 176 1190 176 1208 153 c 0,20,21
 1232 123 1232 123 1265.5 123 c 128,-1,22
 1299 123 1299 123 1318 130.5 c 128,-1,23
 1337 138 1337 138 1351 146 c 128,-1,24
 1365 154 1365 154 1375 162 c 128,-1,25
 1385 170 1385 170 1396 170 c 0,26,27
 1406 170 1406 170 1414 154 c 2,28,-1
 1456 73 l 1,29,30
 1355 -15 1355 -15 1232 -15 c 0,31,32
 1017 -15 1017 -15 1017 183 c 0,33,34
 1017 207 1017 207 1020 234 c 2,35,-1
 1094 835 l 1,36,-1
 986 835 l 2,37,38
 955 835 955 835 955 867 c 2,39,-1
 955 873 l 1,40,-1
 963 940 l 1,41,-1
 1121 960 l 1,42,43
 1182 1120 1182 1120 1192 1193 c 0,44,45
 1196 1221 1196 1221 1196 1247 c 2,46,-1
 1196 1257 l 2,47,48
 1196 1334 1196 1334 1165 1377 c 0,49,50
 1122 1436 1122 1436 1034 1436 c 0,51,52
 881 1436 881 1436 799.5 1350.5 c 128,-1,53
 718 1265 718 1265 718 1147 c 0,54,55
 718 1084 718 1084 746.5 1016 c 128,-1,56
 775 948 775 948 831 897 c 1,57,-1
 823 891 l 1,58,-1
 852 857 l 1,59,-1
 797 791 l 2,60,61
 782 773 782 773 766 773 c 128,-1,62
 750 773 750 773 736 785 c 0,63,64
 662 851 662 851 579 851 c 0,65,66
 429 851 429 851 332.5 717 c 128,-1,67
 236 583 236 583 236 390.5 c 128,-1,68
 236 198 236 198 358 142 c 0,69,70
 398 124 398 124 458 124 c 128,-1,71
 518 124 518 124 562.5 143 c 128,-1,72
 607 162 607 162 637.5 185 c 128,-1,73
 668 208 668 208 689.5 227 c 128,-1,74
 711 246 711 246 730 246 c 0,75,76
 750 246 750 246 764 229 c 2,77,-1
 808 176 l 1,78,79
 726 86 726 86 652 43 c 128,-1,80
 578 0 578 0 490 -10 c 1,81,-1
 467 -69 l 1,82,83
 602 -102 602 -102 602 -191 c 0,84,85
 602 -258 602 -258 543 -299 c 0,86,87
 485 -340 485 -340 403 -340 c 2,88,-1
 402 -340 l 2,89,90
 320 -340 320 -340 261 -308 c 1,91,-1
 284 -256 l 2,92,93
 291 -240 291 -240 303 -240 c 0,94,95
 314 -240 314 -240 321 -244 c 0,96,97
 337 -253 337 -253 343 -256 c 0,98,99
 368 -267 368 -267 389 -267 c 0,100,101
 421 -267 421 -267 447 -244 c 0,102,103
 468 -225 468 -225 468 -194.5 c 128,-1,104
 468 -164 468 -164 434 -150 c 128,-1,105
 400 -136 400 -136 336 -127 c 1,106,-1
 382 -13 l 1,107,108
 228 0 228 0 144 107 c 128,-1,109
 60 214 60 214 60 388 c 0,110,111
 60 631 60 631 205 811.5 c 128,-1,112
 350 992 350 992 569 992 c 0,113,114
 616 992 616 992 667 981 c 1,0,1
EndSplineSet
Validated: 1
Ligature2: "sous-table 'dlig' Ligatures facultatives  dans Latin lookup 36" ccedilla t
EndChar

StartChar: d
Encoding: 100 100 55
Width: 1053
GlyphClass: 2
Flags: W
AnchorPoint: "Ancre-5" 1056 1492 basechar 0
AnchorPoint: "Ancre-3" 1056 -510 basechar 0
AnchorPoint: "Ancre-2" 1056 1515 basechar 0
AnchorPoint: "Ancre-1" 337 0 basechar 0
AnchorPoint: "Ancre-0" 675 1492 basechar 0
LayerCount: 2
Fore
SplineSet
543 992 m 0,0,1
 695 992 695 992 785 883 c 1,2,-1
 852 1422 l 1,3,-1
 1024 1422 l 1,4,-1
 849 0 l 1,5,-1
 757 0 l 2,6,7
 700 0 700 0 700 51 c 2,8,-1
 700 60 l 1,9,-1
 718 268 l 1,10,11
 598 66 598 66 437 6 c 0,12,13
 383 -14 383 -14 327 -14 c 0,14,15
 198 -14 198 -14 125 78 c 128,-1,16
 52 170 52 170 52 346 c 0,17,18
 52 594 52 594 192 788 c 0,19,20
 284 914 284 914 410 966 c 0,21,22
 474 992 474 992 543 992 c 0,0,1
770 762 m 1,23,24
 701 857 701 857 569 857 c 2,25,-1
 566 857 l 2,26,27
 467 857 467 857 386 780 c 0,28,29
 273 675 273 675 237 479 c 0,30,31
 226 420 226 420 226 363 c 0,32,33
 226 248 226 248 269.5 187 c 128,-1,34
 313 126 313 126 401 126 c 128,-1,35
 489 126 489 126 585 235 c 128,-1,36
 681 344 681 344 740 514 c 1,37,-1
 770 762 l 1,23,24
EndSplineSet
Validated: 1
Substitution2: "sous-table 'smcp' Bas-de-casse vers petites capitales dans Latin lookup 0" d.smcp
Substitution2: "sous-table 'ordn' Ordinaux dans Latin lookup 39" d.superior
Substitution2: "sous-table 'sups' Exposant lookups25" d.superior
EndChar

StartChar: dcroat
Encoding: 273 273 57
Width: 1128
GlyphClass: 2
Flags: MW
AnchorPoint: "Ancre-0" 527 1492 basechar 0
AnchorPoint: "Ancre-1" 369 0 basechar 0
AnchorPoint: "Ancre-2" 1217 1515 basechar 0
AnchorPoint: "Ancre-3" 1217 -510 basechar 0
AnchorPoint: "Ancre-5" 1217 1492 basechar 0
LayerCount: 2
Fore
SplineSet
585 972 m 0,0,1
 756 972 756 972 856 860 c 1,2,-1
 886 1103 l 1,3,-1
 706 1103 l 2,4,5
 649 1103 649 1103 649 1149 c 0,6,7
 649 1157 649 1157 650 1166 c 2,8,-1
 657 1211 l 1,9,-1
 899 1211 l 1,10,-1
 925 1422 l 1,11,-1
 1097 1422 l 1,12,-1
 1071 1211 l 1,13,-1
 1217 1211 l 1,14,-1
 1207 1103 l 1,15,-1
 1057 1103 l 1,16,-1
 922 0 l 1,17,-1
 831 0 l 2,18,19
 773 0 773 0 773 52 c 2,20,-1
 773 60 l 1,21,-1
 794 281 l 1,22,23
 659 69 659 69 483 7 c 0,24,25
 423 -14 423 -14 360 -14 c 0,26,27
 215 -14 215 -14 135.5 79.5 c 128,-1,28
 56 173 56 173 56 352 c 0,29,30
 56 596 56 596 206 780 c 0,31,32
 363 972 363 972 585 972 c 0,0,1
842 743 m 1,33,34
 760 836 760 836 602 836 c 128,-1,35
 444 836 444 836 337 692 c 128,-1,36
 230 548 230 548 229 368 c 0,37,38
 229 250 229 250 279 188 c 128,-1,39
 329 126 329 126 430.5 126 c 128,-1,40
 532 126 532 126 640 236 c 128,-1,41
 748 346 748 346 814 520 c 1,42,-1
 842 743 l 1,33,34
EndSplineSet
Validated: 1
Substitution2: "sous-table 'smcp' Bas-de-casse vers petites capitales dans Latin lookup 0" dcroat.smcp
EndChar

StartChar: eth
Encoding: 240 240 58
Width: 1076
GlyphClass: 2
Flags: W
LayerCount: 2
Fore
SplineSet
402 1028 m 2,0,1
 391 1046 391 1046 395 1062 c 128,-1,2
 399 1078 399 1078 416 1090 c 2,3,-1
 515 1157 l 1,4,5
 472 1177 472 1177 424 1192.5 c 128,-1,6
 376 1208 376 1208 322 1222 c 0,7,8
 299 1227 299 1227 285.5 1248.5 c 128,-1,9
 272 1270 272 1270 284 1305 c 2,10,-1
 305 1366 l 1,11,12
 398 1351 398 1351 485 1322 c 128,-1,13
 572 1293 572 1293 650 1246 c 1,14,-1
 811 1363 l 1,15,-1
 846 1307 l 2,16,17
 857 1290 857 1290 852.5 1274 c 128,-1,18
 848 1258 848 1258 832 1247 c 2,19,-1
 739 1184 l 1,20,21
 797 1137 797 1137 844.5 1076.5 c 128,-1,22
 892 1016 892 1016 926 941.5 c 128,-1,23
 960 867 960 867 978.5 777.5 c 128,-1,24
 997 688 997 688 997 583 c 0,25,26
 997 445 997 445 967 334.5 c 128,-1,27
 937 224 937 224 877.5 147 c 128,-1,28
 818 70 818 70 729.5 28.5 c 128,-1,29
 641 -13 641 -13 525 -13 c 0,30,31
 430 -13 430 -13 348 18.5 c 128,-1,32
 266 50 266 50 205 110 c 128,-1,33
 144 170 144 170 109.5 256 c 128,-1,34
 75 342 75 342 75 450 c 0,35,36
 75 540 75 540 105 621 c 128,-1,37
 135 702 135 702 191 763 c 128,-1,38
 247 824 247 824 327 859.5 c 128,-1,39
 407 895 407 895 507 895 c 0,40,41
 604 895 604 895 688.5 854 c 128,-1,42
 773 813 773 813 835 731 c 1,43,44
 815 861 815 861 760 951 c 128,-1,45
 705 1041 705 1041 613 1103 c 1,46,-1
 436 973 l 1,47,-1
 402 1028 l 2,0,1
529 123 m 0,48,49
 665 123 665 123 745.5 226.5 c 128,-1,50
 826 330 826 330 832 542 c 1,51,52
 817 584 817 584 792 623 c 128,-1,53
 767 662 767 662 731 692.5 c 128,-1,54
 695 723 695 723 648 741 c 128,-1,55
 601 759 601 759 541 759 c 0,56,57
 469 759 469 759 415 735 c 128,-1,58
 361 711 361 711 324 669 c 128,-1,59
 287 627 287 627 268.5 570.5 c 128,-1,60
 250 514 250 514 250 449 c 0,61,62
 250 371 250 371 272 310 c 128,-1,63
 294 249 294 249 332 207.5 c 128,-1,64
 370 166 370 166 421 144.5 c 128,-1,65
 472 123 472 123 529 123 c 0,48,49
EndSplineSet
Validated: 1
Substitution2: "sous-table 'smcp' Bas-de-casse vers petites capitales dans Latin lookup 0" eth.smcp
EndChar

StartChar: e
Encoding: 101 101 59
Width: 978
GlyphClass: 2
Flags: W
AnchorPoint: "Ancre-5" 998 1073 basechar 0
AnchorPoint: "Ancre-4" 843 698 basechar 0
AnchorPoint: "Ancre-3" 998 -510 basechar 0
AnchorPoint: "Ancre-2" 998 1466 basechar 0
AnchorPoint: "Ancre-1" 506 0 basechar 0
AnchorPoint: "Ancre-0" 631 1073 basechar 0
LayerCount: 2
Fore
SplineSet
230 395 m 2,0,1
 230 124 230 124 490 124 c 0,2,3
 637 124 637 124 776 231 c 0,4,5
 802 251 802 251 824 251 c 128,-1,6
 846 251 846 251 861 234 c 2,7,-1
 905 181 l 1,8,9
 794 77 794 77 718 43 c 0,10,11
 590 -14 590 -14 478 -14 c 0,12,13
 272 -14 272 -14 166 96 c 0,14,15
 59 207 59 207 59 394 c 0,16,17
 59 629 59 629 211 810 c 128,-1,18
 363 991 363 991 606 991 c 2,19,-1
 609 991 l 2,20,21
 760 991 760 991 841 921 c 128,-1,22
 922 851 922 851 922 775.5 c 128,-1,23
 922 700 922 700 893 647 c 0,24,25
 801 478 801 478 231 428 c 1,26,27
 230 420 230 420 230 412 c 2,28,-1
 230 395 l 2,0,1
765 756 m 0,29,30
 764 827 764 827 676 856 c 0,31,32
 644 866 644 866 588 866 c 0,33,34
 464 866 464 866 372 775 c 128,-1,35
 280 684 280 684 247 544 c 1,36,37
 718 594 718 594 758 715 c 0,38,39
 765 736 765 736 765 756 c 0,29,30
EndSplineSet
Validated: 1
Substitution2: "sous-table 'smcp' Bas-de-casse vers petites capitales dans Latin lookup 0" e.smcp
Substitution2: "sous-table 'ordn' Ordinaux dans Latin lookup 39" e.superior
Substitution2: "sous-table 'sups' Exposant lookups25" e.superior
EndChar

StartChar: eogonek
Encoding: 281 281 60
Width: 978
GlyphClass: 2
Flags: MW
AnchorPoint: "Ancre-5" 1019 1122 basechar 0
AnchorPoint: "Ancre-4" 824 700 basechar 0
AnchorPoint: "Ancre-3" 1019 -510 basechar 0
AnchorPoint: "Ancre-2" 1019 1515 basechar 0
AnchorPoint: "Ancre-1" 485 -320 basechar 0
AnchorPoint: "Ancre-0" 536 1122 basechar 0
LayerCount: 2
Fore
SplineSet
230 395 m 2,0,1
 230 124 230 124 490 124 c 0,2,3
 637 124 637 124 776 231 c 0,4,5
 802 251 802 251 824 251 c 128,-1,6
 846 251 846 251 861 234 c 2,7,-1
 905 181 l 1,8,9
 750 36 750 36 607 2 c 1,10,-1
 626 0 l 1,11,12
 546 -44 546 -44 516 -108 c 0,13,14
 504 -132 504 -132 504 -161.5 c 128,-1,15
 504 -191 504 -191 522.5 -209.5 c 128,-1,16
 541 -228 541 -228 566.5 -228 c 128,-1,17
 592 -228 592 -228 606 -224.5 c 128,-1,18
 620 -221 620 -221 629 -216.5 c 128,-1,19
 638 -212 638 -212 643.5 -208.5 c 128,-1,20
 649 -205 649 -205 653 -205 c 0,21,22
 667 -205 667 -205 670 -217 c 2,23,-1
 688 -280 l 1,24,25
 620 -330 620 -330 536 -330 c 128,-1,26
 452 -330 452 -330 412 -296.5 c 128,-1,27
 372 -263 372 -263 372 -207 c 0,28,29
 372 -98 372 -98 499 -13 c 1,30,-1
 458 -14 l 1,31,32
 272 -14 272 -14 166 96 c 0,33,34
 59 207 59 207 59 394 c 0,35,36
 59 629 59 629 211 810 c 128,-1,37
 363 991 363 991 606 991 c 2,38,-1
 609 991 l 2,39,40
 760 991 760 991 841 921 c 128,-1,41
 922 851 922 851 922 775.5 c 128,-1,42
 922 700 922 700 893 647 c 0,43,44
 801 478 801 478 231 428 c 1,45,46
 230 420 230 420 230 412 c 2,47,-1
 230 395 l 2,0,1
765 756 m 0,48,49
 764 827 764 827 676 856 c 0,50,51
 644 866 644 866 588 866 c 0,52,53
 464 866 464 866 372 775 c 128,-1,54
 280 684 280 684 247 544 c 1,55,56
 718 594 718 594 758 715 c 0,57,58
 765 736 765 736 765 756 c 0,48,49
EndSplineSet
Validated: 1
Substitution2: "sous-table 'smcp' Bas-de-casse vers petites capitales dans Latin lookup 0" eogonek.smcp
LCarets2: 1 0
Ligature2: "sous-table 'ccmp' Composition et d+AOkA-composition de glyphe (CJK) lookups10" e uni0328
EndChar

StartChar: f
Encoding: 102 102 61
Width: 625
GlyphClass: 2
Flags: W
HStem: 833 127<65 201 383 633> 1275 129<481.601 689.765>
VStem: 58 669
DStem2: 70 -240 242.603 -240 0.121869 0.992546<36.5618 1078.98 1229.2 1494.35>
AnchorPoint: "Ancre-1" 344 -123 basechar 0
AnchorPoint: "Ancre-3" 786 -510 basechar 0
AnchorPoint: "Ancre-0" 586 1538 basechar 0
AnchorPoint: "Ancre-2" 786 1515 basechar 0
AnchorPoint: "Ancre-5" 786 1538 basechar 0
LayerCount: 2
Fore
SplineSet
373 833 m 1,0,-1
 276 32 l 1,1,-1
 227 -166 l 2,2,3
 211 -240 211 -240 140 -240 c 2,4,-1
 70 -240 l 1,5,-1
 201 831 l 1,6,-1
 96 845 l 2,7,8
 58 849 58 849 58 882 c 2,9,-1
 58 889 l 1,10,-1
 65 960 l 1,11,-1
 216 960 l 1,12,-1
 228 1053 l 2,13,14
 248 1218 248 1218 352.5 1311 c 128,-1,15
 457 1404 457 1404 611 1404 c 0,16,17
 672 1404 672 1404 727 1385 c 1,18,-1
 711 1294 l 2,19,20
 708 1277 708 1277 690 1276 c 0,21,22
 683 1275 683 1275 610 1275 c 0,23,24
 529 1275 529 1275 469 1220.5 c 128,-1,25
 409 1166 409 1166 395 1048 c 2,26,-1
 383 960 l 1,27,-1
 649 960 l 1,28,-1
 633 833 l 1,29,-1
 373 833 l 1,0,-1
EndSplineSet
Validated: 1
Substitution2: "sous-table 'smcp' Bas-de-casse vers petites capitales dans Latin lookup 0" f.smcp
Substitution2: "sous-table 'ordn' Ordinaux dans Latin lookup 39" f.superior
Substitution2: "sous-table 'sups' Exposant lookups25" f.superior
EndChar

StartChar: f_b.liga
Encoding: 1114118 -1 62
Width: 1668
GlyphClass: 3
Flags: MW
LayerCount: 2
Fore
SplineSet
1135 -14 m 0,0,1
 969 -14 969 -14 879 114 c 1,2,-1
 864 51 l 2,3,4
 859 25 859 25 846.5 12.5 c 128,-1,5
 834 0 834 0 804 0 c 2,6,-1
 711 0 l 1,7,-1
 869 1310 l 1,8,9
 792 1329 792 1329 730 1329 c 0,10,11
 606 1329 606 1329 527.5 1249 c 128,-1,12
 449 1169 449 1169 434 1038 c 2,13,-1
 424 958 l 1,14,-1
 692 958 l 1,15,-1
 677 835 l 1,16,-1
 415 835 l 1,17,-1
 312 0 l 1,18,-1
 142 0 l 1,19,-1
 244 833 l 1,20,-1
 144 846 l 2,21,22
 103 852 103 852 103 883 c 2,23,-1
 103 889 l 1,24,-1
 111 958 l 1,25,-1
 259 958 l 1,26,-1
 269 1038 l 2,27,28
 304 1326 304 1326 552 1411 c 0,29,30
 640 1441 640 1441 716.5 1441 c 128,-1,31
 793 1441 793 1441 824.5 1438.5 c 128,-1,32
 856 1436 856 1436 887.5 1433 c 128,-1,33
 919 1430 919 1430 952.5 1426.5 c 128,-1,34
 986 1423 986 1423 1024 1422 c 2,35,-1
 1055 1422 l 1,36,-1
 1055 1421 l 1,37,-1
 1081 1421 l 1,38,-1
 1052 1400 l 1,39,-1
 970 729 l 1,40,41
 1137 992 1137 992 1351 992 c 0,42,43
 1480 992 1480 992 1553 900 c 128,-1,44
 1626 808 1626 808 1626 633 c 0,45,46
 1626 387 1626 387 1486 190 c 0,47,48
 1396 64 1396 64 1269 12 c 0,49,50
 1205 -14 1205 -14 1135 -14 c 0,0,1
907 216 m 1,51,52
 977 122 977 122 1118.5 122 c 128,-1,53
 1260 122 1260 122 1356 277.5 c 128,-1,54
 1452 433 1452 433 1452 617 c 0,55,56
 1452 732 1452 732 1409 792 c 128,-1,57
 1366 852 1366 852 1277 852 c 128,-1,58
 1188 852 1188 852 1092.5 743.5 c 128,-1,59
 997 635 997 635 938 465 c 1,60,-1
 907 216 l 1,51,52
EndSplineSet
Validated: 1
Ligature2: "sous-table 'liga' Ligatures standard dans Latin lookup 37" f b
EndChar

StartChar: f_f_b.liga
Encoding: 1114119 -1 63
Width: 2238
GlyphClass: 3
Flags: MW
LayerCount: 2
Fore
SplineSet
1442 1311 m 1,0,1
 1370 1329 1370 1329 1307 1329 c 0,2,3
 1185 1329 1185 1329 1107.5 1250.5 c 128,-1,4
 1030 1172 1030 1172 1013 1038 c 2,5,-1
 1003 958 l 1,6,-1
 1269 958 l 1,7,-1
 1254 835 l 1,8,-1
 994 835 l 1,9,-1
 891 0 l 1,10,-1
 721 0 l 1,11,-1
 824 835 l 1,12,-1
 414 835 l 1,13,-1
 311 0 l 1,14,-1
 141 0 l 1,15,-1
 243 833 l 1,16,-1
 144 846 l 2,17,18
 103 852 103 852 103 883 c 2,19,-1
 103 889 l 1,20,-1
 111 958 l 1,21,-1
 259 958 l 1,22,-1
 269 1039 l 2,23,24
 289 1204 289 1204 386 1296 c 128,-1,25
 483 1388 483 1388 633 1388 c 0,26,27
 692 1388 692 1388 747 1369 c 1,28,-1
 732 1284 l 2,29,30
 728 1261 728 1261 706 1260 c 0,31,32
 684 1258 684 1258 644 1258 c 0,33,34
 460 1258 460 1258 432 1034 c 2,35,-1
 422 958 l 1,36,-1
 839 958 l 1,37,-1
 849 1038 l 2,38,39
 886 1326 886 1326 1132 1411 c 0,40,41
 1218 1441 1218 1441 1294.5 1441 c 128,-1,42
 1371 1441 1371 1441 1402.5 1438.5 c 128,-1,43
 1434 1436 1434 1436 1465.5 1433 c 128,-1,44
 1497 1430 1497 1430 1529.5 1426.5 c 128,-1,45
 1562 1423 1562 1423 1600 1422 c 2,46,-1
 1628 1422 l 1,47,-1
 1628 1421 l 1,48,-1
 1656 1421 l 1,49,-1
 1625 1399 l 1,50,-1
 1543 729 l 1,51,52
 1710 992 1710 992 1924 992 c 0,53,54
 2053 992 2053 992 2126 900 c 128,-1,55
 2199 808 2199 808 2199 633 c 0,56,57
 2199 387 2199 387 2059 190 c 0,58,59
 1969 64 1969 64 1842 12 c 0,60,61
 1778 -14 1778 -14 1708 -14 c 0,62,63
 1542 -14 1542 -14 1452 114 c 1,64,-1
 1437 51 l 2,65,66
 1432 25 1432 25 1419.5 12.5 c 128,-1,67
 1407 0 1407 0 1377 0 c 2,68,-1
 1284 0 l 1,69,-1
 1442 1311 l 1,0,1
1480 216 m 1,70,71
 1550 122 1550 122 1691 122 c 128,-1,72
 1832 122 1832 122 1928 277.5 c 128,-1,73
 2024 433 2024 433 2025 617 c 0,74,75
 2025 732 2025 732 1982 792 c 128,-1,76
 1939 852 1939 852 1849.5 852 c 128,-1,77
 1760 852 1760 852 1664.5 743.5 c 128,-1,78
 1569 635 1569 635 1511 465 c 1,79,-1
 1480 216 l 1,70,71
EndSplineSet
Validated: 1
Ligature2: "sous-table 'liga' Ligatures standard dans Latin lookup 37" f f b
EndChar

StartChar: uniFB00
Encoding: 64256 64256 64
Width: 1195
GlyphClass: 3
Flags: MW
LayerCount: 2
Fore
SplineSet
139 0 m 1,0,-1
 241 834 l 1,1,-1
 143 846 l 2,2,3
 103 852 103 852 103 883 c 2,4,-1
 103 889 l 1,5,-1
 111 958 l 1,6,-1
 257 958 l 1,7,-1
 267 1039 l 2,8,9
 287 1204 287 1204 384 1296 c 128,-1,10
 481 1388 481 1388 631 1388 c 0,11,12
 688 1388 688 1388 743 1369 c 1,13,-1
 728 1284 l 2,14,15
 724 1261 724 1261 702 1259.5 c 128,-1,16
 680 1258 680 1258 640 1258 c 0,17,18
 457 1258 457 1258 430 1034 c 2,19,-1
 420 958 l 1,20,-1
 834 958 l 1,21,-1
 847 1064 l 2,22,23
 867 1228 867 1228 964.5 1321 c 128,-1,24
 1062 1414 1062 1414 1210 1414 c 0,25,26
 1269 1414 1269 1414 1322 1394 c 1,27,-1
 1307 1309 l 2,28,29
 1304 1286 1304 1286 1282 1284 c 0,30,31
 1260 1283 1260 1283 1220 1283 c 0,32,33
 1039 1283 1039 1283 1011 1058 c 2,34,-1
 998 958 l 1,35,-1
 1261 958 l 1,36,-1
 1247 835 l 1,37,-1
 989 835 l 1,38,-1
 886 0 l 1,39,-1
 716 0 l 1,40,-1
 819 835 l 1,41,-1
 412 835 l 1,42,-1
 309 0 l 1,43,-1
 139 0 l 1,0,-1
EndSplineSet
Validated: 1
Ligature2: "sous-table 'liga' Ligatures standard dans Latin lookup 37" f f
EndChar

StartChar: f_h.liga
Encoding: 1114120 -1 65
Width: 1667
GlyphClass: 3
Flags: MW
LayerCount: 2
Fore
SplineSet
856 1313 m 1,0,1
 796 1329 796 1329 732 1329 c 0,2,3
 605 1329 605 1329 526 1249 c 128,-1,4
 447 1169 447 1169 433 1038 c 2,5,-1
 423 958 l 1,6,-1
 691 958 l 1,7,-1
 676 835 l 1,8,-1
 414 835 l 1,9,-1
 311 0 l 1,10,-1
 141 0 l 1,11,-1
 243 834 l 1,12,-1
 144 846 l 2,13,14
 103 852 103 852 103 883 c 2,15,-1
 103 889 l 1,16,-1
 111 958 l 1,17,-1
 258 958 l 1,18,-1
 268 1038 l 2,19,20
 304 1326 304 1326 552 1411 c 0,21,22
 640 1441 640 1441 716 1441 c 128,-1,23
 792 1441 792 1441 823.5 1438.5 c 128,-1,24
 855 1436 855 1436 886.5 1433 c 128,-1,25
 918 1430 918 1430 951 1426.5 c 128,-1,26
 984 1423 984 1423 1022 1422 c 2,27,-1
 1044 1422 l 1,28,-1
 1044 1421 l 1,29,-1
 1079 1421 l 1,30,-1
 1040 1394 l 1,31,-1
 964 759 l 1,32,33
 1042 874 1042 874 1138 933 c 128,-1,34
 1234 992 1234 992 1316 992 c 0,35,36
 1465 992 1465 992 1527 895 c 0,37,38
 1573 823 1573 823 1573 706 c 0,39,40
 1573 667 1573 667 1568 623 c 2,41,-1
 1495 0 l 1,42,-1
 1320 0 l 1,43,-1
 1393 623 l 2,44,45
 1398 660 1398 660 1398 692 c 0,46,47
 1398 756 1398 756 1378 793 c 0,48,49
 1349 848 1349 848 1263.5 848 c 128,-1,50
 1178 848 1178 848 1084 756 c 128,-1,51
 990 664 990 664 935 517 c 1,52,-1
 873 0 l 1,53,-1
 698 0 l 1,54,-1
 856 1313 l 1,0,1
EndSplineSet
Validated: 1
Ligature2: "sous-table 'liga' Ligatures standard dans Latin lookup 37" f h
EndChar

StartChar: f_f_h.liga
Encoding: 1114121 -1 66
Width: 2237
GlyphClass: 3
Flags: MW
LayerCount: 2
Fore
SplineSet
1441 1311 m 1,0,1
 1368 1329 1368 1329 1306 1329 c 0,2,3
 1184 1329 1184 1329 1106.5 1249.5 c 128,-1,4
 1029 1170 1029 1170 1012 1038 c 2,5,-1
 1002 958 l 1,6,-1
 1268 958 l 1,7,-1
 1254 835 l 1,8,-1
 993 835 l 1,9,-1
 890 0 l 1,10,-1
 720 0 l 1,11,-1
 823 835 l 1,12,-1
 414 835 l 1,13,-1
 311 0 l 1,14,-1
 140 0 l 1,15,-1
 243 833 l 1,16,-1
 144 846 l 2,17,18
 103 852 103 852 103 883 c 2,19,-1
 103 889 l 1,20,-1
 111 958 l 1,21,-1
 259 958 l 1,22,-1
 269 1039 l 2,23,24
 289 1204 289 1204 386 1296 c 128,-1,25
 483 1388 483 1388 633 1388 c 0,26,27
 692 1388 692 1388 747 1369 c 1,28,-1
 732 1284 l 2,29,30
 728 1261 728 1261 706 1260 c 0,31,32
 684 1258 684 1258 644 1258 c 0,33,34
 460 1258 460 1258 432 1034 c 1,35,-1
 421 958 l 1,36,-1
 838 958 l 1,37,-1
 848 1038 l 2,38,39
 884 1326 884 1326 1131 1411 c 0,40,41
 1218 1441 1218 1441 1294.5 1441 c 128,-1,42
 1371 1441 1371 1441 1402.5 1438.5 c 128,-1,43
 1434 1436 1434 1436 1465.5 1433 c 128,-1,44
 1497 1430 1497 1430 1529.5 1426.5 c 128,-1,45
 1562 1423 1562 1423 1599 1422 c 2,46,-1
 1630 1422 l 1,47,-1
 1630 1421 l 1,48,-1
 1655 1421 l 1,49,-1
 1627 1401 l 1,50,-1
 1550 759 l 1,51,52
 1628 874 1628 874 1724 933 c 128,-1,53
 1820 992 1820 992 1902 992 c 0,54,55
 2051 992 2051 992 2113 895 c 0,56,57
 2159 823 2159 823 2159 706 c 0,58,59
 2159 667 2159 667 2154 623 c 2,60,-1
 2081 0 l 1,61,-1
 1906 0 l 1,62,-1
 1979 623 l 2,63,64
 1984 660 1984 660 1984 692 c 0,65,66
 1984 756 1984 756 1964 793 c 0,67,68
 1935 848 1935 848 1849.5 848 c 128,-1,69
 1764 848 1764 848 1670 756 c 128,-1,70
 1576 664 1576 664 1521 517 c 1,71,-1
 1459 0 l 1,72,-1
 1284 0 l 1,73,-1
 1441 1311 l 1,0,1
EndSplineSet
Validated: 1
Ligature2: "sous-table 'liga' Ligatures standard dans Latin lookup 37" f f h
EndChar

StartChar: uniFB01
Encoding: 64257 64257 67
Width: 1084
GlyphClass: 3
Flags: MW
LayerCount: 2
Fore
SplineSet
965 960 m 1,0,-1
 847 0 l 1,1,-1
 676 0 l 1,2,-1
 777 832 l 1,3,-1
 373 832 l 1,4,-1
 275 31 l 1,5,-1
 226 -167 l 2,6,7
 210 -241 210 -241 139 -241 c 2,8,-1
 70 -241 l 1,9,-1
 201 830 l 1,10,-1
 98 843 l 2,11,12
 57 849 57 849 57 880 c 2,13,-1
 57 886 l 1,14,-1
 64 960 l 1,15,-1
 217 960 l 1,16,-1
 224 1012 l 2,17,18
 259 1298 259 1298 517 1386 c 0,19,20
 604 1416 604 1416 707 1416 c 128,-1,21
 810 1416 810 1416 859 1397 c 1,22,-1
 843 1309 l 2,23,24
 839 1290 839 1290 796 1290 c 2,25,-1
 784 1290 l 2,26,27
 767 1291 767 1291 745 1291 c 0,28,29
 576 1291 576 1291 491.5 1222 c 128,-1,30
 407 1153 407 1153 388 1009 c 2,31,-1
 382 960 l 1,32,-1
 965 960 l 1,0,-1
EndSplineSet
Validated: 1
Ligature2: "sous-table 'liga' Ligatures standard dans Latin lookup 37" f i
EndChar

StartChar: f_igrave.liga
Encoding: 1114122 -1 68
Width: 1084
GlyphClass: 3
Flags: MW
LayerCount: 2
Fore
SplineSet
570 1390 m 0,0,1
 662 1420 662 1420 750 1420 c 128,-1,2
 838 1420 838 1420 868 1402.5 c 128,-1,3
 898 1385 898 1385 911 1356 c 2,4,-1
 1023 1123 l 1,5,-1
 926 1123 l 2,6,7
 891 1123 891 1123 871 1149 c 2,8,-1
 759 1294 l 1,9,10
 609 1289 609 1289 530 1218.5 c 128,-1,11
 451 1148 451 1148 434 1008 c 2,12,-1
 428 958 l 1,13,-1
 1010 958 l 1,14,-1
 892 0 l 1,15,-1
 722 0 l 1,16,-1
 824 835 l 1,17,-1
 419 835 l 1,18,-1
 316 0 l 1,19,-1
 146 0 l 1,20,-1
 248 833 l 1,21,-1
 144 846 l 2,22,23
 103 852 103 852 103 883 c 2,24,-1
 103 889 l 1,25,-1
 112 958 l 1,26,-1
 263 958 l 1,27,-1
 270 1013 l 2,28,29
 305 1303 305 1303 570 1390 c 0,0,1
EndSplineSet
Validated: 1
LCarets2: 1 0
Ligature2: "sous-table 'liga' Ligatures standard dans Latin lookup 37" f igrave
EndChar

StartChar: f_icircumflex.liga
Encoding: 1114123 -1 69
Width: 1084
GlyphClass: 3
Flags: MW
LayerCount: 2
Fore
SplineSet
146 0 m 1,0,-1
 248 833 l 1,1,-1
 144 846 l 2,2,3
 103 852 103 852 103 883 c 2,4,-1
 103 889 l 1,5,-1
 112 958 l 1,6,-1
 263 958 l 1,7,-1
 279 1087 l 2,8,9
 299 1247 299 1247 381.5 1329 c 128,-1,10
 464 1411 464 1411 593 1411 c 0,11,12
 638 1411 638 1411 667 1402 c 1,13,-1
 657 1309 l 2,14,15
 654 1286 654 1286 594 1286 c 0,16,17
 469 1286 469 1286 444 1088 c 2,18,-1
 428 958 l 1,19,-1
 1010 958 l 1,20,-1
 893 0 l 1,21,-1
 722 0 l 1,22,-1
 824 835 l 1,23,-1
 419 835 l 1,24,-1
 316 0 l 1,25,-1
 146 0 l 1,0,-1
1201 1128 m 1,26,-1
 1089 1128 l 2,27,28
 1066 1128 1066 1128 1054 1142 c 2,29,-1
 958 1263 l 2,30,31
 951 1270 951 1270 945 1279 c 1,32,-1
 802 1142 l 2,33,34
 785 1128 785 1128 763 1128 c 2,35,-1
 645 1128 l 1,36,-1
 876 1382 l 1,37,-1
 1034 1382 l 1,38,-1
 1201 1128 l 1,26,-1
EndSplineSet
Validated: 1
Ligature2: "sous-table 'liga' Ligatures standard dans Latin lookup 37" f icircumflex
EndChar

StartChar: f_itilde.liga
Encoding: 1114124 -1 70
Width: 1103
GlyphClass: 3
Flags: MW
LayerCount: 2
Fore
SplineSet
1007 1295 m 1,0,1
 1032 1277 1032 1277 1053 1277 c 0,2,3
 1116 1277 1116 1277 1129 1361 c 1,4,-1
 1232 1361 l 1,5,6
 1222 1272 1222 1272 1170 1214.5 c 128,-1,7
 1118 1157 1118 1157 1059 1157 c 128,-1,8
 1000 1157 1000 1157 959.5 1187.5 c 128,-1,9
 919 1218 919 1218 899.5 1232 c 128,-1,10
 880 1246 880 1246 860 1246 c 2,11,-1
 858 1246 l 1,12,13
 813 1198 813 1198 800 1088 c 2,14,-1
 784 958 l 1,15,-1
 1366 958 l 1,16,-1
 1249 0 l 1,17,-1
 1078 0 l 1,18,-1
 1180 835 l 1,19,-1
 775 835 l 1,20,-1
 672 0 l 1,21,-1
 502 0 l 1,22,-1
 604 833 l 1,23,-1
 500 846 l 2,24,25
 459 852 459 852 459 883 c 2,26,-1
 459 889 l 1,27,-1
 468 958 l 1,28,-1
 619 958 l 1,29,-1
 635 1087 l 2,30,31
 655 1247 655 1247 737.5 1329 c 128,-1,32
 820 1411 820 1411 949 1411 c 0,33,34
 994 1411 994 1411 1023 1402 c 1,35,-1
 1013 1309 l 2,36,37
 1012 1301 1012 1301 1007 1295 c 1,0,1
EndSplineSet
Validated: 1
Ligature2: "sous-table 'liga' Ligatures standard dans Latin lookup 37" f itilde
EndChar

StartChar: f_idieresis.liga
Encoding: 1114125 -1 71
Width: 1103
GlyphClass: 3
Flags: MW
LayerCount: 2
Fore
SplineSet
710 1316 m 1,0,1
 747 1353 747 1353 791.5 1353 c 128,-1,2
 836 1353 836 1353 863.5 1324.5 c 128,-1,3
 891 1296 891 1296 891 1263 c 0,4,5
 891 1208 891 1208 854.5 1173.5 c 128,-1,6
 818 1139 818 1139 773.5 1139 c 128,-1,7
 729 1139 729 1139 701.5 1166.5 c 128,-1,8
 674 1194 674 1194 674 1228.5 c 128,-1,9
 674 1263 674 1263 688 1288 c 1,10,11
 681 1286 681 1286 673 1286 c 2,12,-1
 654 1286 l 2,13,14
 586 1286 586 1286 547.5 1239.5 c 128,-1,15
 509 1193 509 1193 496 1088 c 2,16,-1
 480 958 l 1,17,-1
 1062 958 l 1,18,-1
 945 0 l 1,19,-1
 774 0 l 1,20,-1
 876 835 l 1,21,-1
 471 835 l 1,22,-1
 368 0 l 1,23,-1
 198 0 l 1,24,-1
 300 833 l 1,25,-1
 196 846 l 2,26,27
 155 852 155 852 155 883 c 2,28,-1
 155 889 l 1,29,-1
 164 958 l 1,30,-1
 315 958 l 1,31,-1
 331 1087 l 2,32,33
 351 1247 351 1247 433.5 1329 c 128,-1,34
 516 1411 516 1411 645 1411 c 0,35,36
 690 1411 690 1411 719 1402 c 1,37,-1
 710 1316 l 1,0,1
1183.5 1324.5 m 128,-1,39
 1211 1296 1211 1296 1211 1264 c 0,40,41
 1211 1208 1211 1208 1174.5 1173.5 c 128,-1,42
 1138 1139 1138 1139 1093 1139 c 128,-1,43
 1048 1139 1048 1139 1020.5 1166.5 c 128,-1,44
 993 1194 993 1194 993 1226 c 0,45,46
 993 1283 993 1283 1030 1318 c 128,-1,47
 1067 1353 1067 1353 1111.5 1353 c 128,-1,38
 1156 1353 1156 1353 1183.5 1324.5 c 128,-1,39
EndSplineSet
Validated: 1
Ligature2: "sous-table 'liga' Ligatures standard dans Latin lookup 37" f idieresis
EndChar

StartChar: f_imacron.liga
Encoding: 1114126 -1 72
Width: 1103
GlyphClass: 3
Flags: MW
LayerCount: 2
Fore
SplineSet
146 0 m 1,0,-1
 248 833 l 1,1,-1
 144 846 l 2,2,3
 103 852 103 852 103 883 c 2,4,-1
 103 889 l 1,5,-1
 112 958 l 1,6,-1
 263 958 l 1,7,-1
 279 1087 l 2,8,9
 299 1247 299 1247 381.5 1329 c 128,-1,10
 464 1411 464 1411 593 1411 c 0,11,12
 638 1411 638 1411 667 1402 c 1,13,-1
 657 1309 l 2,14,15
 654 1286 654 1286 594 1286 c 0,16,17
 469 1286 469 1286 444 1088 c 2,18,-1
 428 958 l 1,19,-1
 1010 958 l 1,20,-1
 893 0 l 1,21,-1
 722 0 l 1,22,-1
 824 835 l 1,23,-1
 419 835 l 1,24,-1
 316 0 l 1,25,-1
 146 0 l 1,0,-1
703 1299 m 1,26,-1
 1216 1299 l 1,27,-1
 1202 1188 l 1,28,-1
 689 1188 l 1,29,-1
 703 1299 l 1,26,-1
EndSplineSet
Validated: 1
Ligature2: "sous-table 'liga' Ligatures standard dans Latin lookup 37" f imacron
EndChar

StartChar: f_ibreve.liga
Encoding: 1114127 -1 73
Width: 1103
GlyphClass: 3
Flags: MW
LayerCount: 2
Fore
SplineSet
146 0 m 1,0,-1
 248 833 l 1,1,-1
 144 846 l 2,2,3
 103 852 103 852 103 883 c 2,4,-1
 103 889 l 1,5,-1
 112 958 l 1,6,-1
 263 958 l 1,7,-1
 279 1087 l 2,8,9
 299 1247 299 1247 381.5 1329 c 128,-1,10
 464 1411 464 1411 593 1411 c 0,11,12
 638 1411 638 1411 667 1402 c 1,13,-1
 657 1309 l 2,14,15
 654 1286 654 1286 594 1286 c 0,16,17
 469 1286 469 1286 444 1088 c 2,18,-1
 428 958 l 1,19,-1
 1010 958 l 1,20,-1
 893 0 l 1,21,-1
 722 0 l 1,22,-1
 824 835 l 1,23,-1
 419 835 l 1,24,-1
 316 0 l 1,25,-1
 146 0 l 1,0,-1
957 1234 m 0,26,27
 1085 1234 1085 1234 1104 1382 c 1,28,-1
 1224 1382 l 1,29,30
 1200 1202 1200 1202 1063 1144 c 0,31,32
 1013 1123 1013 1123 943 1123 c 0,33,34
 811 1123 811 1123 762 1195 c 0,35,36
 724 1250 724 1250 724 1329 c 0,37,38
 724 1354 724 1354 728 1382 c 1,39,-1
 847 1382 l 1,40,41
 844 1358 844 1358 844 1339 c 0,42,43
 844 1301 844 1301 856 1283 c 0,44,45
 887 1234 887 1234 957 1234 c 0,26,27
EndSplineSet
Validated: 1
Ligature2: "sous-table 'liga' Ligatures standard dans Latin lookup 37" f ibreve
EndChar

StartChar: f_iogonek.liga
Encoding: 1114128 -1 74
Width: 1084
GlyphClass: 3
Flags: MW
LayerCount: 2
Fore
SplineSet
615 -207 m 0,0,1
 615 -90 615 -90 762 0 c 1,2,-1
 722 0 l 1,3,-1
 824 835 l 1,4,-1
 419 835 l 1,5,-1
 316 0 l 1,6,-1
 146 0 l 1,7,-1
 248 833 l 1,8,-1
 144 846 l 2,9,10
 103 852 103 852 103 883 c 2,11,-1
 103 889 l 1,12,-1
 112 958 l 1,13,-1
 263 958 l 1,14,-1
 270 1013 l 2,15,16
 292 1198 292 1198 419 1309 c 128,-1,17
 546 1420 546 1420 758 1420 c 0,18,19
 841 1420 841 1420 896 1399 c 1,20,-1
 880 1312 l 2,21,22
 876 1294 876 1294 856 1294 c 2,23,-1
 854 1294 l 1,24,-1
 791 1294 l 2,25,26
 623 1294 623 1294 537.5 1223 c 128,-1,27
 452 1152 452 1152 434 1008 c 2,28,-1
 428 958 l 1,29,-1
 1010 958 l 1,30,-1
 893 0 l 1,31,-1
 869 0 l 1,32,33
 793 -41 793 -41 758 -108 c 0,34,35
 746 -131 746 -131 746 -162 c 0,36,37
 747 -191 747 -191 765.5 -209.5 c 128,-1,38
 784 -228 784 -228 809.5 -228 c 128,-1,39
 835 -228 835 -228 849 -224.5 c 128,-1,40
 863 -221 863 -221 872 -216.5 c 128,-1,41
 881 -212 881 -212 886.5 -208.5 c 128,-1,42
 892 -205 892 -205 896 -205 c 0,43,44
 910 -205 910 -205 913 -217 c 2,45,-1
 931 -280 l 1,46,47
 863 -330 863 -330 779 -330 c 128,-1,48
 695 -330 695 -330 655 -296.5 c 128,-1,49
 615 -263 615 -263 615 -207 c 0,0,1
EndSplineSet
Validated: 1
Ligature2: "sous-table 'liga' Ligatures standard dans Latin lookup 37" f iogonek
EndChar

StartChar: f_dotlessi.liga
Encoding: 1114129 -1 75
Width: 1084
GlyphClass: 3
Flags: MW
LayerCount: 2
Fore
SplineSet
146 0 m 1,0,-1
 248 833 l 1,1,-1
 144 846 l 2,2,3
 103 852 103 852 103 883 c 2,4,-1
 103 889 l 1,5,-1
 112 958 l 1,6,-1
 263 958 l 1,7,-1
 279 1087 l 2,8,9
 299 1247 299 1247 381.5 1329 c 128,-1,10
 464 1411 464 1411 593 1411 c 0,11,12
 638 1411 638 1411 667 1402 c 1,13,-1
 657 1309 l 2,14,15
 654 1286 654 1286 594 1286 c 0,16,17
 469 1286 469 1286 444 1088 c 2,18,-1
 428 958 l 1,19,-1
 1010 958 l 1,20,-1
 893 0 l 1,21,-1
 722 0 l 1,22,-1
 824 835 l 1,23,-1
 419 835 l 1,24,-1
 316 0 l 1,25,-1
 146 0 l 1,0,-1
EndSplineSet
Validated: 1
Ligature2: "sous-table 'liga' Ligatures standard dans Latin lookup 37" f dotlessi
EndChar

StartChar: uniFB03
Encoding: 64259 64259 76
Width: 1654
GlyphClass: 3
Flags: MW
LayerCount: 2
Fore
SplineSet
143 0 m 1,0,-1
 245 833 l 1,1,-1
 144 846 l 2,2,3
 103 852 103 852 103 883 c 2,4,-1
 103 889 l 1,5,-1
 111 958 l 1,6,-1
 261 958 l 1,7,-1
 271 1039 l 2,8,9
 291 1206 291 1206 389.5 1297 c 128,-1,10
 488 1388 488 1388 639 1388 c 0,11,12
 698 1388 698 1388 753 1369 c 1,13,-1
 739 1284 l 2,14,15
 734 1258 734 1258 692 1258 c 2,16,-1
 686 1258 l 1,17,-1
 639 1258 l 2,18,19
 560 1258 560 1258 503.5 1206 c 128,-1,20
 447 1154 447 1154 434 1034 c 2,21,-1
 425 958 l 1,22,-1
 848 958 l 1,23,-1
 855 1013 l 2,24,25
 890 1300 890 1300 1144 1390 c 0,26,27
 1228 1420 1228 1420 1322.5 1420 c 128,-1,28
 1417 1420 1417 1420 1472 1399 c 1,29,-1
 1455 1312 l 2,30,31
 1451 1294 1451 1294 1432 1294 c 2,32,-1
 1430 1294 l 1,33,-1
 1348 1294 l 2,34,35
 1055 1294 1055 1294 1019 1008 c 1,36,-1
 1012 958 l 1,37,-1
 1584 958 l 1,38,-1
 1570 835 l 1,39,-1
 1569 835 l 1,40,-1
 1466 0 l 1,41,-1
 1296 0 l 1,42,-1
 1399 835 l 1,43,-1
 1003 835 l 1,44,-1
 900 0 l 1,45,-1
 730 0 l 1,46,-1
 833 835 l 1,47,-1
 416 835 l 1,48,-1
 313 0 l 1,49,-1
 143 0 l 1,0,-1
EndSplineSet
Validated: 1
Ligature2: "sous-table 'liga' Ligatures standard dans Latin lookup 37" f f i
EndChar

StartChar: f_f_igrave.liga
Encoding: 1114130 -1 77
Width: 1654
GlyphClass: 3
Flags: MW
LayerCount: 2
Fore
SplineSet
1467 0 m 1,0,-1
 1297 0 l 1,1,-1
 1400 835 l 1,2,-1
 1004 835 l 1,3,-1
 902 0 l 1,4,-1
 731 0 l 1,5,-1
 834 835 l 1,6,-1
 417 835 l 1,7,-1
 314 0 l 1,8,-1
 144 0 l 1,9,-1
 246 833 l 1,10,-1
 144 846 l 2,11,12
 103 852 103 852 103 883 c 2,13,-1
 103 889 l 1,14,-1
 111 958 l 1,15,-1
 262 958 l 1,16,-1
 272 1039 l 2,17,18
 292 1204 292 1204 390.5 1296 c 128,-1,19
 489 1388 489 1388 640 1388 c 0,20,21
 701 1388 701 1388 756 1369 c 1,22,-1
 742 1284 l 2,23,24
 738 1261 738 1261 715 1259.5 c 128,-1,25
 692 1258 692 1258 651 1258 c 0,26,27
 464 1258 464 1258 436 1034 c 2,28,-1
 426 958 l 1,29,-1
 849 958 l 1,30,-1
 862 1064 l 2,31,32
 904 1414 904 1414 1327 1414 c 0,33,34
 1466 1414 1466 1414 1485 1371 c 2,35,-1
 1602 1123 l 1,36,-1
 1505 1123 l 2,37,38
 1469 1123 1469 1123 1450 1149 c 2,39,-1
 1339 1296 l 1,40,41
 1332 1297 1332 1297 1326 1297 c 2,42,-1
 1311 1297 l 1,43,-1
 1306 1297 l 2,44,45
 1176 1296 1176 1296 1110 1242 c 0,46,47
 1042 1186 1042 1186 1026 1058 c 2,48,-1
 1013 958 l 1,49,-1
 1585 958 l 1,50,-1
 1467 0 l 1,0,-1
EndSplineSet
Validated: 1
Ligature2: "sous-table 'liga' Ligatures standard dans Latin lookup 37" f f igrave
EndChar

StartChar: f_f_icircumflex.liga
Encoding: 1114131 -1 78
Width: 1654
GlyphClass: 3
Flags: MW
LayerCount: 2
Fore
SplineSet
1569 835 m 1,0,-1
 1466 0 l 1,1,-1
 1296 0 l 1,2,-1
 1399 835 l 1,3,-1
 1003 835 l 1,4,-1
 900 0 l 1,5,-1
 730 0 l 1,6,-1
 833 835 l 1,7,-1
 416 835 l 1,8,-1
 313 0 l 1,9,-1
 143 0 l 1,10,-1
 245 833 l 1,11,-1
 144 846 l 2,12,13
 103 852 103 852 103 883 c 2,14,-1
 103 889 l 1,15,-1
 111 958 l 1,16,-1
 261 958 l 1,17,-1
 271 1039 l 2,18,19
 291 1206 291 1206 389.5 1297 c 128,-1,20
 488 1388 488 1388 639 1388 c 0,21,22
 698 1388 698 1388 753 1369 c 1,23,-1
 739 1284 l 2,24,25
 734 1258 734 1258 692 1258 c 2,26,-1
 686 1258 l 1,27,-1
 639 1258 l 2,28,29
 560 1258 560 1258 503.5 1206 c 128,-1,30
 447 1154 447 1154 434 1034 c 2,31,-1
 425 958 l 1,32,-1
 848 958 l 1,33,-1
 864 1087 l 2,34,35
 884 1247 884 1247 964.5 1329 c 128,-1,36
 1045 1411 1045 1411 1173 1411 c 0,37,38
 1216 1411 1216 1411 1247 1402 c 1,39,-1
 1235 1309 l 2,40,41
 1233 1286 1233 1286 1175 1286 c 0,42,43
 1053 1286 1053 1286 1028 1088 c 2,44,-1
 1012 958 l 1,45,-1
 1584 958 l 1,46,-1
 1570 835 l 1,47,-1
 1569 835 l 1,0,-1
1742 1128 m 1,48,-1
 1630 1128 l 2,49,50
 1607 1128 1607 1128 1595 1142 c 2,51,-1
 1499 1263 l 2,52,53
 1492 1270 1492 1270 1486 1279 c 1,54,-1
 1343 1142 l 2,55,56
 1326 1128 1326 1128 1304 1128 c 2,57,-1
 1186 1128 l 1,58,-1
 1417 1382 l 1,59,-1
 1575 1382 l 1,60,-1
 1742 1128 l 1,48,-1
EndSplineSet
Validated: 1
Ligature2: "sous-table 'liga' Ligatures standard dans Latin lookup 37" f f icircumflex
EndChar

StartChar: f_f_itilde.liga
Encoding: 1114132 -1 79
Width: 1673
GlyphClass: 3
Flags: MW
LayerCount: 2
Fore
SplineSet
1595 835 m 1,0,-1
 1492 0 l 1,1,-1
 1322 0 l 1,2,-1
 1425 835 l 1,3,-1
 1029 835 l 1,4,-1
 926 0 l 1,5,-1
 756 0 l 1,6,-1
 859 835 l 1,7,-1
 442 835 l 1,8,-1
 339 0 l 1,9,-1
 169 0 l 1,10,-1
 271 833 l 1,11,-1
 170 846 l 2,12,13
 129 852 129 852 129 883 c 2,14,-1
 129 889 l 1,15,-1
 137 958 l 1,16,-1
 287 958 l 1,17,-1
 297 1039 l 2,18,19
 317 1206 317 1206 415.5 1297 c 128,-1,20
 514 1388 514 1388 665 1388 c 0,21,22
 724 1388 724 1388 779 1369 c 1,23,-1
 765 1284 l 2,24,25
 760 1258 760 1258 718 1258 c 2,26,-1
 712 1258 l 1,27,-1
 665 1258 l 2,28,29
 586 1258 586 1258 529.5 1206 c 128,-1,30
 473 1154 473 1154 460 1034 c 2,31,-1
 451 958 l 1,32,-1
 874 958 l 1,33,-1
 890 1087 l 2,34,35
 910 1247 910 1247 990.5 1329 c 128,-1,36
 1071 1411 1071 1411 1199 1411 c 0,37,38
 1242 1411 1242 1411 1273 1402 c 1,39,-1
 1261 1309 l 2,40,41
 1259 1286 1259 1286 1201 1286 c 0,42,43
 1079 1286 1079 1286 1054 1088 c 2,44,-1
 1038 958 l 1,45,-1
 1610 958 l 1,46,-1
 1596 835 l 1,47,-1
 1595 835 l 1,0,-1
1400 1246 m 0,48,49
 1337 1246 1337 1246 1325 1161 c 1,50,-1
 1221 1161 l 1,51,52
 1231 1250 1231 1250 1285 1308 c 128,-1,53
 1339 1366 1339 1366 1397 1366 c 128,-1,54
 1455 1366 1455 1366 1494.5 1335.5 c 128,-1,55
 1534 1305 1534 1305 1553.5 1291 c 128,-1,56
 1573 1277 1573 1277 1593 1277 c 0,57,58
 1656 1277 1656 1277 1669 1361 c 1,59,-1
 1772 1361 l 1,60,61
 1761 1272 1761 1272 1709 1214 c 0,62,63
 1658 1157 1658 1157 1601 1157 c 2,64,-1
 1599 1157 l 2,65,66
 1541 1157 1541 1157 1500 1187.5 c 128,-1,67
 1459 1218 1459 1218 1439.5 1232 c 128,-1,68
 1420 1246 1420 1246 1400 1246 c 0,48,49
EndSplineSet
Validated: 1
Ligature2: "sous-table 'liga' Ligatures standard dans Latin lookup 37" f f itilde
EndChar

StartChar: f_f_idieresis.liga
Encoding: 1114133 -1 80
Width: 1673
GlyphClass: 3
Flags: MW
LayerCount: 2
Fore
SplineSet
1595 835 m 1,0,-1
 1492 0 l 1,1,-1
 1322 0 l 1,2,-1
 1425 835 l 1,3,-1
 1029 835 l 1,4,-1
 926 0 l 1,5,-1
 756 0 l 1,6,-1
 859 835 l 1,7,-1
 442 835 l 1,8,-1
 339 0 l 1,9,-1
 169 0 l 1,10,-1
 271 833 l 1,11,-1
 170 846 l 2,12,13
 129 852 129 852 129 883 c 2,14,-1
 129 889 l 1,15,-1
 137 958 l 1,16,-1
 287 958 l 1,17,-1
 297 1039 l 2,18,19
 317 1206 317 1206 415.5 1297 c 128,-1,20
 514 1388 514 1388 665 1388 c 0,21,22
 724 1388 724 1388 779 1369 c 1,23,-1
 765 1284 l 2,24,25
 760 1258 760 1258 718 1258 c 2,26,-1
 712 1258 l 1,27,-1
 665 1258 l 2,28,29
 586 1258 586 1258 529.5 1206 c 128,-1,30
 473 1154 473 1154 460 1034 c 2,31,-1
 451 958 l 1,32,-1
 874 958 l 1,33,-1
 890 1087 l 2,34,35
 910 1247 910 1247 990.5 1329 c 128,-1,36
 1071 1411 1071 1411 1199 1411 c 0,37,38
 1242 1411 1242 1411 1273 1402 c 1,39,-1
 1261 1309 l 2,40,41
 1259 1286 1259 1286 1201 1286 c 0,42,43
 1079 1286 1079 1286 1054 1088 c 2,44,-1
 1038 958 l 1,45,-1
 1610 958 l 1,46,-1
 1596 835 l 1,47,-1
 1595 835 l 1,0,-1
1435 1323 m 0,48,49
 1462 1295 1462 1295 1462 1263 c 0,50,51
 1462 1206 1462 1206 1424.5 1170.5 c 128,-1,52
 1387 1135 1387 1135 1344.5 1135 c 128,-1,53
 1302 1135 1302 1135 1276 1163.5 c 128,-1,54
 1250 1192 1250 1192 1250 1224 c 0,55,56
 1250 1281 1250 1281 1285 1317 c 128,-1,57
 1320 1353 1320 1353 1363 1353 c 2,58,-1
 1364 1353 l 2,59,60
 1408 1353 1408 1353 1435 1323 c 0,48,49
1748 1324 m 0,61,62
 1775 1296 1775 1296 1775 1264 c 0,63,64
 1775 1207 1775 1207 1737.5 1171.5 c 128,-1,65
 1700 1136 1700 1136 1657.5 1136 c 128,-1,66
 1615 1136 1615 1136 1589 1164.5 c 128,-1,67
 1563 1193 1563 1193 1563 1225 c 0,68,69
 1563 1282 1563 1282 1598 1318 c 128,-1,70
 1633 1354 1633 1354 1676 1354 c 2,71,-1
 1677 1354 l 2,72,73
 1721 1354 1721 1354 1748 1324 c 0,61,62
EndSplineSet
Validated: 1
Ligature2: "sous-table 'liga' Ligatures standard dans Latin lookup 37" f f idieresis
EndChar

StartChar: f_f_imacron.liga
Encoding: 1114134 -1 81
Width: 1673
GlyphClass: 3
Flags: MW
LayerCount: 2
Fore
SplineSet
1595 835 m 1,0,-1
 1492 0 l 1,1,-1
 1322 0 l 1,2,-1
 1425 835 l 1,3,-1
 1029 835 l 1,4,-1
 926 0 l 1,5,-1
 756 0 l 1,6,-1
 859 835 l 1,7,-1
 442 835 l 1,8,-1
 339 0 l 1,9,-1
 169 0 l 1,10,-1
 271 833 l 1,11,-1
 170 846 l 2,12,13
 129 852 129 852 129 883 c 2,14,-1
 129 889 l 1,15,-1
 137 958 l 1,16,-1
 287 958 l 1,17,-1
 297 1039 l 2,18,19
 317 1206 317 1206 415.5 1297 c 128,-1,20
 514 1388 514 1388 665 1388 c 0,21,22
 724 1388 724 1388 779 1369 c 1,23,-1
 765 1284 l 2,24,25
 760 1258 760 1258 718 1258 c 2,26,-1
 712 1258 l 1,27,-1
 665 1258 l 2,28,29
 586 1258 586 1258 529.5 1206 c 128,-1,30
 473 1154 473 1154 460 1034 c 2,31,-1
 451 958 l 1,32,-1
 874 958 l 1,33,-1
 890 1087 l 2,34,35
 910 1247 910 1247 990.5 1329 c 128,-1,36
 1071 1411 1071 1411 1199 1411 c 0,37,38
 1242 1411 1242 1411 1273 1402 c 1,39,-1
 1261 1309 l 2,40,41
 1261 1302 1261 1302 1258 1299 c 2,42,-1
 1761 1299 l 1,43,-1
 1747 1188 l 1,44,-1
 1234 1188 l 1,45,-1
 1247 1290 l 1,46,47
 1234 1286 1234 1286 1207 1286 c 0,48,49
 1142 1286 1142 1286 1104.5 1239.5 c 128,-1,50
 1067 1193 1067 1193 1054 1088 c 2,51,-1
 1038 958 l 1,52,-1
 1610 958 l 1,53,-1
 1596 835 l 1,54,-1
 1595 835 l 1,0,-1
EndSplineSet
Validated: 1
Ligature2: "sous-table 'liga' Ligatures standard dans Latin lookup 37" f f imacron
EndChar

StartChar: f_f_ibreve.liga
Encoding: 1114135 -1 82
Width: 1673
GlyphClass: 3
Flags: MW
LayerCount: 2
Fore
SplineSet
1497 1234 m 0,0,1
 1625 1234 1625 1234 1644 1382 c 1,2,-1
 1764 1382 l 1,3,4
 1740 1202 1740 1202 1603 1144 c 0,5,6
 1553 1123 1553 1123 1487 1123 c 0,7,8
 1367 1124 1367 1124 1314 1182 c 0,9,10
 1264 1238 1264 1238 1264 1329 c 2,11,-1
 1264 1336 l 1,12,-1
 1261 1309 l 2,13,14
 1259 1286 1259 1286 1201 1286 c 0,15,16
 1079 1286 1079 1286 1054 1088 c 2,17,-1
 1038 958 l 1,18,-1
 1610 958 l 1,19,-1
 1596 835 l 1,20,-1
 1595 835 l 1,21,-1
 1492 0 l 1,22,-1
 1322 0 l 1,23,-1
 1425 835 l 1,24,-1
 1029 835 l 1,25,-1
 926 0 l 1,26,-1
 756 0 l 1,27,-1
 859 835 l 1,28,-1
 442 835 l 1,29,-1
 339 0 l 1,30,-1
 169 0 l 1,31,-1
 271 833 l 1,32,-1
 170 846 l 2,33,34
 129 852 129 852 129 883 c 2,35,-1
 129 889 l 1,36,-1
 137 958 l 1,37,-1
 287 958 l 1,38,-1
 297 1039 l 2,39,40
 317 1206 317 1206 415.5 1297 c 128,-1,41
 514 1388 514 1388 665 1388 c 0,42,43
 724 1388 724 1388 779 1369 c 1,44,-1
 765 1284 l 2,45,46
 760 1258 760 1258 718 1258 c 2,47,-1
 712 1258 l 1,48,-1
 665 1258 l 2,49,50
 586 1258 586 1258 529.5 1206 c 128,-1,51
 473 1154 473 1154 460 1034 c 2,52,-1
 451 958 l 1,53,-1
 874 958 l 1,54,-1
 890 1087 l 2,55,56
 910 1247 910 1247 990.5 1329 c 128,-1,57
 1071 1411 1071 1411 1199 1411 c 0,58,59
 1242 1411 1242 1411 1273 1402 c 1,60,-1
 1270 1382 l 1,61,-1
 1387 1382 l 1,62,63
 1384 1358 1384 1358 1384 1339 c 0,64,65
 1384 1301 1384 1301 1396 1283 c 0,66,67
 1427 1234 1427 1234 1497 1234 c 0,0,1
EndSplineSet
Validated: 1
Ligature2: "sous-table 'liga' Ligatures standard dans Latin lookup 37" f f ibreve
EndChar

StartChar: f_f_iogonek.liga
Encoding: 1114136 -1 83
Width: 1654
GlyphClass: 3
Flags: MW
LayerCount: 2
Fore
SplineSet
1168 -207 m 0,0,1
 1168 -90 1168 -90 1315 0 c 1,2,-1
 1296 0 l 1,3,-1
 1399 835 l 1,4,-1
 1003 835 l 1,5,-1
 900 0 l 1,6,-1
 730 0 l 1,7,-1
 833 835 l 1,8,-1
 416 835 l 1,9,-1
 313 0 l 1,10,-1
 143 0 l 1,11,-1
 245 833 l 1,12,-1
 144 846 l 2,13,14
 103 852 103 852 103 883 c 2,15,-1
 103 889 l 1,16,-1
 111 958 l 1,17,-1
 261 958 l 1,18,-1
 271 1039 l 2,19,20
 291 1206 291 1206 389.5 1297 c 128,-1,21
 488 1388 488 1388 639 1388 c 0,22,23
 698 1388 698 1388 753 1369 c 1,24,-1
 739 1284 l 2,25,26
 734 1258 734 1258 692 1258 c 2,27,-1
 686 1258 l 1,28,-1
 639 1258 l 2,29,30
 560 1258 560 1258 503.5 1206 c 128,-1,31
 447 1154 447 1154 434 1034 c 2,32,-1
 425 958 l 1,33,-1
 848 958 l 1,34,-1
 855 1013 l 2,35,36
 890 1300 890 1300 1144 1390 c 0,37,38
 1228 1420 1228 1420 1322.5 1420 c 128,-1,39
 1417 1420 1417 1420 1472 1399 c 1,40,-1
 1455 1312 l 2,41,42
 1451 1293 1451 1293 1431 1293 c 1,43,-1
 1430 1294 l 1,44,-1
 1348 1294 l 2,45,46
 1055 1294 1055 1294 1019 1008 c 1,47,-1
 1012 958 l 1,48,-1
 1584 958 l 1,49,-1
 1570 835 l 1,50,-1
 1569 835 l 1,51,-1
 1466 0 l 1,52,-1
 1422 0 l 1,53,54
 1342 -44 1342 -44 1312 -108 c 0,55,56
 1300 -132 1300 -132 1300 -161.5 c 128,-1,57
 1300 -191 1300 -191 1318.5 -209.5 c 128,-1,58
 1337 -228 1337 -228 1362.5 -228 c 128,-1,59
 1388 -228 1388 -228 1402 -224.5 c 128,-1,60
 1416 -221 1416 -221 1425 -216.5 c 128,-1,61
 1434 -212 1434 -212 1439.5 -208.5 c 128,-1,62
 1445 -205 1445 -205 1449 -205 c 0,63,64
 1463 -205 1463 -205 1466 -217 c 2,65,-1
 1484 -280 l 1,66,67
 1416 -330 1416 -330 1332 -330 c 128,-1,68
 1248 -330 1248 -330 1208 -296.5 c 128,-1,69
 1168 -263 1168 -263 1168 -207 c 0,0,1
EndSplineSet
Validated: 1
Ligature2: "sous-table 'liga' Ligatures standard dans Latin lookup 37" f f iogonek
EndChar

StartChar: f_f_dotlessi.liga
Encoding: 1114137 -1 84
Width: 1654
GlyphClass: 3
Flags: MW
LayerCount: 2
Fore
SplineSet
1569 835 m 1,0,-1
 1466 0 l 1,1,-1
 1296 0 l 1,2,-1
 1399 835 l 1,3,-1
 1003 835 l 1,4,-1
 900 0 l 1,5,-1
 730 0 l 1,6,-1
 833 835 l 1,7,-1
 416 835 l 1,8,-1
 313 0 l 1,9,-1
 143 0 l 1,10,-1
 245 833 l 1,11,-1
 144 846 l 2,12,13
 103 852 103 852 103 883 c 2,14,-1
 103 889 l 1,15,-1
 111 958 l 1,16,-1
 261 958 l 1,17,-1
 271 1039 l 2,18,19
 291 1206 291 1206 389.5 1297 c 128,-1,20
 488 1388 488 1388 639 1388 c 0,21,22
 698 1388 698 1388 753 1369 c 1,23,-1
 739 1284 l 2,24,25
 734 1258 734 1258 692 1258 c 2,26,-1
 686 1258 l 1,27,-1
 639 1258 l 2,28,29
 560 1258 560 1258 503.5 1206 c 128,-1,30
 447 1154 447 1154 434 1034 c 2,31,-1
 425 958 l 1,32,-1
 848 958 l 1,33,-1
 864 1087 l 2,34,35
 884 1247 884 1247 964.5 1329 c 128,-1,36
 1045 1411 1045 1411 1173 1411 c 0,37,38
 1216 1411 1216 1411 1247 1402 c 1,39,-1
 1235 1309 l 2,40,41
 1233 1286 1233 1286 1175 1286 c 0,42,43
 1053 1286 1053 1286 1028 1088 c 2,44,-1
 1012 958 l 1,45,-1
 1584 958 l 1,46,-1
 1570 835 l 1,47,-1
 1569 835 l 1,0,-1
EndSplineSet
Validated: 1
Ligature2: "sous-table 'liga' Ligatures standard dans Latin lookup 37" f f dotlessi
EndChar

StartChar: f_j.liga
Encoding: 1114138 -1 85
Width: 1084
GlyphClass: 3
Flags: MW
LayerCount: 2
Fore
SplineSet
149 0 m 1,0,-1
 251 833 l 1,1,-1
 144 846 l 2,2,3
 103 852 103 852 103 883 c 2,4,-1
 103 889 l 1,5,-1
 112 958 l 1,6,-1
 266 958 l 1,7,-1
 273 1013 l 2,8,9
 296 1198 296 1198 424.5 1309 c 128,-1,10
 553 1420 553 1420 766 1420 c 0,11,12
 851 1420 851 1420 906 1399 c 1,13,-1
 890 1312 l 2,14,15
 886 1296 886 1296 869 1294 c 0,16,17
 856 1293 856 1293 844 1293 c 0,18,19
 840 1294 840 1294 836 1294 c 2,20,-1
 799 1294 l 2,21,22
 629 1294 629 1294 542 1223 c 128,-1,23
 455 1152 455 1152 437 1008 c 2,24,-1
 431 958 l 1,25,-1
 1022 958 l 1,26,-1
 894 -75 l 2,27,28
 871 -268 871 -268 713 -330 c 0,29,30
 658 -352 658 -352 596 -352 c 128,-1,31
 534 -352 534 -352 479 -333 c 1,32,-1
 497 -242 l 2,33,34
 502 -226 502 -226 512 -224 c 0,35,36
 520 -223 520 -223 529 -223 c 0,37,38
 532 -224 532 -224 535 -224 c 2,39,-1
 566 -224 l 2,40,41
 641 -224 641 -224 677.5 -188.5 c 128,-1,42
 714 -153 714 -153 724 -75 c 2,43,-1
 837 835 l 1,44,-1
 422 835 l 1,45,-1
 319 0 l 1,46,-1
 149 0 l 1,0,-1
EndSplineSet
Validated: 1
LCarets2: 1 0
Ligature2: "sous-table 'liga' Ligatures standard dans Latin lookup 37" f j
EndChar

StartChar: f_f_j.liga
Encoding: 1114139 -1 86
Width: 1655
GlyphClass: 3
Flags: MW
LayerCount: 2
Fore
SplineSet
145 0 m 1,0,-1
 247 833 l 1,1,-1
 144 846 l 2,2,3
 103 852 103 852 103 883 c 2,4,-1
 103 889 l 1,5,-1
 111 958 l 1,6,-1
 263 958 l 1,7,-1
 273 1039 l 2,8,9
 293 1206 293 1206 392 1297 c 128,-1,10
 491 1388 491 1388 643 1388 c 0,11,12
 704 1388 704 1388 759 1369 c 1,13,-1
 745 1284 l 2,14,15
 741 1261 741 1261 718 1259.5 c 128,-1,16
 695 1258 695 1258 654 1258 c 0,17,18
 565 1258 565 1258 507 1205.5 c 128,-1,19
 449 1153 449 1153 436 1034 c 2,20,-1
 427 958 l 1,21,-1
 857 958 l 1,22,-1
 864 1013 l 2,23,24
 884 1198 884 1198 1011 1309 c 128,-1,25
 1138 1420 1138 1420 1348 1420 c 0,26,27
 1430 1420 1430 1420 1485 1399 c 1,28,-1
 1469 1312 l 2,29,30
 1465 1293 1465 1293 1444 1293 c 1,31,-1
 1442 1294 l 1,32,-1
 1382 1294 l 2,33,34
 1214 1294 1214 1294 1130 1223 c 128,-1,35
 1046 1152 1046 1152 1028 1008 c 2,36,-1
 1021 958 l 1,37,-1
 1598 958 l 1,38,-1
 1584 835 l 1,39,-1
 1582 835 l 1,40,-1
 1471 -75 l 2,41,42
 1448 -268 1448 -268 1292 -330 c 0,43,44
 1238 -352 1238 -352 1175 -352 c 128,-1,45
 1112 -352 1112 -352 1061 -333 c 1,46,-1
 1080 -242 l 2,47,48
 1084 -226 1084 -226 1094 -224 c 0,49,50
 1102 -223 1102 -223 1111 -223 c 0,51,52
 1114 -224 1114 -224 1117 -224 c 2,53,-1
 1147 -224 l 2,54,55
 1221 -224 1221 -224 1256 -188.5 c 128,-1,56
 1291 -153 1291 -153 1301 -75 c 2,57,-1
 1413 835 l 1,58,-1
 1012 835 l 1,59,-1
 909 0 l 1,60,-1
 739 0 l 1,61,-1
 842 835 l 1,62,-1
 418 835 l 1,63,-1
 315 0 l 1,64,-1
 145 0 l 1,0,-1
EndSplineSet
Validated: 1
Ligature2: "sous-table 'liga' Ligatures standard dans Latin lookup 37" f f j
EndChar

StartChar: f_k.liga
Encoding: 1114140 -1 87
Width: 1545
GlyphClass: 3
Flags: MW
LayerCount: 2
Fore
SplineSet
854 1307 m 1,0,1
 778 1329 778 1329 714 1329 c 0,2,3
 593 1329 593 1329 517.5 1249.5 c 128,-1,4
 442 1170 442 1170 427 1038 c 2,5,-1
 417 958 l 1,6,-1
 672 958 l 1,7,-1
 657 835 l 1,8,-1
 408 835 l 1,9,-1
 305 0 l 1,10,-1
 135 0 l 1,11,-1
 237 834 l 1,12,-1
 143 846 l 2,13,14
 103 852 103 852 103 883 c 2,15,-1
 103 889 l 1,16,-1
 111 958 l 1,17,-1
 252 958 l 1,18,-1
 262 1038 l 2,19,20
 298 1326 298 1326 538 1411 c 0,21,22
 622 1441 622 1441 697.5 1441 c 128,-1,23
 773 1441 773 1441 803.5 1438.5 c 128,-1,24
 834 1436 834 1436 864.5 1433 c 128,-1,25
 895 1430 895 1430 927 1426.5 c 128,-1,26
 959 1423 959 1423 997 1422 c 2,27,-1
 1041 1422 l 1,28,-1
 1041 1421 l 1,29,-1
 1053 1421 l 1,30,-1
 1039 1411 l 1,31,-1
 938 586 l 1,32,-1
 968 586 l 2,33,34
 1003 586 1003 586 1028 613 c 2,35,-1
 1349 944 l 2,36,37
 1381 978 1381 978 1417 978 c 2,38,-1
 1572 978 l 1,39,-1
 1198 594 l 2,40,41
 1166 560 1166 560 1137 543 c 1,42,43
 1162 526 1162 526 1188 483 c 2,44,-1
 1476 0 l 1,45,-1
 1326 0 l 2,46,47
 1286 0 1286 0 1266 33 c 2,48,-1
 1021 434 l 2,49,50
 1009 454 1009 454 996.5 460.5 c 128,-1,51
 984 467 984 467 957 467 c 2,52,-1
 924 467 l 1,53,-1
 867 0 l 1,54,-1
 694 0 l 1,55,-1
 854 1307 l 1,0,1
EndSplineSet
Validated: 1
Ligature2: "sous-table 'liga' Ligatures standard dans Latin lookup 37" f k
EndChar

StartChar: f_f_k.liga
Encoding: 1114141 -1 88
Width: 2115
GlyphClass: 3
Flags: MW
LayerCount: 2
Fore
SplineSet
1427 1306 m 1,0,1
 1348 1329 1348 1329 1282 1329 c 0,2,3
 1160 1329 1160 1329 1084.5 1250 c 128,-1,4
 1009 1171 1009 1171 992 1038 c 2,5,-1
 982 958 l 1,6,-1
 1239 958 l 1,7,-1
 1223 835 l 1,8,-1
 973 835 l 1,9,-1
 870 0 l 1,10,-1
 700 0 l 1,11,-1
 803 835 l 1,12,-1
 409 835 l 1,13,-1
 306 0 l 1,14,-1
 136 0 l 1,15,-1
 238 834 l 1,16,-1
 143 846 l 2,17,18
 103 852 103 852 103 883 c 2,19,-1
 103 889 l 1,20,-1
 111 958 l 1,21,-1
 254 958 l 1,22,-1
 264 1039 l 2,23,24
 284 1206 284 1206 379.5 1297 c 128,-1,25
 475 1388 475 1388 622 1388 c 0,26,27
 680 1388 680 1388 732 1369 c 1,28,-1
 717 1284 l 2,29,30
 712 1258 712 1258 672 1258 c 2,31,-1
 666 1258 l 1,32,-1
 622 1258 l 2,33,34
 547 1258 547 1258 493.5 1206 c 128,-1,35
 440 1154 440 1154 427 1034 c 2,36,-1
 418 958 l 1,37,-1
 818 958 l 1,38,-1
 828 1038 l 2,39,40
 864 1326 864 1326 1105 1411 c 0,41,42
 1190 1441 1190 1441 1265 1441 c 128,-1,43
 1340 1441 1340 1441 1370.5 1438.5 c 128,-1,44
 1401 1436 1401 1436 1432 1433 c 128,-1,45
 1463 1430 1463 1430 1495 1426.5 c 128,-1,46
 1527 1423 1527 1423 1564 1422 c 2,47,-1
 1614 1422 l 1,48,-1
 1614 1421 l 1,49,-1
 1619 1421 l 1,50,-1
 1613 1417 l 1,51,-1
 1512 586 l 1,52,-1
 1541 586 l 2,53,54
 1576 586 1576 586 1601 613 c 2,55,-1
 1922 944 l 2,56,57
 1954 978 1954 978 1990 978 c 2,58,-1
 2145 978 l 1,59,-1
 1771 594 l 2,60,61
 1739 560 1739 560 1710 543 c 1,62,63
 1735 526 1735 526 1761 483 c 2,64,-1
 2049 0 l 1,65,-1
 1899 0 l 2,66,67
 1859 0 1859 0 1839 33 c 2,68,-1
 1594 434 l 2,69,70
 1582 454 1582 454 1569.5 460.5 c 128,-1,71
 1557 467 1557 467 1530 467 c 2,72,-1
 1497 467 l 1,73,-1
 1440 0 l 1,74,-1
 1267 0 l 1,75,-1
 1427 1306 l 1,0,1
EndSplineSet
Validated: 1
Ligature2: "sous-table 'liga' Ligatures standard dans Latin lookup 37" f f k
EndChar

StartChar: uniFB02
Encoding: 64258 64258 89
Width: 1084
GlyphClass: 3
Flags: MW
LayerCount: 2
Fore
SplineSet
838 1268 m 1,0,1
 680 1282 680 1282 657 1282 c 0,2,3
 542 1282 542 1282 470 1212 c 128,-1,4
 398 1142 398 1142 384 1012 c 2,5,-1
 378 960 l 1,6,-1
 614 960 l 1,7,-1
 599 833 l 1,8,-1
 369 833 l 1,9,-1
 270 31 l 1,10,-1
 221 -167 l 2,11,12
 205 -241 205 -241 134 -241 c 2,13,-1
 65 -241 l 1,14,-1
 196 831 l 1,15,-1
 99 843 l 2,16,17
 59 849 59 849 59 880 c 2,18,-1
 59 886 l 1,19,-1
 67 960 l 1,20,-1
 212 960 l 1,21,-1
 219 1012 l 2,22,23
 240 1184 240 1184 352 1296.5 c 128,-1,24
 464 1409 464 1409 646 1409 c 1,25,-1
 908 1396 l 1,26,-1
 1025 1396 l 1,27,-1
 855 0 l 1,28,-1
 684 0 l 1,29,-1
 838 1268 l 1,0,1
EndSplineSet
Validated: 1
Ligature2: "sous-table 'liga' Ligatures standard dans Latin lookup 37" f l
EndChar

StartChar: uniFB04
Encoding: 64260 64260 90
Width: 1654
GlyphClass: 3
Flags: MW
LayerCount: 2
Fore
SplineSet
1454 1278 m 1,0,-1
 1273 1286 l 1,1,2
 1158 1286 1158 1286 1087 1212.5 c 128,-1,3
 1016 1139 1016 1139 1000 1010 c 2,4,-1
 993 958 l 1,5,-1
 1254 958 l 1,6,-1
 1240 835 l 1,7,-1
 984 835 l 1,8,-1
 881 0 l 1,9,-1
 711 0 l 1,10,-1
 813 835 l 1,11,-1
 411 835 l 1,12,-1
 308 0 l 1,13,-1
 138 0 l 1,14,-1
 240 833 l 1,15,-1
 143 846 l 2,16,17
 103 852 103 852 103 883 c 2,18,-1
 103 889 l 1,19,-1
 111 958 l 1,20,-1
 256 958 l 1,21,-1
 266 1039 l 2,22,23
 286 1204 286 1204 383 1296 c 128,-1,24
 480 1388 480 1388 628 1388 c 0,25,26
 685 1388 685 1388 740 1369 c 1,27,-1
 725 1284 l 2,28,29
 721 1261 721 1261 699 1259.5 c 128,-1,30
 677 1258 677 1258 638 1258 c 0,31,32
 457 1258 457 1258 429 1034 c 2,33,-1
 419 958 l 1,34,-1
 828 958 l 1,35,-1
 835 1010 l 2,36,37
 856 1182 856 1182 968 1296 c 0,38,39
 1079 1409 1079 1409 1259 1409 c 2,40,-1
 1262 1409 l 1,41,-1
 1523 1396 l 1,42,-1
 1638 1396 l 1,43,-1
 1466 0 l 1,44,-1
 1298 0 l 1,45,-1
 1454 1278 l 1,0,-1
EndSplineSet
Validated: 1
Ligature2: "sous-table 'liga' Ligatures standard dans Latin lookup 37" f f l
EndChar

StartChar: f_t.liga
Encoding: 1114142 -1 91
Width: 1252
GlyphClass: 3
Flags: MW
LayerCount: 2
Fore
SplineSet
1196 73 m 1,0,1
 1095 -15 1095 -15 972 -15 c 0,2,3
 756 -15 756 -15 756 181 c 0,4,5
 756 206 756 206 759 234 c 2,6,-1
 832 835 l 1,7,-1
 412 835 l 1,8,-1
 309 0 l 1,9,-1
 139 0 l 1,10,-1
 241 834 l 1,11,-1
 143 846 l 2,12,13
 103 852 103 852 103 883 c 2,14,-1
 103 889 l 1,15,-1
 111 958 l 1,16,-1
 256 958 l 1,17,-1
 268 1054 l 2,18,19
 288 1220 288 1220 385.5 1311 c 128,-1,20
 483 1402 483 1402 632 1403 c 0,21,22
 690 1403 690 1403 745 1384 c 1,23,-1
 730 1299 l 2,24,25
 725 1276 725 1276 703 1274 c 2,26,-1
 642 1274 l 1,27,-1
 639 1274 l 2,28,29
 558 1274 558 1274 502 1221 c 128,-1,30
 446 1168 446 1168 432 1048 c 2,31,-1
 421 958 l 1,32,-1
 853 958 l 1,33,-1
 931 1263 l 2,34,35
 940 1295 940 1295 974 1295 c 2,36,-1
 1060 1295 l 1,37,-1
 1018 958 l 1,38,-1
 1282 958 l 1,39,-1
 1268 835 l 1,40,-1
 1003 835 l 1,41,-1
 930 245 l 2,42,43
 928 229 928 229 928 216 c 0,44,45
 928 176 928 176 946 153 c 0,46,47
 970 123 970 123 1004.5 123 c 128,-1,48
 1039 123 1039 123 1058 130.5 c 128,-1,49
 1077 138 1077 138 1091 146.5 c 128,-1,50
 1105 155 1105 155 1115.5 162.5 c 128,-1,51
 1126 170 1126 170 1137.5 170 c 128,-1,52
 1149 170 1149 170 1156 154 c 2,53,-1
 1196 73 l 1,0,1
EndSplineSet
Validated: 1
Ligature2: "sous-table 'liga' Ligatures standard dans Latin lookup 37" f t
EndChar

StartChar: f_f_t.liga
Encoding: 1114143 -1 92
Width: 1823
GlyphClass: 3
Flags: MW
LayerCount: 2
Fore
SplineSet
1768 73 m 1,0,1
 1667 -15 1667 -15 1544 -15 c 0,2,3
 1328 -15 1328 -15 1328 181 c 0,4,5
 1328 206 1328 206 1332 234 c 2,6,-1
 1406 835 l 1,7,-1
 986 835 l 1,8,-1
 883 0 l 1,9,-1
 713 0 l 1,10,-1
 815 835 l 1,11,-1
 412 835 l 1,12,-1
 309 0 l 1,13,-1
 139 0 l 1,14,-1
 241 833 l 1,15,-1
 143 846 l 2,16,17
 103 852 103 852 103 883 c 2,18,-1
 103 889 l 1,19,-1
 111 958 l 1,20,-1
 257 958 l 1,21,-1
 267 1039 l 2,22,23
 287 1204 287 1204 384 1296 c 128,-1,24
 481 1388 481 1388 629 1388 c 0,25,26
 689 1388 689 1388 741 1369 c 1,27,-1
 727 1284 l 2,28,29
 723 1261 723 1261 700.5 1259.5 c 128,-1,30
 678 1258 678 1258 638 1258 c 0,31,32
 556 1258 556 1258 500 1206 c 128,-1,33
 444 1154 444 1154 430 1034 c 2,34,-1
 421 958 l 1,35,-1
 830 958 l 1,36,-1
 842 1054 l 2,37,38
 862 1218 862 1218 959 1310 c 128,-1,39
 1056 1402 1056 1402 1205 1403 c 0,40,41
 1263 1403 1263 1403 1318 1384 c 1,42,-1
 1303 1299 l 2,43,44
 1299 1276 1299 1276 1276.5 1274.5 c 128,-1,45
 1254 1273 1254 1273 1215 1273 c 0,46,47
 1035 1273 1035 1273 1007 1048 c 2,48,-1
 995 958 l 1,49,-1
 1427 958 l 1,50,-1
 1504 1263 l 2,51,52
 1512 1295 1512 1295 1546 1295 c 2,53,-1
 1632 1295 l 1,54,-1
 1590 958 l 1,55,-1
 1855 958 l 1,56,-1
 1839 835 l 1,57,-1
 1575 835 l 1,58,-1
 1503 245 l 2,59,60
 1501 229 1501 229 1501 212 c 0,61,62
 1501 175 1501 175 1518 153 c 0,63,64
 1542 123 1542 123 1576.5 123 c 128,-1,65
 1611 123 1611 123 1630 130.5 c 128,-1,66
 1649 138 1649 138 1663.5 146.5 c 128,-1,67
 1678 155 1678 155 1688 162.5 c 128,-1,68
 1698 170 1698 170 1708 170 c 128,-1,69
 1718 170 1718 170 1727 154 c 2,70,-1
 1768 73 l 1,0,1
EndSplineSet
Validated: 1
Ligature2: "sous-table 'liga' Ligatures standard dans Latin lookup 37" f f t
EndChar

StartChar: g
Encoding: 103 103 93
Width: 1053
GlyphClass: 2
Flags: W
AnchorPoint: "Ancre-1" 397 -324 basechar 0
AnchorPoint: "Ancre-0" 626 1122 basechar 0
AnchorPoint: "Ancre-2" 1053 1515 basechar 0
AnchorPoint: "Ancre-3" 1053 -510 basechar 0
AnchorPoint: "Ancre-5" 1053 1492 basechar 0
LayerCount: 2
Fore
SplineSet
627 385 m 5,0,1
 544 333 544 333 425 333 c 132,-1,2
 306 333 306 333 225 408.5 c 132,-1,3
 144 484 144 484 144 627.5 c 132,-1,4
 144 771 144 771 253 881.5 c 132,-1,5
 362 992 362 992 551 992 c 4,6,7
 662 992 662 992 745 943 c 5,8,-1
 1029 943 l 5,9,-1
 1022 885 l 6,10,11
 1017 846 1017 846 983 840 c 6,12,-1
 851 817 l 5,13,14
 871 768 871 768 871 713.5 c 132,-1,15
 871 659 871 659 859.5 621 c 132,-1,16
 848 583 848 583 830.5 550 c 132,-1,17
 813 517 813 517 792.5 488.5 c 132,-1,18
 772 460 772 460 742 413 c 132,-1,19
 712 366 712 366 712 323.5 c 132,-1,20
 712 281 712 281 722 257.5 c 132,-1,21
 732 234 732 234 748 211 c 132,-1,22
 764 188 764 188 782 164.5 c 132,-1,23
 800 141 800 141 826.5 98 c 132,-1,24
 853 55 853 55 853 -11 c 4,25,26
 853 -150 853 -150 720 -250 c 4,27,28
 586 -350 586 -350 390 -351 c 6,29,-1
 385 -351 l 6,30,31
 193 -351 193 -351 84 -284 c 132,-1,32
 -25 -217 -25 -217 -25 -104 c 4,33,34
 -25 10 -25 10 76 84 c 4,35,36
 210 182 210 182 462 182 c 4,37,38
 536 182 536 182 608 172 c 5,39,40
 586 212 586 212 586 264.5 c 132,-1,41
 586 317 586 317 627 385 c 5,0,1
349.5 488 m 132,-1,43
 396 442 396 442 465 442 c 4,44,45
 584 442 584 442 647 520 c 132,-1,46
 710 598 710 598 711 692 c 4,47,48
 710 784 710 784 664 828 c 132,-1,49
 618 872 618 872 548 872 c 4,50,51
 426 872 426 872 364.5 798 c 132,-1,52
 303 724 303 724 303 629 c 132,-1,42
 303 534 303 534 349.5 488 c 132,-1,43
362 -228 m 4,53,54
 597 -228 597 -228 671 -102 c 4,55,56
 693 -64 693 -64 693 -23 c 132,-1,57
 693 18 693 18 674 63 c 5,58,59
 562 80 562 80 508 80 c 132,-1,60
 454 80 454 80 394 77 c 132,-1,61
 334 74 334 74 268 51 c 4,62,63
 141 6 141 6 141 -85 c 4,64,65
 141 -155 141 -155 205 -191.5 c 132,-1,66
 269 -228 269 -228 362 -228 c 4,53,54
EndSplineSet
Validated: 1
Substitution2: "sous-table 'smcp' Bas-de-casse vers petites capitales dans Latin lookup 0" g.smcp
Substitution2: "sous-table 'sups' Exposant lookups25" g.superior
Substitution2: "sous-table 'salt' Alternatives stylistiques lookups28" g.salt
Substitution2: "sous-table 'ss04' Style 4 lookups34" g.salt
Substitution2: "sous-table 'ordn' Ordinaux dans Latin lookup 39" g.superior
EndChar

StartChar: g.salt
Encoding: 1114144 -1 94
Width: 964
GlyphClass: 2
Flags: MW
LayerCount: 2
Fore
SplineSet
933 977 m 1,0,-1
 820 54 l 2,1,2
 798 -126 798 -126 674 -238 c 0,3,4
 551 -350 551 -350 359 -350 c 2,5,-1
 358 -350 l 2,6,7
 164 -350 164 -350 57 -228 c 1,8,-1
 106 -163 l 2,9,10
 125 -138 125 -138 153 -138 c 0,11,12
 170 -138 170 -138 186 -152 c 0,13,14
 271 -226 271 -226 351 -226 c 0,15,16
 488 -226 488 -226 561.5 -150 c 128,-1,17
 635 -74 635 -74 649 45 c 2,18,-1
 662 155 l 1,19,20
 534 11 534 11 387 11 c 0,21,22
 242 11 242 11 166.5 112.5 c 128,-1,23
 91 214 91 214 91 406 c 0,24,25
 91 658 91 658 214 825 c 0,26,27
 338 994 338 994 534 994 c 0,28,29
 618 994 618 994 671 960.5 c 128,-1,30
 724 927 724 927 762 867 c 1,31,-1
 784 942 l 2,32,33
 794 977 794 977 831 977 c 2,34,-1
 933 977 l 1,0,-1
266 407 m 0,35,36
 266 147 266 147 441 147 c 0,37,38
 566 147 566 147 679 293 c 1,39,-1
 735 747 l 1,40,41
 676 863 676 863 550 863 c 1,42,-1
 549 862 l 1,43,44
 422 862 422 862 344 741 c 128,-1,45
 266 620 266 620 266 407 c 0,35,36
EndSplineSet
Validated: 1
Substitution2: "sous-table 'sups' Exposant lookups25" g.superior.salt
Substitution2: "sous-table 'ordn' Ordinaux dans Latin lookup 39" g.superior.salt
EndChar

StartChar: h
Encoding: 104 104 95
Width: 1053
GlyphClass: 2
Flags: W
AnchorPoint: "Ancre-1" 502 10 basechar 0
AnchorPoint: "Ancre-0" 585 1492 basechar 0
AnchorPoint: "Ancre-2" 1053 1515 basechar 0
AnchorPoint: "Ancre-3" 1053 -510 basechar 0
AnchorPoint: "Ancre-5" 1053 1492 basechar 0
LayerCount: 2
Fore
SplineSet
80 0 m 1,0,-1
 251 1422 l 1,1,-1
 426 1422 l 1,2,-1
 346 759 l 1,3,4
 424 874 424 874 520 933 c 128,-1,5
 616 992 616 992 698 992 c 128,-1,6
 780 992 780 992 829 968 c 0,7,8
 956 905 956 905 956 706 c 0,9,10
 956 667 956 667 950 623 c 2,11,-1
 877 0 l 1,12,-1
 702 0 l 1,13,-1
 775 623 l 2,14,15
 780 660 780 660 780 708 c 0,16,17
 780 848 780 848 652 848 c 0,18,19
 560 848 560 848 466 756 c 128,-1,20
 372 664 372 664 317 517 c 1,21,-1
 255 0 l 1,22,-1
 80 0 l 1,0,-1
EndSplineSet
Validated: 1
Substitution2: "sous-table 'smcp' Bas-de-casse vers petites capitales dans Latin lookup 0" h.smcp
Substitution2: "sous-table 'ordn' Ordinaux dans Latin lookup 39" h.superior
Substitution2: "sous-table 'sups' Exposant lookups25" h.superior
EndChar

StartChar: hbar
Encoding: 295 295 97
Width: 1066
GlyphClass: 2
Flags: MW
AnchorPoint: "Ancre-0" 579 1492 basechar 0
AnchorPoint: "Ancre-1" 594 10 basechar 0
AnchorPoint: "Ancre-2" 1093 1515 basechar 0
AnchorPoint: "Ancre-3" 1093 -510 basechar 0
AnchorPoint: "Ancre-5" 1093 1492 basechar 0
LayerCount: 2
Fore
SplineSet
73 1214 m 1,0,-1
 227 1214 l 1,1,-1
 253 1422 l 1,2,-1
 428 1422 l 1,3,-1
 403 1214 l 1,4,-1
 652 1214 l 1,5,-1
 642 1150 l 2,6,7
 634 1102 634 1102 582 1102 c 2,8,-1
 389 1102 l 1,9,-1
 345 737 l 1,10,11
 424 852 424 852 522 912 c 0,12,13
 619 971 619 971 701 971 c 1,14,-1
 702 970 l 1,15,16
 786 970 786 970 836 946 c 0,17,18
 964 883 964 883 964 683 c 0,19,20
 964 645 964 645 959 602 c 2,21,-1
 887 0 l 1,22,-1
 712 0 l 1,23,-1
 784 602 l 2,24,25
 789 639 789 639 789 669 c 0,26,27
 788 734 788 734 768 772 c 0,28,29
 739 827 739 827 652 827 c 1,30,-1
 650 826 l 1,31,32
 562 826 562 826 465.5 731.5 c 128,-1,33
 369 637 369 637 315 488 c 1,34,-1
 256 0 l 1,35,-1
 80 0 l 1,36,-1
 214 1102 l 1,37,-1
 59 1102 l 1,38,-1
 73 1214 l 1,0,-1
EndSplineSet
Validated: 1
Substitution2: "sous-table 'smcp' Bas-de-casse vers petites capitales dans Latin lookup 0" hbar.smcp
EndChar

StartChar: i
Encoding: 105 105 98
Width: 470
GlyphClass: 2
Flags: W
HStem: 0 21G<90 265.413> 958 20G<205.587 381> 1161 248<236.315 398.151>
VStem: 206 240<1191.8 1361.12>
DStem2: 90 0 263 0 0.121869 0.992546<21.0834 985.091>
AnchorPoint: "Ancre-5" 564 1492 basechar 0
AnchorPoint: "Ancre-2" 564 1515 basechar 0
AnchorPoint: "Ancre-3" 564 -510 basechar 0
AnchorPoint: "Ancre-1" 180 10 basechar 0
AnchorPoint: "Ancre-0" 363 1515 basechar 0
LayerCount: 2
Fore
SplineSet
381 978 m 1,0,-1
 263 0 l 1,1,-1
 90 0 l 1,2,-1
 208 978 l 1,3,-1
 381 978 l 1,0,-1
408.5 1198.5 m 128,-1,5
 371 1161 371 1161 324 1161 c 0,6,7
 278 1161 278 1161 242 1198.5 c 128,-1,8
 206 1236 206 1236 206 1284 c 0,9,10
 206 1334 206 1334 232 1362 c 0,11,12
 278 1409 278 1409 325 1409 c 128,-1,13
 372 1409 372 1409 399 1382 c 0,14,15
 446 1335 446 1335 446 1285.5 c 128,-1,4
 446 1236 446 1236 408.5 1198.5 c 128,-1,5
EndSplineSet
Validated: 1
Substitution2: "sous-table 'smcp' Bas-de-casse vers petites capitales dans Latin lookup 0" i.smcp
Substitution2: "sous-table 'ordn' Ordinaux dans Latin lookup 39" i.superior
Substitution2: "sous-table 'sups' Exposant lookups25" i.superior
Substitution2: "sous-table Substitution simple lookups1" dotlessi
EndChar

StartChar: iogonek
Encoding: 303 303 99
Width: 470
GlyphClass: 2
Flags: MW
AnchorPoint: "Ancre-0" 238 1534 basechar 0
AnchorPoint: "Ancre-2" 470 1515 basechar 0
AnchorPoint: "Ancre-3" 470 -510 basechar 0
AnchorPoint: "Ancre-4" 235 550 basechar 0
AnchorPoint: "Ancre-5" 470 1534 basechar 0
LayerCount: 2
Fore
SplineSet
290 -280 m 5,0,1
 222 -330 222 -330 138 -330 c 132,-1,2
 54 -330 54 -330 14 -296 c 132,-1,3
 -26 -262 -26 -262 -26 -218 c 4,4,5
 -26 -89 -26 -89 121 0 c 5,6,-1
 90 0 l 5,7,-1
 208 978 l 5,8,-1
 381 978 l 5,9,-1
 263 0 l 5,10,-1
 227 0 l 5,11,12
 148 -44 148 -44 118 -108 c 4,13,14
 106 -132 106 -132 106 -161.5 c 132,-1,15
 106 -191 106 -191 124.5 -209.5 c 132,-1,16
 143 -228 143 -228 168.5 -228 c 132,-1,17
 194 -228 194 -228 208 -224.5 c 132,-1,18
 222 -221 222 -221 231 -216.5 c 132,-1,19
 240 -212 240 -212 245.5 -208.5 c 132,-1,20
 251 -205 251 -205 255 -205 c 4,21,22
 269 -205 269 -205 272 -217 c 6,23,-1
 290 -280 l 5,0,1
408.5 1198.5 m 132,-1,25
 371 1161 371 1161 324 1161 c 4,26,27
 278 1161 278 1161 242 1198.5 c 132,-1,28
 206 1236 206 1236 206 1284 c 4,29,30
 206 1334 206 1334 232 1362 c 4,31,32
 278 1409 278 1409 325 1409 c 132,-1,33
 372 1409 372 1409 399 1382 c 4,34,35
 446 1335 446 1335 446 1285.5 c 132,-1,24
 446 1236 446 1236 408.5 1198.5 c 132,-1,25
EndSplineSet
Validated: 1
Substitution2: "sous-table 'smcp' Bas-de-casse vers petites capitales dans Latin lookup 0" iogonek.smcp
LCarets2: 1 0
Ligature2: "sous-table 'ccmp' Composition et d+AOkA-composition de glyphe (CJK) lookups10" i uni0328
Substitution2: "sous-table Substitution simple lookups1" glyph499
EndChar

StartChar: dotlessi
Encoding: 305 305 100
Width: 423
GlyphClass: 2
Flags: W
AnchorPoint: "Ancre-5" 463 1073 basechar 0
AnchorPoint: "Ancre-4" 228 522 basechar 0
AnchorPoint: "Ancre-3" 463 -510 basechar 0
AnchorPoint: "Ancre-2" 463 1466 basechar 0
AnchorPoint: "Ancre-1" 231 9 basechar 0
AnchorPoint: "Ancre-0" 356 1073 basechar 0
LayerCount: 2
Fore
SplineSet
398 929 m 1,0,-1
 284 0 l 1,1,-1
 127 0 l 1,2,-1
 241 929 l 1,3,-1
 398 929 l 1,0,-1
EndSplineSet
Validated: 1
EndChar

StartChar: ij.salt
Encoding: 1114145 -1 101
Width: 1051
GlyphClass: 2
Flags: MW
LayerCount: 2
Fore
SplineSet
704 103 m 1,0,1
 498 -15 498 -15 439 -15 c 0,2,3
 434 -15 434 -15 429 -14 c 0,4,5
 264 -14 264 -14 194 84 c 0,6,7
 140 160 140 160 140 281 c 0,8,9
 140 316 140 316 144 354 c 2,10,-1
 219 977 l 1,11,-1
 390 977 l 1,12,-1
 314 354 l 2,13,14
 310 325 310 325 310 299 c 0,15,16
 310 120 310 120 493 120 c 0,17,18
 567 120 567 120 617.5 146 c 128,-1,19
 668 172 668 172 721 236 c 1,20,-1
 812 977 l 1,21,-1
 982 977 l 1,22,-1
 862 2 l 2,23,24
 830 -250 830 -250 618 -324 c 0,25,26
 546 -350 546 -350 461 -350 c 128,-1,27
 376 -350 376 -350 327 -331 c 1,28,-1
 351 -240 l 2,29,30
 356 -224 356 -224 368 -222 c 0,31,32
 377 -221 377 -221 388 -221 c 0,33,34
 391 -222 391 -222 395 -222 c 2,35,-1
 430 -222 l 2,36,37
 547 -222 547 -222 612 -169 c 128,-1,38
 677 -116 677 -116 692 2 c 2,39,-1
 704 103 l 1,0,1
936 1408 m 0,40,41
 1024 1408 1024 1408 1052 1340 c 0,42,43
 1060 1320 1060 1320 1061 1294 c 0,44,45
 1061 1242 1061 1242 1018.5 1203.5 c 128,-1,46
 976 1165 976 1165 938 1165 c 0,47,48
 876 1165 876 1165 845 1198 c 0,49,50
 814 1230 814 1230 814 1265 c 0,51,52
 814 1329 814 1329 856 1369 c 0,53,54
 898 1408 898 1408 936 1408 c 0,40,41
346 1408 m 0,55,56
 433 1408 433 1408 463 1340 c 0,57,58
 472 1320 472 1320 472 1294 c 0,59,60
 472 1241 472 1241 430 1203 c 128,-1,61
 388 1165 388 1165 349 1165 c 0,62,63
 287 1165 287 1165 256.5 1197.5 c 128,-1,64
 226 1230 226 1230 226 1266 c 0,65,66
 226 1330 226 1330 267 1369 c 128,-1,67
 308 1408 308 1408 346 1408 c 0,55,56
EndSplineSet
Validated: 1
Ligature2: "sous-table 'dlig' Ligatures facultatives  dans Latin lookup 36" i j
EndChar

StartChar: j
Encoding: 106 106 102
Width: 490
GlyphClass: 2
Flags: W
AnchorPoint: "Ancre-5" 587 1492 basechar 0
AnchorPoint: "Ancre-2" 587 1515 basechar 0
AnchorPoint: "Ancre-3" 587 -510 basechar 0
AnchorPoint: "Ancre-1" 225 -307 basechar 0
AnchorPoint: "Ancre-0" 402 1515 basechar 0
LayerCount: 2
Fore
SplineSet
390 978 m 1,0,-1
 261 -71 l 2,1,2
 246 -194 246 -194 167.5 -272.5 c 128,-1,3
 89 -351 89 -351 -43 -351 c 0,4,5
 -108 -351 -108 -351 -154 -332 c 1,6,-1
 -135 -238 l 2,7,8
 -130 -219 -130 -219 -116 -219 c 2,9,-1
 -67 -219 l 2,10,11
 7 -219 7 -219 42.5 -184 c 128,-1,12
 78 -149 78 -149 88 -71 c 2,13,-1
 218 978 l 1,14,-1
 390 978 l 1,0,-1
318 1409 m 0,15,16
 410 1409 410 1409 444 1332 c 0,17,18
 454 1309 454 1309 454 1284 c 0,19,20
 454 1234 454 1234 416 1198 c 128,-1,21
 378 1162 378 1162 331 1161 c 0,22,23
 283 1161 283 1161 246 1198 c 128,-1,24
 209 1235 209 1235 209 1285 c 0,25,26
 210 1334 210 1334 236 1362 c 0,27,28
 282 1409 282 1409 318 1409 c 0,15,16
EndSplineSet
Validated: 1
Substitution2: "sous-table 'smcp' Bas-de-casse vers petites capitales dans Latin lookup 0" j.smcp
Substitution2: "sous-table 'ordn' Ordinaux dans Latin lookup 39" j.superior
Substitution2: "sous-table 'sups' Exposant lookups25" j.superior
Substitution2: "sous-table Substitution simple lookups2" uni0237
EndChar

StartChar: uni0237
Encoding: 567 567 103
Width: 430
GlyphClass: 2
Flags: W
AnchorPoint: "Ancre-0" 376 1073 basechar 0
AnchorPoint: "Ancre-1" 176 -356 basechar 0
AnchorPoint: "Ancre-2" 484 1466 basechar 0
AnchorPoint: "Ancre-3" 484 -510 basechar 0
AnchorPoint: "Ancre-5" 484 1485 basechar 0
LayerCount: 2
Fore
SplineSet
410 929 m 1,0,-1
 286 -81 l 2,1,2
 279 -138 279 -138 259 -187 c 128,-1,3
 239 -236 239 -236 205 -272.5 c 128,-1,4
 171 -309 171 -309 121.5 -330 c 128,-1,5
 72 -351 72 -351 7 -351 c 0,6,7
 -21 -351 -21 -351 -43.5 -346.5 c 128,-1,8
 -66 -342 -66 -342 -88 -332 c 1,9,-1
 -68 -238 l 2,10,11
 -66 -229 -66 -229 -62.5 -224.5 c 128,-1,12
 -59 -220 -59 -220 -52.5 -219 c 128,-1,13
 -46 -218 -46 -218 -35.5 -218.5 c 128,-1,14
 -25 -219 -25 -219 -9 -219 c 0,15,16
 56 -219 56 -219 88.5 -185.5 c 128,-1,17
 121 -152 121 -152 130 -77 c 2,18,-1
 254 929 l 1,19,-1
 410 929 l 1,0,-1
EndSplineSet
Validated: 1
EndChar

StartChar: k
Encoding: 107 107 104
Width: 931
GlyphClass: 2
Flags: W
HStem: 0 21G<75 250.441 687 857> 467 119<319 377.106> 958 20G<780 953> 1402 20G<246.553 422>
DStem2: 75 0 248 0 0.121869 0.992546<21.0834 491.549 611.368 1432.61> 857 0 402 434 0.51214 -0.858902<-639.137 -74.4204> 409 613 579 594 0.697717 0.716373<26.9215 553.166>
AnchorPoint: "Ancre-5" 931 1538 basechar 0
AnchorPoint: "Ancre-2" 931 1515 basechar 0
AnchorPoint: "Ancre-3" 931 -510 basechar 0
AnchorPoint: "Ancre-1" 375 10 basechar 0
AnchorPoint: "Ancre-0" 578 1492 basechar 0
LayerCount: 2
Fore
SplineSet
422 1422 m 1,0,-1
 319 586 l 1,1,-1
 349 586 l 2,2,3
 384 586 384 586 409 613 c 2,4,-1
 730 944 l 2,5,6
 762 978 762 978 798 978 c 2,7,-1
 953 978 l 1,8,-1
 579 594 l 2,9,10
 547 560 547 560 518 543 c 1,11,12
 543 526 543 526 569 483 c 2,13,-1
 857 0 l 1,14,-1
 707 0 l 2,15,16
 667 0 667 0 647 33 c 2,17,-1
 402 434 l 2,18,19
 390 454 390 454 377.5 460.5 c 128,-1,20
 365 467 365 467 338 467 c 2,21,-1
 305 467 l 1,22,-1
 248 0 l 1,23,-1
 75 0 l 1,24,-1
 249 1422 l 1,25,-1
 422 1422 l 1,0,-1
EndSplineSet
Validated: 1
Substitution2: "sous-table 'smcp' Bas-de-casse vers petites capitales dans Latin lookup 0" k.smcp
Substitution2: "sous-table 'ordn' Ordinaux dans Latin lookup 39" k.superior
Substitution2: "sous-table 'sups' Exposant lookups25" k.superior
EndChar

StartChar: kgreenlandic
Encoding: 312 312 105
Width: 809
GlyphClass: 2
Flags: W
LayerCount: 2
Fore
SplineSet
379 929 m 5,0,-1
 333 559 l 5,1,-1
 368 559 l 6,2,3
 384 559 384 559 395 564 c 132,-1,4
 406 569 406 569 419 585 c 6,5,-1
 681 897 l 6,6,7
 695 912 695 912 708.5 920.5 c 132,-1,8
 722 929 722 929 742 929 c 6,9,-1
 878 929 l 5,10,-1
 570 564 l 6,11,12
 556 550 556 550 542 538 c 132,-1,14
 528 526 528 526 514 516 c 5,15,16
 527 506 527 506 537 491 c 132,-1,17
 547 476 547 476 557 460 c 6,18,-1
 781 0 l 5,19,-1
 647 0 l 6,20,21
 629 0 629 0 616 7 c 132,-1,22
 603 14 603 14 594 31 c 6,23,-1
 411 409 l 6,24,25
 401 428 401 428 390.5 434 c 132,-1,26
 380 440 380 440 358 440 c 6,27,-1
 319 440 l 5,28,-1
 265 0 l 5,29,-1
 108 0 l 5,30,-1
 222 929 l 5,31,-1
 379 929 l 5,0,-1
EndSplineSet
Validated: 1
EndChar

StartChar: lslash
Encoding: 322 322 106
Width: 507
GlyphClass: 2
Flags: W
AnchorPoint: "Ancre-5" 511 1553 basechar 0
AnchorPoint: "Ancre-3" 511 -510 basechar 0
AnchorPoint: "Ancre-2" 511 1515 basechar 0
AnchorPoint: "Ancre-1" 276 10 basechar 0
AnchorPoint: "Ancre-0" 431 1553 basechar 0
LayerCount: 2
Fore
SplineSet
493 1422 m 1,0,-1
 430 909 l 1,1,-1
 552 974 l 1,2,-1
 540 874 l 2,3,4
 536 842 536 842 513 831 c 2,5,-1
 414 775 l 1,6,-1
 318 0 l 1,7,-1
 162 0 l 1,8,-1
 247 695 l 1,9,-1
 116 624 l 1,10,-1
 129 727 l 2,11,12
 132 754 132 754 153 766 c 2,13,-1
 263 828 l 1,14,-1
 336 1422 l 1,15,-1
 493 1422 l 1,0,-1
EndSplineSet
Validated: 1
Substitution2: "sous-table 'smcp' Bas-de-casse vers petites capitales dans Latin lookup 0" lslash.smcp
EndChar

StartChar: m
Encoding: 109 109 108
Width: 1620
GlyphClass: 2
Flags: W
HStem: 0 21G<77 250.355 669 844.333 1262 1437.38> 847 145<528.631 727.771 1108.69 1320.08>
VStem: 194 145<920 977.972> 749 153<511.358 622.645 725 829.036> 1342 173<511.358 824.153>
DStem2: 77 0 248 0 0.121869 0.992546<20.8397 677.123 762.845 945.072> 669 0 842 0 0.121869 0.992546<21.0834 693.492> 1262 0 1435 0 0.121869 0.992546<21.0834 695.903>
AnchorPoint: "Ancre-5" 1620 1492 basechar 0
AnchorPoint: "Ancre-2" 1620 1515 basechar 0
AnchorPoint: "Ancre-3" 1620 -510 basechar 0
AnchorPoint: "Ancre-1" 728 10 basechar 0
AnchorPoint: "Ancre-0" 956 1073 basechar 0
LayerCount: 2
Fore
SplineSet
902 725 m 1,0,1
 1052 992 1052 992 1283.5 992 c 128,-1,2
 1515 992 1515 992 1515 717 c 0,3,4
 1515 673 1515 673 1509 623 c 2,5,-1
 1435 0 l 1,6,-1
 1262 0 l 1,7,-1
 1336 623 l 2,8,9
 1342 670 1342 670 1342 692 c 0,10,11
 1342 759 1342 759 1328 792 c 0,12,13
 1303 847 1303 847 1225 847 c 0,14,15
 1080 846 1080 846 968 662 c 0,16,17
 932 602 932 602 903 523 c 1,18,-1
 842 0 l 1,19,-1
 669 0 l 1,20,-1
 742 623 l 2,21,22
 749 676 749 676 749 698 c 0,23,24
 749 762 749 762 736 792 c 0,25,26
 713 847 713 847 635 847 c 0,27,28
 484 847 484 847 372 646 c 0,29,30
 336 582 336 582 307 501 c 1,31,-1
 248 0 l 1,32,-1
 77 0 l 1,33,-1
 194 979 l 1,34,-1
 280 979 l 2,35,36
 339 979 339 979 339 927 c 2,37,-1
 339 920 l 1,38,-1
 326 738 l 1,39,40
 480 992 480 992 694 992 c 0,41,42
 902 992 902 992 902 725 c 1,0,1
EndSplineSet
Validated: 1
Substitution2: "sous-table 'smcp' Bas-de-casse vers petites capitales dans Latin lookup 0" m.smcp
Substitution2: "sous-table 'ordn' Ordinaux dans Latin lookup 39" m.superior
Substitution2: "sous-table 'sups' Exposant lookups25" m.superior
EndChar

StartChar: n
Encoding: 110 110 109
Width: 1053
GlyphClass: 2
Flags: W
AnchorPoint: "Ancre-1" 467 10 basechar 0
AnchorPoint: "Ancre-0" 658 1073 basechar 0
AnchorPoint: "Ancre-2" 1053 1515 basechar 0
AnchorPoint: "Ancre-3" 1053 -510 basechar 0
AnchorPoint: "Ancre-5" 1053 1492 basechar 0
LayerCount: 2
Fore
SplineSet
779 694 m 0,0,1
 779 847 779 847 650 847 c 0,2,3
 552 846 552 846 453 747 c 128,-1,4
 354 648 354 648 302 493 c 1,5,-1
 247 0 l 1,6,-1
 72 0 l 1,7,-1
 189 979 l 1,8,-1
 276 979 l 2,9,10
 334 979 334 979 334 927 c 2,11,-1
 334 920 l 1,12,-1
 321 728 l 1,13,14
 401 859 401 859 503.5 925.5 c 128,-1,15
 606 992 606 992 725 992 c 128,-1,16
 844 992 844 992 906 896 c 0,17,18
 954 822 954 822 954 705 c 0,19,20
 954 667 954 667 949 623 c 2,21,-1
 876 0 l 1,22,-1
 701 0 l 1,23,-1
 774 623 l 2,24,25
 779 662 779 662 779 694 c 0,0,1
EndSplineSet
Validated: 1
Substitution2: "sous-table 'smcp' Bas-de-casse vers petites capitales dans Latin lookup 0" n.smcp
Substitution2: "sous-table 'ordn' Ordinaux dans Latin lookup 39" uni207F
Substitution2: "sous-table 'sups' Exposant lookups25" uni207F
EndChar

StartChar: eng
Encoding: 331 331 110
Width: 946
GlyphClass: 2
Flags: W
AnchorPoint: "Ancre-5" 1055 1073 basechar 0
AnchorPoint: "Ancre-3" 1055 -510 basechar 0
AnchorPoint: "Ancre-2" 1055 1466 basechar 0
AnchorPoint: "Ancre-1" 561 -0 basechar 0
AnchorPoint: "Ancre-0" 523 1073 basechar 0
LayerCount: 2
Fore
SplineSet
120 -10 m 5,0,-1
 235 929 l 5,1,-1
 329 929 l 6,2,3
 346 929 346 929 355.5 920.5 c 132,-1,4
 365 912 365 912 364 893 c 6,5,-1
 365 790 l 5,6,7
 427 860 427 860 499 902 c 132,-1,8
 571 944 571 944 658 944 c 4,9,10
 726 944 726 944 776 918.5 c 132,-1,11
 826 893 826 893 857 846.5 c 132,-1,12
 888 800 888 800 898 734 c 4,13,14
 903 700 903 700 904 663 c 4,15,16
 904 627 904 627 899 588 c 6,17,-1
 825 -12 l 6,18,19
 816 -88 816 -88 791 -150.5 c 132,-1,20
 766 -213 766 -213 725 -258 c 132,-1,21
 684 -303 684 -303 627.5 -327.5 c 132,-1,22
 571 -352 571 -352 501 -352 c 4,23,24
 462 -352 462 -352 431 -343.5 c 132,-1,25
 400 -335 400 -335 366 -317 c 5,26,-1
 392 -241 l 6,27,28
 399 -219 399 -219 409 -213 c 132,-1,29
 419 -207 419 -207 430 -207 c 4,30,31
 440 -207 440 -207 456.5 -213.5 c 132,-1,32
 473 -220 473 -220 504 -220 c 4,33,34
 572 -220 572 -220 613.5 -173 c 132,-1,35
 655 -126 655 -126 667 -27 c 6,36,-1
 742 585 l 6,37,38
 745 613 745 613 745 637 c 4,39,40
 745 639 745 639 745 642 c 4,41,42
 745 644 745 644 745 647 c 4,43,44
 745 706 745 706 720 747 c 4,45,46
 685 805 685 805 598 805 c 4,47,48
 534 805 534 805 474 771 c 132,-1,49
 414 737 414 737 361 677 c 5,50,-1
 276 -10 l 5,51,-1
 120 -10 l 5,0,-1
EndSplineSet
Validated: 1
Substitution2: "sous-table 'smcp' Bas-de-casse vers petites capitales dans Latin lookup 0" eng.smcp
EndChar

StartChar: o
Encoding: 111 111 111
Width: 1051
GlyphClass: 2
Flags: W
AnchorPoint: "Ancre-1" 439 10 basechar 0
AnchorPoint: "Ancre-0" 638 1073 basechar 0
AnchorPoint: "Ancre-2" 1053 1515 basechar 0
AnchorPoint: "Ancre-3" 1053 -510 basechar 0
AnchorPoint: "Ancre-5" 1053 1492 basechar 0
LayerCount: 2
Fore
SplineSet
467 123 m 6,0,-1
 469 123 l 6,1,2
 618 123 618 123 714 258 c 4,3,4
 809 392 809 392 809 577 c 4,5,6
 809 718 809 718 748 787 c 4,7,8
 688 856 688 856 592 856 c 4,9,10
 423 856 423 856 327.5 721 c 132,-1,11
 232 586 232 586 232 400 c 4,12,13
 232 263 232 263 292.5 193 c 132,-1,14
 353 123 353 123 467 123 c 6,0,-1
662.5 33.5 m 132,-1,16
 565 -14 565 -14 465 -14 c 4,17,18
 273 -14 273 -14 164.5 96.5 c 132,-1,19
 56 207 56 207 56 399 c 4,20,21
 56 646 56 646 209.5 819 c 132,-1,22
 363 992 363 992 588 993 c 4,23,24
 766 992 766 992 876 882 c 4,25,26
 985 773 985 773 985 584 c 6,27,-1
 985 580 l 5,28,-1
 985 578 l 6,29,30
 985 335 985 335 832 162 c 4,31,15
 760 81 760 81 662.5 33.5 c 132,-1,16
EndSplineSet
Validated: 1
Substitution2: "sous-table 'smcp' Bas-de-casse vers petites capitales dans Latin lookup 0" o.smcp
Substitution2: "sous-table 'ordn' Ordinaux dans Latin lookup 39" o.superior
Substitution2: "sous-table 'sups' Exposant lookups25" o.superior
EndChar

StartChar: oslash
Encoding: 248 248 112
Width: 1084
GlyphClass: 2
Flags: MW
AnchorPoint: "Ancre-5" 1080 1122 basechar 0
AnchorPoint: "Ancre-4" 918 550 basechar 0
AnchorPoint: "Ancre-3" 1080 -510 basechar 0
AnchorPoint: "Ancre-2" 1080 1515 basechar 0
AnchorPoint: "Ancre-1" 540 0 basechar 0
AnchorPoint: "Ancre-0" 540 1122 basechar 0
LayerCount: 2
Fore
SplineSet
885 854 m 1,0,1
 945 788 945 788 977 696.5 c 128,-1,2
 1009 605 1009 605 1009 490 c 0,3,4
 1009 374 1009 374 976.5 281 c 128,-1,5
 944 188 944 188 883.5 122.5 c 128,-1,6
 823 57 823 57 736.5 21.5 c 128,-1,7
 650 -14 650 -14 543 -14 c 0,8,9
 470 -14 470 -14 407.5 2 c 128,-1,10
 345 18 345 18 292 49 c 1,11,-1
 241 -21 l 2,12,13
 220 -50 220 -50 190.5 -62 c 128,-1,14
 161 -74 161 -74 132 -74 c 2,15,-1
 66 -74 l 1,16,-1
 206 117 l 1,17,18
 143 183 143 183 109 277.5 c 128,-1,19
 75 372 75 372 75 490 c 0,20,21
 75 605 75 605 108 698 c 128,-1,22
 141 791 141 791 201.5 856.5 c 128,-1,23
 262 922 262 922 348.5 957.5 c 128,-1,24
 435 993 435 993 543 993 c 0,25,26
 618 993 618 993 682.5 975.5 c 128,-1,27
 747 958 747 958 801 924 c 1,28,-1
 866 1012 l 2,29,30
 885 1038 885 1038 901.5 1049 c 128,-1,31
 918 1060 918 1060 950 1060 c 2,32,-1
 1037 1060 l 1,33,-1
 885 854 l 1,0,1
245 489 m 0,34,35
 245 336 245 336 300 244 c 1,36,-1
 717 810 l 1,37,38
 647 862 647 862 543 862 c 0,39,40
 471 862 471 862 415 836 c 128,-1,41
 359 810 359 810 321.5 762 c 128,-1,42
 284 714 284 714 264.5 645 c 128,-1,43
 245 576 245 576 245 489 c 0,34,35
543 118 m 0,44,45
 615 118 615 118 670 143.5 c 128,-1,46
 725 169 725 169 762.5 217 c 128,-1,47
 800 265 800 265 819 333.5 c 128,-1,48
 838 402 838 402 838 489 c 0,49,50
 838 631 838 631 789 723 c 1,51,-1
 376 163 l 1,52,53
 443 118 443 118 543 118 c 0,44,45
EndSplineSet
Validated: 1
Substitution2: "sous-table 'smcp' Bas-de-casse vers petites capitales dans Latin lookup 0" oslash.smcp
EndChar

StartChar: oe
Encoding: 339 339 113
Width: 1668
GlyphClass: 2
Flags: MW
LayerCount: 2
Fore
SplineSet
914 795 m 1,0,1
 1055 992 1055 992 1312 992 c 0,2,3
 1451 992 1451 992 1534 927.5 c 128,-1,4
 1617 863 1617 863 1617 758 c 0,5,6
 1617 628 1617 628 1482 554 c 0,7,8
 1321 466 1321 466 940 430 c 1,9,10
 940 276 940 276 1009 200 c 128,-1,11
 1078 124 1078 124 1204 124 c 128,-1,12
 1330 124 1330 124 1426 188 c 0,13,14
 1451 204 1451 204 1484.5 227.5 c 128,-1,15
 1518 251 1518 251 1539 251 c 128,-1,16
 1560 251 1560 251 1574 234 c 2,17,-1
 1618 181 l 1,18,19
 1461 30 1461 30 1295 -2 c 0,20,21
 1236 -14 1236 -14 1168 -14 c 0,22,23
 1052 -14 1052 -14 964.5 44 c 128,-1,24
 877 102 877 102 835 219 c 1,25,26
 684 -14 684 -14 400 -14 c 0,27,28
 230 -14 230 -14 138 90 c 128,-1,29
 46 194 46 194 46 350 c 0,30,31
 46 650 46 650 204.5 821 c 128,-1,32
 363 992 363 992 601 992 c 0,33,34
 719 992 719 992 798 940 c 128,-1,35
 877 888 877 888 914 795 c 1,0,1
336 138 m 0,36,37
 377 118 377 118 448 118 c 2,38,-1
 452 118 l 2,39,40
 607 119 607 119 699.5 242.5 c 128,-1,41
 792 366 792 366 804 574 c 0,42,43
 805 592 805 592 806 609 c 0,44,45
 806 786 806 786 689 840 c 0,46,47
 646 860 646 860 574 860 c 128,-1,48
 502 860 502 860 434 825 c 128,-1,49
 366 790 366 790 317 724 c 0,50,51
 218 589 218 589 218 360 c 0,52,53
 218 193 218 193 336 138 c 0,36,37
1065 781 m 128,-1,55
 974 694 974 694 948 540 c 1,56,57
 1374 586 1374 586 1450 692 c 0,58,59
 1472 722 1472 722 1472 752 c 0,60,61
 1472 774 1472 774 1460 797 c 0,62,63
 1423 868 1423 868 1289.5 868 c 128,-1,54
 1156 868 1156 868 1065 781 c 128,-1,55
EndSplineSet
Validated: 1
Substitution2: "sous-table 'smcp' Bas-de-casse vers petites capitales dans Latin lookup 0" oe.smcp
EndChar

StartChar: p
Encoding: 112 112 114
Width: 1053
GlyphClass: 2
Flags: W
AnchorPoint: "Ancre-1" 91 -320 basechar 0
AnchorPoint: "Ancre-0" 685 1073 basechar 0
AnchorPoint: "Ancre-2" 1053 1515 basechar 0
AnchorPoint: "Ancre-3" 1053 -510 basechar 0
AnchorPoint: "Ancre-5" 1053 1492 basechar 0
LayerCount: 2
Fore
SplineSet
503 -14 m 0,0,1
 348 -14 348 -14 256 97 c 1,2,-1
 204 -330 l 1,3,-1
 33 -330 l 1,4,-1
 192 979 l 1,5,-1
 280 979 l 2,6,7
 338 979 338 979 338 927 c 2,8,-1
 338 920 l 1,9,-1
 322 709 l 1,10,11
 446 913 446 913 608 972 c 0,12,13
 663 992 663 992 720 992 c 0,14,15
 854 992 854 992 927 900.5 c 128,-1,16
 1000 809 1000 809 1000 632 c 0,17,18
 1000 386 1000 386 858 190 c 0,19,20
 766 63 766 63 638 12 c 0,21,22
 574 -14 574 -14 503 -14 c 0,0,1
270 217 m 1,23,24
 342 122 342 122 486 122 c 128,-1,25
 630 122 630 122 728 277.5 c 128,-1,26
 826 433 826 433 826 616 c 0,27,28
 826 732 826 732 781.5 792 c 128,-1,29
 737 852 737 852 646.5 852 c 128,-1,30
 556 852 556 852 457 742.5 c 128,-1,31
 358 633 358 633 300 462 c 1,32,-1
 270 217 l 1,23,24
EndSplineSet
Validated: 1
Substitution2: "sous-table 'smcp' Bas-de-casse vers petites capitales dans Latin lookup 0" p.smcp
Substitution2: "sous-table 'ordn' Ordinaux dans Latin lookup 39" p.superior
Substitution2: "sous-table 'sups' Exposant lookups25" p.superior
EndChar

StartChar: thorn
Encoding: 254 254 115
Width: 1076
GlyphClass: 2
Flags: MW
LayerCount: 2
Fore
SplineSet
144 -330 m 1,0,-1
 144 1422 l 1,1,-1
 320 1422 l 1,2,-1
 320 839 l 1,3,4
 380 910 380 910 458 951.5 c 128,-1,5
 536 993 536 993 636 993 c 0,6,7
 719 993 719 993 786.5 961 c 128,-1,8
 854 929 854 929 902 866.5 c 128,-1,9
 950 804 950 804 976 711 c 128,-1,10
 1002 618 1002 618 1002 496 c 0,11,12
 1002 388 1002 388 973 294.5 c 128,-1,13
 944 201 944 201 890 132.5 c 128,-1,14
 836 64 836 64 758.5 25 c 128,-1,15
 681 -14 681 -14 583 -14 c 0,16,17
 493 -14 493 -14 431 19.5 c 128,-1,18
 369 53 369 53 320 113 c 1,19,-1
 320 -330 l 1,20,-1
 144 -330 l 1,0,-1
578 854 m 0,21,22
 496 854 496 854 434 816 c 128,-1,23
 372 778 372 778 320 708 c 1,24,-1
 320 236 l 1,25,26
 366 173 366 173 421 147.5 c 128,-1,27
 476 122 476 122 544 122 c 0,28,29
 677 122 677 122 749 219 c 128,-1,30
 821 316 821 316 821 496 c 0,31,32
 821 591 821 591 804.5 659 c 128,-1,33
 788 727 788 727 757 770.5 c 128,-1,34
 726 814 726 814 680.5 834 c 128,-1,35
 635 854 635 854 578 854 c 0,21,22
EndSplineSet
Validated: 1
Substitution2: "sous-table 'smcp' Bas-de-casse vers petites capitales dans Latin lookup 0" thorn.smcp
EndChar

StartChar: q
Encoding: 113 113 116
Width: 1053
GlyphClass: 2
Flags: W
AnchorPoint: "Ancre-1" 709 -314 basechar 0
AnchorPoint: "Ancre-0" 668 1073 basechar 0
AnchorPoint: "Ancre-2" 1053 1515 basechar 0
AnchorPoint: "Ancre-3" 1053 -510 basechar 0
AnchorPoint: "Ancre-5" 1053 1492 basechar 0
LayerCount: 2
Fore
SplineSet
703 245 m 1,0,1
 546 -14 546 -14 324 -14 c 0,2,3
 198 -14 198 -14 123 77 c 128,-1,4
 48 168 48 168 48 338 c 128,-1,5
 48 508 48 508 138 660 c 0,6,7
 275 892 275 892 532 966 c 0,8,9
 617 990 617 990 738 990 c 0,10,11
 739 990 739 990 741 991 c 0,12,13
 860 991 860 991 963 946 c 1,14,-1
 806 -330 l 1,15,-1
 696 -330 l 2,16,17
 660 -330 660 -330 648 -308 c 0,18,19
 639 -291 639 -291 638 -270 c 0,20,21
 638 -264 638 -264 639 -257 c 2,22,-1
 703 245 l 1,0,1
781 856 m 1,23,24
 735 864 735 864 663 864 c 128,-1,25
 591 864 591 864 507 823 c 128,-1,26
 423 782 423 782 360 714 c 0,27,28
 224 566 224 566 224 367 c 0,29,30
 224 132 224 132 393 132 c 0,31,32
 494 132 494 132 586.5 240.5 c 128,-1,33
 679 349 679 349 739 524 c 1,34,-1
 781 856 l 1,23,24
EndSplineSet
Validated: 1
Substitution2: "sous-table 'smcp' Bas-de-casse vers petites capitales dans Latin lookup 0" q.smcp
Substitution2: "sous-table 'ordn' Ordinaux dans Latin lookup 39" q.superior
Substitution2: "sous-table 'sups' Exposant lookups25" q.superior
EndChar

StartChar: r
Encoding: 114 114 117
Width: 702
GlyphClass: 2
Flags: W
AnchorPoint: "Ancre-5" 770 1492 basechar 0
AnchorPoint: "Ancre-2" 770 1515 basechar 0
AnchorPoint: "Ancre-3" 770 -510 basechar 0
AnchorPoint: "Ancre-1" 135 10 basechar 0
AnchorPoint: "Ancre-0" 487 1073 basechar 0
LayerCount: 2
Fore
SplineSet
320 699 m 1,0,1
 457 986 457 986 637 986 c 0,2,3
 678 986 678 986 720 969 c 1,4,-1
 689 800 l 1,5,6
 641 819 641 819 581 819 c 128,-1,7
 521 819 521 819 459 764 c 0,8,9
 360 677 360 677 297 447 c 1,10,-1
 244 0 l 1,11,-1
 72 0 l 1,12,-1
 190 979 l 1,13,-1
 277 979 l 2,14,15
 335 979 335 979 335 927 c 2,16,-1
 335 920 l 1,17,-1
 320 699 l 1,0,1
EndSplineSet
Validated: 1
Substitution2: "sous-table 'smcp' Bas-de-casse vers petites capitales dans Latin lookup 0" r.smcp
Substitution2: "sous-table 'ordn' Ordinaux dans Latin lookup 39" r.superior
Substitution2: "sous-table 'sups' Exposant lookups25" r.superior
EndChar

StartChar: s
Encoding: 115 115 118
Width: 797
GlyphClass: 2
Flags: W
AnchorPoint: "Ancre-5" 797 1492 basechar 0
AnchorPoint: "Ancre-2" 797 1515 basechar 0
AnchorPoint: "Ancre-3" 797 -510 basechar 0
AnchorPoint: "Ancre-1" 283 10 basechar 0
AnchorPoint: "Ancre-0" 520 1073 basechar 0
LayerCount: 2
Fore
SplineSet
734 820 m 2,0,1
 718 798 718 798 700.5 798 c 128,-1,2
 683 798 683 798 666.5 809 c 128,-1,3
 650 820 650 820 604 843 c 128,-1,4
 558 866 558 866 496 866 c 0,5,6
 494 866 494 866 493 867 c 0,7,8
 390 867 390 867 331 822 c 128,-1,9
 272 777 272 777 272 714 c 0,10,11
 272 632 272 632 410 570 c 0,12,13
 449 552 449 552 490 534 c 0,14,15
 593 490 593 490 650.5 445 c 128,-1,16
 708 400 708 400 708 328 c 0,17,18
 708 183 708 183 597 84.5 c 128,-1,19
 486 -14 486 -14 303 -14 c 0,20,21
 302 -14 302 -14 301 -15 c 0,22,23
 119 -15 119 -15 12 104 c 1,24,-1
 54 170 l 2,25,26
 71 197 71 197 93.5 197 c 128,-1,27
 116 197 116 197 132 182.5 c 128,-1,28
 148 168 148 168 174 152 c 0,29,30
 239 108 239 108 310 108 c 2,31,-1
 312 108 l 2,32,33
 434 109 434 109 493 159.5 c 128,-1,34
 552 210 552 210 552 272 c 128,-1,35
 552 334 552 334 520 365 c 0,36,37
 472 412 472 412 334 461 c 0,38,39
 278 482 278 482 230 508 c 0,40,41
 118 569 118 569 117 675 c 0,42,43
 118 804 118 804 221.5 898 c 128,-1,44
 325 992 325 992 496.5 992 c 128,-1,45
 668 992 668 992 777 883 c 1,46,-1
 734 820 l 2,0,1
EndSplineSet
Validated: 1
Substitution2: "sous-table 'sups' Exposant lookups25" s.superior
Substitution2: "sous-table 'ordn' Ordinaux dans Latin lookup 39" s.superior
Substitution2: "sous-table 'smcp' Bas-de-casse vers petites capitales dans Latin lookup 0" s.smcp
EndChar

StartChar: scedilla
Encoding: 351 351 119
Width: 797
GlyphClass: 2
Flags: MW
AnchorPoint: "Ancre-5" 801 1122 basechar 0
AnchorPoint: "Ancre-3" 801 -510 basechar 0
AnchorPoint: "Ancre-2" 801 1515 basechar 0
AnchorPoint: "Ancre-1" 382 -310 basechar 0
AnchorPoint: "Ancre-0" 418 1492 basechar 0
LayerCount: 2
Fore
SplineSet
114 -271 m 4,0,1
 120 -271 120 -271 126.5 -274.5 c 132,-1,2
 133 -278 133 -278 142.5 -282 c 132,-1,3
 152 -286 152 -286 165 -289.5 c 132,-1,4
 178 -293 178 -293 198 -293 c 4,5,6
 235 -293 235 -293 256 -277 c 132,-1,7
 277 -261 277 -261 280 -236 c 4,8,9
 281 -231 281 -231 281 -227 c 4,10,11
 281 -196 281 -196 249 -184 c 4,12,13
 213 -170 213 -170 145 -160 c 5,14,-1
 211 -7 l 5,15,16
 91 16 91 16 12 104 c 5,17,-1
 54 170 l 6,18,19
 71 197 71 197 93.5 197 c 132,-1,20
 116 197 116 197 132 182.5 c 132,-1,21
 148 168 148 168 174 152 c 4,22,23
 239 108 239 108 310 108 c 6,24,-1
 312 108 l 6,25,26
 434 109 434 109 493 159.5 c 132,-1,27
 552 210 552 210 552 272 c 132,-1,28
 552 334 552 334 520 365 c 4,29,30
 472 412 472 412 334 461 c 4,31,32
 278 482 278 482 230 508 c 4,33,34
 118 569 118 569 117 675 c 4,35,36
 118 804 118 804 221.5 898 c 132,-1,37
 325 992 325 992 496.5 992 c 132,-1,38
 668 992 668 992 777 883 c 5,39,-1
 734 820 l 6,40,41
 718 798 718 798 700.5 798 c 132,-1,42
 683 798 683 798 666.5 809 c 132,-1,43
 650 820 650 820 604 843 c 132,-1,44
 558 866 558 866 496 866 c 4,45,46
 494 866 494 866 493 867 c 4,47,48
 390 867 390 867 331 822 c 132,-1,49
 272 777 272 777 272 714 c 4,50,51
 272 632 272 632 410 570 c 4,52,53
 449 552 449 552 490 534 c 4,54,55
 593 490 593 490 650.5 445 c 132,-1,56
 708 400 708 400 708 328 c 4,57,58
 708 183 708 183 597 84.5 c 132,-1,59
 486 -14 486 -14 303 -14 c 4,60,61
 302 -14 302 -14 301 -15 c 6,62,-1
 268 -100 l 5,63,64
 350 -118 350 -118 382 -152 c 4,65,66
 409 -181 409 -181 409 -222 c 4,67,68
 409 -230 409 -230 408 -238 c 4,69,70
 404 -269 404 -269 386.5 -294 c 132,-1,71
 369 -319 369 -319 341.5 -336 c 132,-1,72
 314 -353 314 -353 276.5 -362.5 c 132,-1,73
 239 -372 239 -372 196 -372 c 4,74,75
 160 -372 160 -372 127.5 -364 c 132,-1,76
 95 -356 95 -356 69 -342 c 5,77,-1
 91 -288 l 6,78,79
 99 -271 99 -271 114 -271 c 4,0,1
EndSplineSet
Validated: 1
Substitution2: "sous-table 'smcp' Bas-de-casse vers petites capitales dans Latin lookup 0" scedilla.smcp
LCarets2: 1 0
Ligature2: "sous-table 'ccmp' Composition et d+AOkA-composition de glyphe (CJK) lookups10" s uni0327
Substitution2: "sous-table 'salt' Alternatives stylistiques dans Latin lookup 8" uni0219
EndChar

StartChar: s_t.dlig
Encoding: 1114146 -1 120
Width: 1445
GlyphClass: 3
Flags: MW
LayerCount: 2
Fore
SplineSet
1362 73 m 1,0,1
 1261 -15 1261 -15 1141 -15 c 0,2,3
 928 -15 928 -15 928 180 c 0,4,5
 928 205 928 205 932 234 c 2,6,-1
 1003 820 l 1,7,-1
 898 820 l 2,8,9
 884 820 884 820 874 829 c 0,10,11
 866 836 866 836 867 851 c 2,12,-1
 867 857 l 1,13,-1
 874 924 l 1,14,-1
 1024 943 l 1,15,-1
 1091 1161 l 2,16,17
 1109 1222 1109 1222 1109 1271 c 0,18,19
 1108 1326 1108 1326 1086 1364 c 0,20,21
 1043 1437 1043 1437 925 1437 c 1,22,-1
 924 1436 l 1,23,24
 804 1436 804 1436 724 1356 c 0,25,26
 642 1276 642 1276 634 1158 c 1,27,-1
 634 1146 l 1,28,-1
 634 1133 l 2,29,30
 634 1029 634 1029 698 937 c 1,31,32
 728 921 728 921 768 883 c 1,33,-1
 725 820 l 2,34,35
 709 798 709 798 691.5 798 c 128,-1,36
 674 798 674 798 657 809 c 128,-1,37
 640 820 640 820 594 843 c 128,-1,38
 548 866 548 866 487 866 c 0,39,40
 485 866 485 866 483 867 c 0,41,42
 381 867 381 867 323 822 c 0,43,44
 264 777 264 777 263 714 c 0,45,46
 263 632 263 632 401 570 c 0,47,48
 440 552 440 552 481 534 c 0,49,50
 584 490 584 490 641.5 445 c 128,-1,51
 699 400 699 400 699 329 c 0,52,53
 699 183 699 183 588.5 84.5 c 128,-1,54
 478 -14 478 -14 294 -14 c 0,55,56
 293 -14 293 -14 293 -15 c 1,57,58
 111 -15 111 -15 3 104 c 1,59,-1
 45 170 l 2,60,61
 62 197 62 197 85 197 c 0,62,63
 108 196 108 196 124 182 c 0,64,65
 206 108 206 108 289 108 c 2,66,-1
 290 108 l 2,67,68
 424 109 424 109 483 160 c 0,69,70
 543 211 543 211 543 274 c 0,71,72
 543 335 543 335 511 365 c 0,73,74
 462 412 462 412 365 447 c 128,-1,75
 268 482 268 482 220 508 c 0,76,77
 108 569 108 569 108 686.5 c 128,-1,78
 108 804 108 804 211.5 898 c 128,-1,79
 315 992 315 992 482 992 c 0,80,81
 536 992 536 992 579 982 c 1,82,83
 550 1058 550 1058 550 1131 c 0,84,85
 550 1234 550 1234 608 1332 c 0,86,87
 674 1440 674 1440 798 1485 c 0,88,89
 862 1508 862 1508 942 1508 c 0,90,91
 1094 1508 1094 1508 1165 1420 c 0,92,93
 1223 1348 1223 1348 1223 1244 c 0,94,95
 1223 1221 1223 1221 1220 1196 c 2,96,-1
 1188 943 l 1,97,-1
 1444 943 l 1,98,-1
 1430 820 l 1,99,-1
 1173 820 l 1,100,-1
 1103 245 l 2,101,102
 1101 229 1101 229 1101 216 c 0,103,104
 1101 176 1101 176 1118 153 c 0,105,106
 1141 122 1141 122 1174.5 122 c 128,-1,107
 1208 122 1208 122 1227 130 c 0,108,109
 1252 140 1252 140 1272 156 c 0,110,111
 1291 172 1291 172 1301 172 c 2,112,-1
 1302 172 l 2,113,114
 1312 172 1312 172 1321 154 c 2,115,-1
 1362 73 l 1,0,1
EndSplineSet
Validated: 1
Ligature2: "sous-table 'dlig' Ligatures facultatives  dans Latin lookup 36" s t
EndChar

StartChar: glyph121
Encoding: 1114147 -1 121
Width: 1445
GlyphClass: 3
Flags: MW
LayerCount: 2
Fore
SplineSet
339 -69 m 1,0,1
 474 -102 474 -102 474 -191 c 0,2,3
 474 -258 474 -258 415 -299 c 0,4,5
 357 -340 357 -340 275 -340 c 2,6,-1
 274 -340 l 2,7,8
 192 -340 192 -340 133 -308 c 1,9,-1
 156 -256 l 2,10,11
 164 -240 164 -240 175 -240 c 128,-1,12
 186 -240 186 -240 192 -244 c 128,-1,13
 198 -248 198 -248 214 -256 c 0,14,15
 229 -264 229 -264 260 -264 c 2,16,-1
 264 -264 l 2,17,18
 298 -264 298 -264 319 -244.5 c 128,-1,19
 340 -225 340 -225 340 -194.5 c 128,-1,20
 340 -164 340 -164 306 -150 c 128,-1,21
 272 -136 272 -136 208 -127 c 1,22,-1
 253 -13 l 1,23,24
 91 3 91 3 1 104 c 1,25,-1
 43 170 l 2,26,27
 60 197 60 197 83 197 c 0,28,29
 106 196 106 196 122 182 c 0,30,31
 204 108 204 108 287 108 c 2,32,-1
 288 108 l 2,33,34
 422 109 422 109 481 160 c 0,35,36
 541 211 541 211 541 274 c 0,37,38
 541 335 541 335 509 365 c 0,39,40
 460 412 460 412 363 447 c 128,-1,41
 266 482 266 482 218 508 c 0,42,43
 106 569 106 569 106 686.5 c 128,-1,44
 106 804 106 804 209.5 898 c 128,-1,45
 313 992 313 992 480 992 c 0,46,47
 529 992 529 992 573 983 c 1,48,49
 549 1050 549 1050 549 1124 c 0,50,51
 549 1287 549 1287 649 1398 c 0,52,53
 748 1509 748 1509 918 1509 c 0,54,55
 1088 1508 1088 1508 1159 1416 c 0,56,57
 1218 1340 1218 1340 1218 1236 c 0,58,59
 1218 1214 1218 1214 1215 1191 c 2,60,-1
 1186 958 l 1,61,-1
 1442 958 l 1,62,-1
 1426 835 l 1,63,-1
 1171 835 l 1,64,-1
 1099 245 l 2,65,66
 1097 229 1097 229 1097 215 c 0,67,68
 1098 175 1098 175 1114 153 c 0,69,70
 1136 123 1136 123 1168.5 123 c 128,-1,71
 1201 123 1201 123 1219.5 130.5 c 128,-1,72
 1238 138 1238 138 1251.5 146.5 c 128,-1,73
 1265 155 1265 155 1275 162.5 c 128,-1,74
 1285 170 1285 170 1295.5 170 c 128,-1,75
 1306 170 1306 170 1313 154 c 2,76,-1
 1354 73 l 1,77,78
 1253 -15 1253 -15 1134 -15 c 0,79,80
 924 -15 924 -15 924 180 c 0,81,82
 924 205 924 205 928 234 c 2,83,-1
 1001 835 l 1,84,-1
 897 835 l 2,85,86
 882 835 882 835 873 845 c 0,87,88
 866 853 866 853 866 867 c 2,89,-1
 866 873 l 1,90,-1
 874 940 l 1,91,-1
 1028 960 l 1,92,93
 1101 1147 1101 1147 1101 1259 c 0,94,95
 1101 1330 1101 1330 1072 1372 c 0,96,97
 1026 1436 1026 1436 938 1436 c 0,98,99
 786 1436 786 1436 708.5 1348 c 128,-1,100
 631 1260 631 1260 631 1146.5 c 128,-1,101
 631 1033 631 1033 691 940 c 1,102,103
 733 916 733 916 766 883 c 1,104,-1
 723 820 l 2,105,106
 707 798 707 798 689.5 798 c 128,-1,107
 672 798 672 798 655 809 c 128,-1,108
 638 820 638 820 592 843 c 128,-1,109
 546 866 546 866 485 866 c 0,110,111
 483 866 483 866 481 867 c 0,112,113
 379 867 379 867 321 822 c 0,114,115
 262 777 262 777 261 714 c 0,116,117
 261 632 261 632 399 570 c 0,118,119
 438 552 438 552 479 534 c 0,120,121
 582 490 582 490 639.5 445 c 128,-1,122
 697 400 697 400 697 331 c 0,123,124
 697 197 697 197 605.5 101.5 c 128,-1,125
 514 6 514 6 362 -11 c 1,126,-1
 339 -69 l 1,0,1
EndSplineSet
Validated: 1
EndChar

StartChar: germandbls
Encoding: 223 223 122
Width: 1080
GlyphClass: 2
Flags: W
LayerCount: 2
Fore
SplineSet
958 1317.5 m 128,-1,1
 1043 1232 1043 1232 1043 1126 c 0,2,3
 1042 973 1042 973 888 874 c 0,4,5
 790 811 790 811 762 778 c 128,-1,6
 734 745 734 745 734 710 c 128,-1,7
 734 675 734 675 755 654.5 c 128,-1,8
 776 634 776 634 808 616.5 c 128,-1,9
 840 599 840 599 877 580 c 0,10,11
 1020 507 1020 507 1020 343.5 c 128,-1,12
 1020 180 1020 180 910 82.5 c 128,-1,13
 800 -15 800 -15 638.5 -15 c 128,-1,14
 477 -15 477 -15 368 103 c 1,15,-1
 416 168 l 2,16,17
 432 193 432 193 456 193 c 0,18,19
 480 192 480 192 497 178 c 0,20,21
 584 104 584 104 647 104 c 2,22,-1
 648 104 l 2,23,24
 752 105 752 105 805 160.5 c 128,-1,25
 858 216 858 216 858 279 c 128,-1,26
 858 342 858 342 836 370 c 0,27,28
 801 413 801 413 733 441.5 c 128,-1,29
 665 470 665 470 631 496 c 0,30,31
 552 555 552 555 552 659 c 128,-1,32
 552 763 552 763 636 839 c 0,33,34
 672 872 672 872 715 899.5 c 128,-1,35
 758 927 758 927 794 958 c 0,36,37
 879 1030 879 1030 879 1128 c 0,38,39
 879 1224 879 1224 778 1264 c 0,40,41
 742 1278 742 1278 686 1278 c 0,42,43
 570 1278 570 1278 481.5 1160 c 128,-1,44
 393 1042 393 1042 373 873 c 2,45,-1
 269 32 l 1,46,-1
 222 -166 l 2,47,48
 206 -240 206 -240 133 -240 c 2,49,-1
 64 -240 l 1,50,-1
 195 831 l 1,51,-1
 88 845 l 2,52,53
 47 851 47 851 47 880 c 0,54,55
 47 884 47 884 48 888 c 2,56,-1
 56 958 l 1,57,-1
 216 958 l 1,58,59
 264 1144 264 1144 401 1273.5 c 128,-1,60
 538 1403 538 1403 705.5 1403 c 128,-1,0
 873 1403 873 1403 958 1317.5 c 128,-1,1
EndSplineSet
Validated: 1
Substitution2: "sous-table 'smcp' Bas-de-casse vers petites capitales dans Latin lookup 0" germandbls.smcp
EndChar

StartChar: longs
Encoding: 383 383 123
Width: 497
GlyphClass: 2
Flags: MW
LayerCount: 2
Fore
SplineSet
269 32 m 1,0,-1
 222 -166 l 2,1,2
 206 -240 206 -240 133 -240 c 2,3,-1
 65 -240 l 1,4,-1
 196 831 l 1,5,-1
 88 845 l 2,6,7
 47 851 47 851 47 880 c 0,8,9
 47 884 47 884 48 888 c 2,10,-1
 56 958 l 1,11,-1
 211 958 l 1,12,-1
 223 1053 l 2,13,14
 243 1218 243 1218 339.5 1310.5 c 128,-1,15
 436 1403 436 1403 586 1403 c 0,16,17
 642 1403 642 1403 698 1383 c 1,18,-1
 682 1296 l 2,19,20
 678 1277 678 1277 641 1277 c 2,21,-1
 630 1277 l 2,22,23
 616 1278 616 1278 586 1278 c 0,24,25
 513 1278 513 1278 461.5 1224 c 128,-1,26
 410 1170 410 1170 394 1048 c 2,27,-1
 269 32 l 1,0,-1
EndSplineSet
Validated: 1
EndChar

StartChar: t
Encoding: 116 116 124
Width: 686
GlyphClass: 2
Flags: W
AnchorPoint: "Ancre-5" 688 1538 basechar 0
AnchorPoint: "Ancre-2" 688 1515 basechar 0
AnchorPoint: "Ancre-3" 688 -510 basechar 0
AnchorPoint: "Ancre-1" 327 10 basechar 0
AnchorPoint: "Ancre-0" 487 1492 basechar 0
LayerCount: 2
Fore
SplineSet
605 73 m 1,0,1
 504 -15 504 -15 370 -15 c 0,2,3
 273 -15 273 -15 217 37 c 128,-1,4
 161 89 161 89 161 192 c 0,5,6
 161 240 161 240 175 346 c 2,7,-1
 235 832 l 1,8,-1
 122 832 l 2,9,10
 108 832 108 832 99 842 c 0,11,12
 92 850 92 850 92 864 c 2,13,-1
 92 871 l 1,14,-1
 100 941 l 1,15,-1
 256 962 l 1,16,-1
 330 1262 l 2,17,18
 341 1295 341 1295 371 1295 c 2,19,-1
 464 1295 l 1,20,-1
 423 960 l 1,21,-1
 689 960 l 1,22,-1
 674 832 l 1,23,-1
 407 832 l 1,24,-1
 348 355 l 2,25,26
 333 238 333 238 333 223 c 0,27,28
 333 128 333 128 423 128 c 0,29,30
 473 128 473 128 529 167 c 0,31,32
 539 174 539 174 549.5 174 c 128,-1,33
 560 174 560 174 567 157 c 2,34,-1
 605 73 l 1,0,1
EndSplineSet
Validated: 1
Substitution2: "sous-table 'smcp' Bas-de-casse vers petites capitales dans Latin lookup 0" t.smcp
Substitution2: "sous-table 'ordn' Ordinaux dans Latin lookup 39" t.superior
Substitution2: "sous-table 'sups' Exposant lookups25" t.superior
EndChar

StartChar: tbar
Encoding: 359 359 126
Width: 700
GlyphClass: 2
Flags: W
AnchorPoint: "Ancre-0" 299 1434 basechar 0
AnchorPoint: "Ancre-1" 421 0 basechar 0
AnchorPoint: "Ancre-2" 683 1515 basechar 0
AnchorPoint: "Ancre-3" 683 -510 basechar 0
AnchorPoint: "Ancre-5" 683 1434 basechar 0
LayerCount: 2
Fore
SplineSet
118 668 m 5,0,-1
 238 668 l 5,1,-1
 258 832 l 5,2,-1
 162 832 l 6,3,4
 149 832 149 832 141.5 842 c 132,-1,5
 134 852 134 852 136 871 c 6,6,-1
 145 941 l 5,7,-1
 279 961 l 5,8,-1
 353 1262 l 6,9,10
 357 1277 357 1277 367 1286 c 132,-1,11
 377 1295 377 1295 392 1295 c 6,12,-1
 472 1295 l 5,13,-1
 430 960 l 5,14,-1
 660 960 l 5,15,-1
 645 832 l 5,16,-1
 415 832 l 5,17,-1
 395 668 l 5,18,-1
 629 668 l 5,19,-1
 615 557 l 5,20,-1
 381 557 l 5,21,-1
 343 248 l 6,22,23
 341 232 341 232 341 218 c 4,24,25
 342 180 342 180 356 158 c 4,26,27
 376 128 376 128 413 128 c 4,28,29
 435 128 435 128 452 135 c 132,-1,30
 469 142 469 142 481 151 c 132,-1,31
 493 160 493 160 502 167 c 132,-1,32
 511 174 511 174 518 174 c 4,33,34
 526 174 526 174 530 170 c 132,-1,35
 534 166 534 166 537 157 c 6,36,-1
 571 73 l 5,37,38
 527 31 527 31 471 8 c 132,-1,39
 415 -15 415 -15 358 -15 c 4,40,41
 260 -15 260 -15 215 50 c 4,42,43
 181 99 181 99 181 179 c 4,44,45
 181 206 181 206 185 236 c 6,46,-1
 224 557 l 5,47,-1
 105 557 l 5,48,-1
 118 668 l 5,0,-1
EndSplineSet
Validated: 1
Substitution2: "sous-table 'smcp' Bas-de-casse vers petites capitales dans Latin lookup 0" tbar.smcp
EndChar

StartChar: t_f.liga
Encoding: 1114148 -1 127
Width: 1254
GlyphClass: 3
Flags: MW
LayerCount: 2
Fore
SplineSet
617 73 m 1,0,1
 516 -15 516 -15 392 -15 c 0,2,3
 175 -15 175 -15 175 181 c 0,4,5
 175 206 175 206 178 234 c 2,6,-1
 251 835 l 1,7,-1
 142 835 l 2,8,9
 127 835 127 835 118 845 c 0,10,11
 111 853 111 853 111 867 c 2,12,-1
 111 873 l 1,13,-1
 119 940 l 1,14,-1
 272 959 l 1,15,-1
 350 1263 l 2,16,17
 359 1295 359 1295 392 1295 c 2,18,-1
 478 1295 l 1,19,-1
 436 958 l 1,20,-1
 890 958 l 1,21,-1
 902 1054 l 2,22,23
 922 1220 922 1220 1019.5 1311 c 128,-1,24
 1117 1402 1117 1402 1266 1403 c 0,25,26
 1325 1403 1325 1403 1380 1384 c 1,27,-1
 1365 1299 l 2,28,29
 1361 1276 1361 1276 1338.5 1274.5 c 128,-1,30
 1316 1273 1316 1273 1276 1273 c 0,31,32
 1094 1273 1094 1273 1066 1048 c 2,33,-1
 1054 958 l 1,34,-1
 1320 958 l 1,35,-1
 1305 835 l 1,36,-1
 1045 835 l 1,37,-1
 942 0 l 1,38,-1
 773 0 l 1,39,-1
 875 835 l 1,40,-1
 421 835 l 1,41,-1
 349 245 l 2,42,43
 347 230 347 230 347 216 c 0,44,45
 348 175 348 175 366 153 c 0,46,47
 390 123 390 123 424.5 123 c 128,-1,48
 459 123 459 123 478.5 130.5 c 128,-1,49
 498 138 498 138 512 146.5 c 128,-1,50
 526 155 526 155 536 162.5 c 128,-1,51
 546 170 546 170 554 170 c 0,52,53
 566 170 566 170 576 154 c 2,54,-1
 617 73 l 1,0,1
EndSplineSet
Validated: 1
Ligature2: "sous-table 'liga' Ligatures standard dans Latin lookup 37" t f
EndChar

StartChar: t_iogonek.liga
Encoding: 1114149 -1 128
Width: 1141
GlyphClass: 3
Flags: MW
LayerCount: 2
Fore
SplineSet
615 73 m 1,0,1
 514 -15 514 -15 391 -15 c 0,2,3
 174 -15 174 -15 174 184 c 0,4,5
 174 208 174 208 177 234 c 2,6,-1
 251 835 l 1,7,-1
 141 835 l 2,8,9
 127 835 127 835 118 845 c 0,10,11
 111 853 111 853 111 867 c 2,12,-1
 111 873 l 1,13,-1
 119 940 l 1,14,-1
 272 959 l 1,15,-1
 350 1263 l 2,16,17
 359 1295 359 1295 392 1295 c 2,18,-1
 478 1295 l 1,19,-1
 436 958 l 1,20,-1
 1079 958 l 1,21,-1
 962 0 l 1,22,-1
 947 0 l 1,23,24
 865 -42 865 -42 833 -108 c 0,25,26
 821 -132 821 -132 821 -162 c 128,-1,27
 821 -192 821 -192 840.5 -210 c 128,-1,28
 860 -228 860 -228 887 -228 c 128,-1,29
 914 -228 914 -228 928 -224.5 c 128,-1,30
 942 -221 942 -221 951.5 -216.5 c 128,-1,31
 961 -212 961 -212 967 -208.5 c 128,-1,32
 973 -205 973 -205 978 -205 c 0,33,34
 991 -205 991 -205 994 -217 c 2,35,-1
 1014 -279 l 1,36,37
 944 -329 944 -329 857.5 -329 c 128,-1,38
 771 -329 771 -329 729.5 -296 c 128,-1,39
 688 -263 688 -263 688 -207 c 0,40,41
 688 -90 688 -90 840 0 c 1,42,-1
 791 0 l 1,43,-1
 894 835 l 1,44,-1
 421 835 l 1,45,-1
 349 245 l 2,46,47
 347 229 347 229 347 216 c 0,48,49
 347 174 347 174 365 152 c 0,50,51
 389 122 389 122 422 122 c 2,52,-1
 424 122 l 2,53,54
 458 122 458 122 477.5 130 c 128,-1,55
 497 138 497 138 511 146.5 c 128,-1,56
 525 155 525 155 535 162.5 c 128,-1,57
 545 170 545 170 553 170 c 0,58,59
 565 170 565 170 575 154 c 2,60,-1
 615 73 l 1,0,1
1034 1408 m 0,61,62
 1118 1408 1118 1408 1146 1340 c 0,63,64
 1154 1320 1154 1320 1154 1296 c 0,65,66
 1154 1246 1154 1246 1112.5 1205 c 128,-1,67
 1071 1164 1071 1164 1022.5 1164 c 128,-1,68
 974 1164 974 1164 944 1196 c 128,-1,69
 914 1228 914 1228 914 1264 c 0,70,71
 914 1329 914 1329 956 1368.5 c 128,-1,72
 998 1408 998 1408 1034 1408 c 0,61,62
EndSplineSet
Validated: 1
Ligature2: "sous-table 'liga' Ligatures standard dans Latin lookup 37" t iogonek
EndChar

StartChar: t_dotlessi.liga
Encoding: 1114150 -1 129
Width: 1141
GlyphClass: 3
Flags: MW
LayerCount: 2
Fore
SplineSet
615 73 m 1,0,1
 514 -15 514 -15 391 -15 c 0,2,3
 174 -15 174 -15 174 184 c 0,4,5
 174 208 174 208 177 234 c 2,6,-1
 251 835 l 1,7,-1
 141 835 l 2,8,9
 127 835 127 835 118 845 c 0,10,11
 111 853 111 853 111 867 c 2,12,-1
 111 873 l 1,13,-1
 119 940 l 1,14,-1
 272 959 l 1,15,-1
 350 1263 l 2,16,17
 359 1295 359 1295 392 1295 c 2,18,-1
 478 1295 l 1,19,-1
 436 958 l 1,20,-1
 1079 958 l 1,21,-1
 962 0 l 1,22,-1
 791 0 l 1,23,-1
 894 835 l 1,24,-1
 421 835 l 1,25,-1
 349 245 l 2,26,27
 347 229 347 229 347 216 c 0,28,29
 347 174 347 174 365 152 c 0,30,31
 389 122 389 122 422 122 c 2,32,-1
 424 122 l 2,33,34
 458 122 458 122 477.5 130 c 128,-1,35
 497 138 497 138 511 146.5 c 128,-1,36
 525 155 525 155 535 162.5 c 128,-1,37
 545 170 545 170 553 170 c 0,38,39
 565 170 565 170 575 154 c 2,40,-1
 615 73 l 1,0,1
EndSplineSet
Validated: 1
Ligature2: "sous-table 'liga' Ligatures standard dans Latin lookup 37" t dotlessi
EndChar

StartChar: t_t.liga
Encoding: 1114151 -1 130
Width: 1299
GlyphClass: 3
Flags: MW
LayerCount: 2
Fore
SplineSet
630 73 m 1,0,1
 527 -15 527 -15 401 -15 c 0,2,3
 180 -15 180 -15 180 182 c 0,4,5
 180 207 180 207 183 234 c 2,6,-1
 256 835 l 1,7,-1
 143 835 l 2,8,9
 130 835 130 835 120 845 c 0,10,11
 112 853 112 853 112 867 c 2,12,-1
 112 873 l 1,13,-1
 120 940 l 1,14,-1
 278 959 l 1,15,-1
 356 1263 l 2,16,17
 365 1295 365 1295 398 1295 c 2,18,-1
 483 1295 l 1,19,-1
 441 958 l 1,20,-1
 889 958 l 1,21,-1
 966 1263 l 2,22,23
 975 1295 975 1295 1009 1295 c 2,24,-1
 1095 1295 l 1,25,-1
 1053 958 l 1,26,-1
 1327 958 l 1,27,-1
 1313 835 l 1,28,-1
 1038 835 l 1,29,-1
 965 245 l 2,30,31
 963 230 963 230 963 213 c 0,32,33
 963 175 963 175 982 153 c 0,34,35
 1008 123 1008 123 1044 123 c 128,-1,36
 1080 123 1080 123 1100 130.5 c 128,-1,37
 1120 138 1120 138 1135 146.5 c 128,-1,38
 1150 155 1150 155 1160.5 162.5 c 128,-1,39
 1171 170 1171 170 1179 170 c 0,40,41
 1190 170 1190 170 1200 154 c 2,42,-1
 1242 73 l 1,43,44
 1139 -15 1139 -15 1013 -15 c 0,45,46
 791 -15 791 -15 791 182 c 0,47,48
 791 206 791 206 794 234 c 2,49,-1
 868 835 l 1,50,-1
 426 835 l 1,51,-1
 354 245 l 2,52,53
 352 230 352 230 352 217 c 0,54,55
 352 174 352 174 372 152 c 0,56,57
 398 122 398 122 432 122 c 2,58,-1
 434 122 l 2,59,60
 470 122 470 122 489.5 130 c 128,-1,61
 509 138 509 138 524 146.5 c 128,-1,62
 539 155 539 155 549.5 162.5 c 128,-1,63
 560 170 560 170 568 170 c 0,64,65
 580 170 580 170 590 154 c 2,66,-1
 630 73 l 1,0,1
EndSplineSet
Validated: 1
Ligature2: "sous-table 'liga' Ligatures standard dans Latin lookup 37" t t
EndChar

StartChar: t_t_f.liga
Encoding: 1114152 -1 131
Width: 1867
GlyphClass: 3
Flags: MW
LayerCount: 2
Fore
SplineSet
622 73 m 1,0,1
 519 -15 519 -15 395 -15 c 0,2,3
 177 -15 177 -15 177 181 c 0,4,5
 177 206 177 206 180 234 c 2,6,-1
 253 835 l 1,7,-1
 142 835 l 2,8,9
 128 835 128 835 119 845 c 0,10,11
 112 853 112 853 112 867 c 2,12,-1
 112 873 l 1,13,-1
 119 940 l 1,14,-1
 274 959 l 1,15,-1
 352 1263 l 2,16,17
 361 1295 361 1295 394 1295 c 2,18,-1
 480 1295 l 1,19,-1
 438 958 l 1,20,-1
 876 958 l 1,21,-1
 953 1263 l 2,22,23
 962 1295 962 1295 997 1295 c 2,24,-1
 1082 1295 l 1,25,-1
 1040 958 l 1,26,-1
 1499 958 l 1,27,-1
 1511 1054 l 2,28,29
 1532 1220 1532 1220 1629.5 1311 c 128,-1,30
 1727 1402 1727 1402 1877 1403 c 0,31,32
 1936 1403 1936 1403 1991 1384 c 1,33,-1
 1977 1299 l 2,34,35
 1972 1276 1972 1276 1950 1274.5 c 128,-1,36
 1928 1273 1928 1273 1888 1273 c 0,37,38
 1703 1273 1703 1273 1675 1048 c 2,39,-1
 1663 958 l 1,40,-1
 1931 958 l 1,41,-1
 1917 835 l 1,42,-1
 1654 835 l 1,43,-1
 1551 0 l 1,44,-1
 1382 0 l 1,45,-1
 1484 835 l 1,46,-1
 1025 835 l 1,47,-1
 953 245 l 2,48,49
 951 229 951 229 951 216 c 0,50,51
 951 176 951 176 969 153 c 0,52,53
 993 123 993 123 1028.5 123 c 128,-1,54
 1064 123 1064 123 1084 130.5 c 128,-1,55
 1104 138 1104 138 1118.5 146.5 c 128,-1,56
 1133 155 1133 155 1143 162.5 c 128,-1,57
 1153 170 1153 170 1161 170 c 0,58,59
 1172 170 1172 170 1182 154 c 2,60,-1
 1224 73 l 1,61,62
 1121 -15 1121 -15 997 -15 c 0,63,64
 779 -15 779 -15 779 181 c 0,65,66
 779 206 779 206 782 234 c 2,67,-1
 855 835 l 1,68,-1
 423 835 l 1,69,-1
 351 245 l 2,70,71
 349 229 349 229 349 216 c 0,72,73
 350 174 350 174 368 152 c 0,74,75
 392 122 392 122 426 122 c 2,76,-1
 428 122 l 2,77,78
 464 122 464 122 483 130 c 128,-1,79
 502 138 502 138 516 146.5 c 128,-1,80
 530 155 530 155 540.5 162.5 c 128,-1,81
 551 170 551 170 559 170 c 0,82,83
 571 170 571 170 581 154 c 2,84,-1
 622 73 l 1,0,1
EndSplineSet
Validated: 1
Ligature2: "sous-table 'liga' Ligatures standard dans Latin lookup 37" t t f
EndChar

StartChar: t_t_iogonek.liga
Encoding: 1114153 -1 132
Width: 1753
GlyphClass: 3
Flags: MW
LayerCount: 2
Fore
SplineSet
627 73 m 1,0,1
 524 -15 524 -15 399 -15 c 0,2,3
 179 -15 179 -15 179 182 c 0,4,5
 179 207 179 207 182 234 c 2,6,-1
 255 835 l 1,7,-1
 142 835 l 2,8,9
 128 835 128 835 119 845 c 0,10,11
 112 853 112 853 112 867 c 2,12,-1
 112 873 l 1,13,-1
 119 940 l 1,14,-1
 277 959 l 1,15,-1
 355 1263 l 2,16,17
 362 1295 362 1295 397 1295 c 2,18,-1
 482 1295 l 1,19,-1
 440 958 l 1,20,-1
 884 958 l 1,21,-1
 962 1263 l 2,22,23
 968 1295 968 1295 1005 1295 c 2,24,-1
 1090 1295 l 1,25,-1
 1048 958 l 1,26,-1
 1685 958 l 1,27,-1
 1671 835 l 1,28,-1
 1670 835 l 1,29,-1
 1568 0 l 1,30,-1
 1544 0 l 1,31,32
 1464 -44 1464 -44 1434 -108 c 0,33,34
 1422 -132 1422 -132 1422 -161.5 c 128,-1,35
 1422 -191 1422 -191 1440.5 -209.5 c 128,-1,36
 1459 -228 1459 -228 1484.5 -228 c 128,-1,37
 1510 -228 1510 -228 1524 -224.5 c 128,-1,38
 1538 -221 1538 -221 1547 -216.5 c 128,-1,39
 1556 -212 1556 -212 1561.5 -208.5 c 128,-1,40
 1567 -205 1567 -205 1571 -205 c 0,41,42
 1585 -205 1585 -205 1588 -217 c 2,43,-1
 1606 -280 l 1,44,45
 1538 -330 1538 -330 1454 -330 c 128,-1,46
 1370 -330 1370 -330 1330 -296.5 c 128,-1,47
 1290 -263 1290 -263 1290 -207 c 0,48,49
 1290 -90 1290 -90 1437 0 c 1,50,-1
 1399 0 l 1,51,-1
 1500 835 l 1,52,-1
 1033 835 l 1,53,-1
 961 245 l 2,54,55
 959 230 959 230 959 216 c 0,56,57
 960 175 960 175 978 153 c 0,58,59
 1002 123 1002 123 1038 123 c 128,-1,60
 1074 123 1074 123 1094 130.5 c 128,-1,61
 1114 138 1114 138 1129 146.5 c 128,-1,62
 1144 155 1144 155 1154.5 162.5 c 128,-1,63
 1165 170 1165 170 1173 170 c 0,64,65
 1184 170 1184 170 1194 154 c 2,66,-1
 1235 73 l 1,67,68
 1134 -15 1134 -15 1008 -15 c 0,69,70
 787 -15 787 -15 787 182 c 0,71,72
 787 207 787 207 790 234 c 2,73,-1
 863 835 l 1,74,-1
 425 835 l 1,75,-1
 353 245 l 2,76,77
 351 230 351 230 351 216 c 0,78,79
 351 174 351 174 370 152 c 0,80,81
 395 122 395 122 430 122 c 2,82,-1
 431 122 l 2,83,84
 467 122 467 122 486.5 130 c 128,-1,85
 506 138 506 138 521 146.5 c 128,-1,86
 536 155 536 155 546 162.5 c 128,-1,87
 556 170 556 170 566 170 c 128,-1,88
 576 170 576 170 587 154 c 2,89,-1
 627 73 l 1,0,1
1640 1408 m 0,90,91
 1726 1408 1726 1408 1754 1340 c 0,92,93
 1762 1320 1762 1320 1762 1295 c 0,94,95
 1762 1244 1762 1244 1720 1204 c 128,-1,96
 1678 1164 1678 1164 1630 1164 c 2,97,-1
 1629 1164 l 2,98,99
 1581 1164 1581 1164 1551 1196 c 128,-1,100
 1521 1228 1521 1228 1521 1266 c 0,101,102
 1521 1328 1521 1328 1562.5 1368 c 128,-1,103
 1604 1408 1604 1408 1640 1408 c 0,90,91
EndSplineSet
Validated: 1
Ligature2: "sous-table 'liga' Ligatures standard dans Latin lookup 37" t t iogonek
EndChar

StartChar: t_t_dotlessi.liga
Encoding: 1114154 -1 133
Width: 1753
GlyphClass: 3
Flags: MW
LayerCount: 2
Fore
SplineSet
627 73 m 1,0,1
 526 -15 526 -15 400 -15 c 0,2,3
 179 -15 179 -15 179 182 c 0,4,5
 179 207 179 207 182 234 c 2,6,-1
 255 835 l 1,7,-1
 142 835 l 2,8,9
 128 835 128 835 119 845 c 0,10,11
 112 853 112 853 112 867 c 2,12,-1
 112 873 l 1,13,-1
 119 940 l 1,14,-1
 277 959 l 1,15,-1
 355 1263 l 2,16,17
 362 1295 362 1295 397 1295 c 2,18,-1
 482 1295 l 1,19,-1
 440 958 l 1,20,-1
 884 958 l 1,21,-1
 962 1263 l 2,22,23
 968 1295 968 1295 1005 1295 c 2,24,-1
 1090 1295 l 1,25,-1
 1048 958 l 1,26,-1
 1685 958 l 1,27,-1
 1671 835 l 1,28,-1
 1670 835 l 1,29,-1
 1568 0 l 1,30,-1
 1399 0 l 1,31,-1
 1500 835 l 1,32,-1
 1033 835 l 1,33,-1
 961 245 l 2,34,35
 959 230 959 230 959 216 c 0,36,37
 960 175 960 175 978 153 c 0,38,39
 1002 123 1002 123 1038 123 c 128,-1,40
 1074 123 1074 123 1094 130.5 c 128,-1,41
 1114 138 1114 138 1129 146.5 c 128,-1,42
 1144 155 1144 155 1154.5 162.5 c 128,-1,43
 1165 170 1165 170 1173 170 c 0,44,45
 1184 170 1184 170 1194 154 c 2,46,-1
 1235 73 l 1,47,48
 1134 -15 1134 -15 1008 -15 c 0,49,50
 787 -15 787 -15 787 182 c 0,51,52
 787 207 787 207 790 234 c 2,53,-1
 863 835 l 1,54,-1
 425 835 l 1,55,-1
 353 245 l 2,56,57
 351 230 351 230 351 216 c 0,58,59
 351 174 351 174 370 152 c 0,60,61
 395 122 395 122 430 122 c 2,62,-1
 431 122 l 2,63,64
 467 122 467 122 486.5 130 c 128,-1,65
 506 138 506 138 521 146.5 c 128,-1,66
 536 155 536 155 546.5 162.5 c 128,-1,67
 557 170 557 170 565 170 c 0,68,69
 577 170 577 170 587 154 c 2,70,-1
 627 73 l 1,0,1
EndSplineSet
Validated: 1
Ligature2: "sous-table 'liga' Ligatures standard dans Latin lookup 37" t t dotlessi
EndChar

StartChar: u
Encoding: 117 117 134
Width: 1053
GlyphClass: 2
Flags: W
AnchorPoint: "Ancre-1" 282 10 basechar 0
AnchorPoint: "Ancre-0" 573 1073 basechar 0
AnchorPoint: "Ancre-2" 1053 1515 basechar 0
AnchorPoint: "Ancre-3" 1053 -510 basechar 0
AnchorPoint: "Ancre-5" 1053 1492 basechar 0
LayerCount: 2
Fore
SplineSet
270 289 m 0,0,1
 270 132 270 132 399 132 c 0,2,3
 494 132 494 132 591 225.5 c 128,-1,4
 688 319 688 319 743 473 c 1,5,-1
 803 978 l 1,6,-1
 978 978 l 1,7,-1
 860 0 l 1,8,-1
 773 0 l 2,9,10
 711 0 711 0 711 55 c 2,11,-1
 711 63 l 1,12,-1
 724 242 l 1,13,14
 644 115 644 115 543 50.5 c 128,-1,15
 442 -14 442 -14 323 -14 c 128,-1,16
 204 -14 204 -14 142 83 c 0,17,18
 95 155 95 155 95 269 c 0,19,20
 95 312 95 312 100 356 c 2,21,-1
 173 978 l 1,22,-1
 348 978 l 1,23,-1
 274 356 l 2,24,25
 270 319 270 319 270 289 c 0,0,1
EndSplineSet
Validated: 1
Substitution2: "sous-table 'smcp' Bas-de-casse vers petites capitales dans Latin lookup 0" u.smcp
Substitution2: "sous-table 'ordn' Ordinaux dans Latin lookup 39" u.superior
Substitution2: "sous-table 'sups' Exposant lookups25" u.superior
EndChar

StartChar: uogonek
Encoding: 371 371 135
Width: 1053
GlyphClass: 2
Flags: MW
AnchorPoint: "Ancre-5" 1076 1122 basechar 0
AnchorPoint: "Ancre-4" 853 550 basechar 0
AnchorPoint: "Ancre-3" 1076 -510 basechar 0
AnchorPoint: "Ancre-2" 1076 1515 basechar 0
AnchorPoint: "Ancre-1" 538 0 basechar 0
AnchorPoint: "Ancre-0" 541 1492 basechar 0
LayerCount: 2
Fore
SplineSet
922 -280 m 1,0,1
 854 -330 854 -330 770 -330 c 128,-1,2
 686 -330 686 -330 646 -296 c 128,-1,3
 606 -262 606 -262 606 -218 c 0,4,5
 606 -88 606 -88 755 1 c 1,6,7
 711 9 711 9 711 55 c 2,8,-1
 711 63 l 1,9,-1
 724 242 l 1,10,11
 644 115 644 115 543 50.5 c 128,-1,12
 442 -14 442 -14 323 -14 c 128,-1,13
 204 -14 204 -14 142 83 c 0,14,15
 95 155 95 155 95 269 c 0,16,17
 95 313 95 313 100 356 c 2,18,-1
 173 978 l 1,19,-1
 348 978 l 1,20,-1
 274 356 l 2,21,22
 270 322 270 322 270 289 c 0,23,24
 270 132 270 132 399 132 c 0,25,26
 494 132 494 132 591 225.5 c 128,-1,27
 688 319 688 319 743 473 c 1,28,-1
 803 978 l 1,29,-1
 978 978 l 1,30,-1
 860 0 l 1,31,-1
 750 -108 l 1,32,33
 738 -132 738 -132 738 -161 c 0,34,35
 738 -191 738 -191 757 -209 c 0,36,37
 775 -228 775 -228 801 -228 c 0,38,39
 826 -228 826 -228 840 -224 c 0,40,41
 854 -221 854 -221 863 -216 c 0,42,43
 872 -212 872 -212 878 -208 c 0,44,45
 883 -205 883 -205 887 -205 c 0,46,47
 901 -205 901 -205 904 -217 c 2,48,-1
 922 -280 l 1,0,1
EndSplineSet
Validated: 1
LCarets2: 1 0
Substitution2: "sous-table 'smcp' Bas-de-casse vers petites capitales dans Latin lookup 0" uogonek.smcp
Ligature2: "sous-table 'ccmp' Composition et d+AOkA-composition de glyphe (CJK) lookups10" u uni0328
EndChar

StartChar: v
Encoding: 118 118 136
Width: 913
GlyphClass: 2
Flags: W
AnchorPoint: "Ancre-5" 975 1492 basechar 0
AnchorPoint: "Ancre-2" 975 1515 basechar 0
AnchorPoint: "Ancre-3" 975 -510 basechar 0
AnchorPoint: "Ancre-1" 384 10 basechar 0
AnchorPoint: "Ancre-0" 528 1073 basechar 0
LayerCount: 2
Fore
SplineSet
72 978 m 1,0,-1
 214 978 l 2,1,2
 252 978 252 978 260 942 c 2,3,-1
 397 317 l 2,4,5
 412 249 412 249 416 174 c 1,6,7
 439 247 439 247 471 315 c 2,8,-1
 763 942 l 2,9,10
 782 978 782 978 816 978 c 2,11,-1
 953 978 l 1,12,-1
 467 0 l 1,13,-1
 320 0 l 1,14,-1
 72 978 l 1,0,-1
EndSplineSet
Validated: 1
Substitution2: "sous-table 'smcp' Bas-de-casse vers petites capitales dans Latin lookup 0" v.smcp
Substitution2: "sous-table 'ordn' Ordinaux dans Latin lookup 39" v.superior
Substitution2: "sous-table 'sups' Exposant lookups25" v.superior
EndChar

StartChar: w
Encoding: 119 119 137
Width: 1464
GlyphClass: 2
Flags: W
AnchorPoint: "Ancre-5" 1522 1492 basechar 0
AnchorPoint: "Ancre-2" 1522 1515 basechar 0
AnchorPoint: "Ancre-3" 1522 -510 basechar 0
AnchorPoint: "Ancre-1" 644 10 basechar 0
AnchorPoint: "Ancre-0" 822 1073 basechar 0
LayerCount: 2
Fore
SplineSet
76 978 m 1,0,-1
 206 978 l 2,1,2
 248 978 248 978 255 941 c 2,3,-1
 356 318 l 2,4,5
 364 261 364 261 369 187 c 1,6,7
 382 224 382 224 420 317 c 2,8,-1
 706 946 l 2,9,10
 721 980 721 980 755 980 c 2,11,-1
 828 980 l 2,12,13
 867 980 867 980 872 947 c 2,14,-1
 995 318 l 2,15,16
 1011 225 1011 225 1015 187 c 1,17,18
 1035 257 1035 257 1059 316 c 2,19,-1
 1324 942 l 2,20,21
 1338 978 1338 978 1374 978 c 2,22,-1
 1501 978 l 1,23,-1
 1071 0 l 1,24,-1
 938 0 l 2,25,26
 914 0 914 0 908 33 c 2,27,-1
 773 692 l 2,28,29
 767 723 767 723 764 755 c 1,30,31
 754 723 754 723 740 691 c 2,32,-1
 437 33 l 2,33,34
 423 0 423 0 397 0 c 2,35,-1
 270 0 l 1,36,-1
 76 978 l 1,0,-1
EndSplineSet
Validated: 1
Substitution2: "sous-table 'smcp' Bas-de-casse vers petites capitales dans Latin lookup 0" w.smcp
Substitution2: "sous-table 'ordn' Ordinaux dans Latin lookup 39" w.superior
Substitution2: "sous-table 'sups' Exposant lookups25" w.superior
EndChar

StartChar: x
Encoding: 120 120 138
Width: 887
GlyphClass: 2
Flags: W
AnchorPoint: "Ancre-5" 937 1492 basechar 0
AnchorPoint: "Ancre-3" 937 -510 basechar 0
AnchorPoint: "Ancre-2" 937 1515 basechar 0
AnchorPoint: "Ancre-1" 346 10 basechar 0
AnchorPoint: "Ancre-0" 523 1073 basechar 0
LayerCount: 2
Fore
SplineSet
338 526 m 1,0,-1
 113 978 l 1,1,-1
 270 978 l 2,2,3
 302 978 302 978 313 954 c 2,4,-1
 468 621 l 1,5,6
 480 645 480 645 492 660 c 2,7,-1
 700 951 l 2,8,9
 719 978 719 978 742 978 c 2,10,-1
 900 978 l 1,11,-1
 559 526 l 1,12,-1
 809 0 l 1,13,-1
 652 0 l 2,14,15
 620 0 620 0 605 34 c 2,16,-1
 431 422 l 1,17,18
 423 402 423 402 410 385 c 2,19,-1
 158 33 l 2,20,21
 134 0 134 0 106 0 c 2,22,-1
 -47 0 l 1,23,-1
 338 526 l 1,0,-1
EndSplineSet
Validated: 1
Substitution2: "sous-table 'sups' Exposant lookups25" x.superior
Substitution2: "sous-table 'ordn' Ordinaux dans Latin lookup 39" x.superior
Substitution2: "sous-table 'smcp' Bas-de-casse vers petites capitales dans Latin lookup 0" x.smcp
EndChar

StartChar: y
Encoding: 121 121 139
Width: 916
GlyphClass: 2
Flags: W
AnchorPoint: "Ancre-5" 983 1492 basechar 0
AnchorPoint: "Ancre-3" 983 -510 basechar 0
AnchorPoint: "Ancre-2" 983 1515 basechar 0
AnchorPoint: "Ancre-1" 524 10 basechar 0
AnchorPoint: "Ancre-0" 513 1073 basechar 0
LayerCount: 2
Fore
SplineSet
307 -290 m 2,0,1
 287 -330 287 -330 247 -330 c 2,2,-1
 118 -330 l 1,3,-1
 329 57 l 1,4,-1
 78 978 l 1,5,-1
 223 978 l 2,6,7
 260 978 260 978 269 941 c 2,8,-1
 420 331 l 2,9,10
 430 292 430 292 434 248 c 1,11,12
 452 292 452 292 472 332 c 2,13,-1
 773 944 l 2,14,15
 790 978 790 978 824 978 c 2,16,-1
 964 978 l 1,17,-1
 307 -290 l 2,0,1
EndSplineSet
Validated: 1
Substitution2: "sous-table 'smcp' Bas-de-casse vers petites capitales dans Latin lookup 0" y.smcp
Substitution2: "sous-table 'salt' Alternatives stylistiques lookups28" y.salt
Substitution2: "sous-table 'ordn' Ordinaux dans Latin lookup 39" y.superior
Substitution2: "sous-table 'sups' Exposant lookups25" y.superior
Substitution2: "sous-table 'ss04' Style 4 lookups34" y.salt
EndChar

StartChar: z
Encoding: 122 122 140
Width: 809
GlyphClass: 2
Flags: W
AnchorPoint: "Ancre-5" 860 1492 basechar 0
AnchorPoint: "Ancre-3" 860 -510 basechar 0
AnchorPoint: "Ancre-2" 860 1515 basechar 0
AnchorPoint: "Ancre-1" 253 10 basechar 0
AnchorPoint: "Ancre-0" 569 1073 basechar 0
LayerCount: 2
Fore
SplineSet
803 904 m 2,0,1
 797 868 797 868 772 836 c 2,2,-1
 228 137 l 1,3,-1
 693 137 l 1,4,-1
 676 0 l 1,5,-1
 3 0 l 1,6,-1
 11 73 l 2,7,8
 16 104 16 104 42 136 c 2,9,-1
 587 841 l 1,10,-1
 131 841 l 1,11,-1
 149 978 l 1,12,-1
 812 978 l 1,13,-1
 803 904 l 2,0,1
EndSplineSet
Validated: 1
Substitution2: "sous-table 'smcp' Bas-de-casse vers petites capitales dans Latin lookup 0" z.smcp
Substitution2: "sous-table 'ordn' Ordinaux dans Latin lookup 39" z.superior
Substitution2: "sous-table 'sups' Exposant lookups25" z.superior
EndChar

